<?xml version="1.0" encoding="utf-8"?>
<!-- Generator: Adobe Illustrator 25.4.1, SVG Export Plug-In . SVG Version: 6.00 Build 0)  -->
<svg version="1.1" id="レイヤー_1" xmlns="http://www.w3.org/2000/svg" xmlns:xlink="http://www.w3.org/1999/xlink" x="0px"
	 y="0px" viewBox="0 0 242 54" style="enable-background:new 0 0 242 54;" xml:space="preserve">
<style type="text/css">
	.st0{fill:#32667A;}
</style>
<g>
	<g>
		<g>
			<path class="st0" d="M0.3,53.4c0-2.5,1.4-4.7,4.2-6.5c1.3-0.7,2.6-1.3,3.9-2c1.3-0.7,2.6-1.4,3.9-2c2.8-1.5,4.2-3.2,4.2-4.9
				c0-1.3-0.7-2.3-2.2-3C13,34.3,11.5,34,9.8,34c-1.6,0-3,0.3-4.1,0.8c-1.4,0.6-2.1,1.6-2.1,2.8H0.3c0-2,1-3.6,3.1-4.8
				c1.8-1,4-1.5,6.5-1.5c2.5,0,4.7,0.6,6.6,1.7c2.1,1.2,3.1,2.9,3.1,4.9c0,2-1.1,3.8-3.2,5.4c-0.4,0.3-1.1,0.7-2.2,1.2
				c-1.1,0.6-2.5,1.3-4.4,2.2c-2.7,1.3-4.5,2.7-5.4,4h15.2v2.7H0.3z"/>
			<path class="st0" d="M45.6,50.3c-2.1,2.4-4.8,3.7-8.1,3.7c-3.4,0-6.1-1.2-8.2-3.7c-1.9-2.2-2.8-4.7-2.8-7.6
				c0-1.5,0.2-2.8,0.7-4.1s1.2-2.4,2.1-3.5c2.1-2.4,4.8-3.7,8.2-3.7c3.3,0,6,1.2,8.1,3.7c1.9,2.2,2.8,4.7,2.8,7.6
				C48.4,45.5,47.5,48.1,45.6,50.3z M43.3,36.9C41.9,35,39.9,34,37.5,34c-2.5,0-4.4,1-5.9,2.9c-1.2,1.6-1.8,3.5-1.8,5.7
				c0,2.2,0.6,4.1,1.8,5.7c1.4,1.9,3.4,2.9,5.9,2.9c2.5,0,4.4-1,5.8-2.9c1.3-1.6,1.9-3.5,1.9-5.7C45.2,40.5,44.6,38.6,43.3,36.9z"/>
			<path class="st0" d="M55.3,53.4c0-2.5,1.4-4.7,4.2-6.5c1.3-0.7,2.6-1.3,3.9-2c1.3-0.7,2.6-1.4,3.9-2c2.8-1.5,4.2-3.2,4.2-4.9
				c0-1.3-0.7-2.3-2.2-3C68,34.3,66.5,34,64.8,34c-1.6,0-3,0.3-4.1,0.8c-1.4,0.6-2.1,1.6-2.1,2.8h-3.2c0-2,1-3.6,3.1-4.8
				c1.8-1,4-1.5,6.5-1.5c2.5,0,4.7,0.6,6.6,1.7c2.1,1.2,3.1,2.9,3.1,4.9c0,2-1.1,3.8-3.2,5.4c-0.4,0.3-1.1,0.7-2.2,1.2
				c-1.1,0.6-2.5,1.3-4.4,2.2c-2.7,1.3-4.5,2.7-5.4,4h15.2v2.7H55.3z"/>
			<path class="st0" d="M83.5,53.4c0-2.5,1.4-4.7,4.2-6.5c1.3-0.7,2.6-1.3,3.9-2c1.3-0.7,2.6-1.4,3.9-2c2.8-1.5,4.2-3.2,4.2-4.9
				c0-1.3-0.7-2.3-2.2-3C96.1,34.3,94.7,34,93,34c-1.6,0-3,0.3-4.1,0.8c-1.4,0.6-2.1,1.6-2.1,2.8h-3.2c0-2,1-3.6,3.1-4.8
				c1.8-1,4-1.5,6.5-1.5c2.5,0,4.7,0.6,6.6,1.7c2.1,1.2,3.1,2.9,3.1,4.9c0,2-1.1,3.8-3.2,5.4c-0.4,0.3-1.1,0.7-2.2,1.2
				c-1.1,0.6-2.5,1.3-4.4,2.2c-2.7,1.3-4.5,2.7-5.4,4h15.2v2.7H83.5z"/>
			<path class="st0" d="M115.6,52.8c-0.4,0.4-1,0.5-1.6,0.5c-0.6,0-1.2-0.2-1.6-0.5c-0.4-0.4-0.6-0.8-0.6-1.3c0-0.5,0.2-1,0.6-1.3
				c0.4-0.4,1-0.5,1.6-0.5c0.6,0,1.2,0.2,1.6,0.5c0.4,0.4,0.7,0.8,0.7,1.3C116.3,52,116,52.5,115.6,52.8z"/>
			<path class="st0" d="M143,50.3c-2.1,2.4-4.8,3.7-8.1,3.7c-3.4,0-6.1-1.2-8.2-3.7c-1.9-2.2-2.8-4.7-2.8-7.6c0-1.5,0.2-2.8,0.7-4.1
				s1.2-2.4,2.1-3.5c2.1-2.4,4.8-3.7,8.2-3.7c3.3,0,6,1.2,8.1,3.7c1.9,2.2,2.8,4.7,2.8,7.6C145.8,45.5,144.9,48.1,143,50.3z
				 M140.7,36.9c-1.5-1.9-3.4-2.9-5.8-2.9c-2.5,0-4.4,1-5.9,2.9c-1.2,1.6-1.8,3.5-1.8,5.7c0,2.2,0.6,4.1,1.8,5.7
				c1.4,1.9,3.4,2.9,5.9,2.9c2.5,0,4.4-1,5.8-2.9c1.3-1.6,1.9-3.5,1.9-5.7C142.6,40.5,142,38.6,140.7,36.9z"/>
			<path class="st0" d="M169.5,52.2c-1.9,1.1-4.3,1.7-7.1,1.7c-2.8,0-5.1-0.6-7.1-1.7c-2.1-1.3-3.2-3-3.2-5.3c0-2.7,1.7-4.5,5-5.6
				c-2.5-0.8-3.7-2.3-3.7-4.3c0-1.9,1-3.3,2.9-4.3c1.6-0.9,3.7-1.3,6.1-1.3c2.4,0,4.4,0.4,6.1,1.3c2,1,2.9,2.4,2.9,4.3
				c0,2-1.2,3.5-3.7,4.3c3.4,1.1,5,3,5,5.6C172.7,49.1,171.6,50.9,169.5,52.2z M167.1,43.7c-1.4-0.7-2.9-1-4.7-1
				c-1.8,0-3.3,0.3-4.7,1c-1.6,0.8-2.4,1.9-2.4,3.3c0,1.4,0.8,2.5,2.3,3.3c1.3,0.6,2.9,1,4.8,1c1.9,0,3.5-0.3,4.7-1
				c1.6-0.8,2.4-1.9,2.4-3.3C169.5,45.6,168.7,44.5,167.1,43.7z M166.2,34.6c-1-0.4-2.2-0.6-3.7-0.6c-1.5,0-2.8,0.2-3.8,0.6
				c-1.3,0.5-2,1.3-2,2.4c0,1,0.7,1.7,2.1,2.3c1.1,0.5,2.3,0.7,3.7,0.7c0.7,0,1.3-0.1,1.9-0.2c0.6-0.1,1.2-0.3,1.7-0.5
				c1.4-0.6,2.1-1.4,2.1-2.3C168.2,35.9,167.5,35.1,166.2,34.6z"/>
			<path class="st0" d="M184.9,52.8c-0.4,0.4-1,0.5-1.6,0.5c-0.6,0-1.2-0.2-1.6-0.5c-0.4-0.4-0.6-0.8-0.6-1.3c0-0.5,0.2-1,0.6-1.3
				c0.4-0.4,1-0.5,1.6-0.5c0.6,0,1.2,0.2,1.6,0.5c0.4,0.4,0.7,0.8,0.7,1.3C185.5,52,185.3,52.5,184.9,52.8z"/>
			<path class="st0" d="M194.5,53.4c0-2.5,1.4-4.7,4.2-6.5c1.3-0.7,2.6-1.3,3.9-2c1.3-0.7,2.6-1.4,3.9-2c2.8-1.5,4.2-3.2,4.2-4.9
				c0-1.3-0.7-2.3-2.2-3c-1.2-0.6-2.7-0.8-4.4-0.8c-1.6,0-3,0.3-4.1,0.8c-1.4,0.6-2.1,1.6-2.1,2.8h-3.2c0-2,1-3.6,3.1-4.8
				c1.8-1,4-1.5,6.5-1.5c2.5,0,4.7,0.6,6.6,1.7c2.1,1.2,3.1,2.9,3.1,4.9c0,2-1.1,3.8-3.2,5.4c-0.4,0.3-1.1,0.7-2.2,1.2
				c-1.1,0.6-2.5,1.3-4.4,2.2c-2.7,1.3-4.5,2.7-5.4,4h15.2v2.7H194.5z"/>
			<path class="st0" d="M238.5,51.6c-2,1.5-4.4,2.3-7.2,2.3c-3.4,0-6.1-1.2-8.2-3.7c-1.9-2.2-2.8-4.7-2.8-7.6c0-1.5,0.2-2.8,0.7-4.1
				c0.5-1.3,1.2-2.4,2.1-3.5c1-1.2,2.3-2.1,3.6-2.7s2.9-0.9,4.5-0.9c3.2,0,5.9,1.1,7.9,3.4l-2.5,1.6c-1.4-1.6-3.2-2.3-5.4-2.3
				c-2.1,0-3.9,0.7-5.2,2.1c-1.2,1.2-2,2.8-2.3,4.6c1.8-2.1,4.3-3.1,7.6-3.1c2.8,0,5.2,0.8,7.2,2.3c2.1,1.6,3.2,3.5,3.2,5.8
				C241.7,48.1,240.6,50,238.5,51.6z M236.3,41.9c-1.4-1-3.1-1.5-4.9-1.5c-1.9,0-3.5,0.5-4.8,1.6c-1.3,1-2,2.3-2,3.9
				c0,1.4,0.7,2.6,2.1,3.8c1.4,1.1,2.9,1.6,4.7,1.6c1.9,0,3.5-0.5,5-1.5c1.4-1,2.1-2.3,2.1-3.9C238.5,44.3,237.7,43,236.3,41.9z"/>
		</g>
	</g>
	<g>
		<g>
			<path class="st0" d="M33,14.9c-2.4,0-4.5-0.7-6.3-2.2c-1.7-1.4-2.6-3.2-2.6-5.2s0.9-3.8,2.6-5.2c1.8-1.5,3.9-2.2,6.3-2.2
				c2.5,0,4.5,0.7,6.3,2.2l-1.5,1.2c-1.3-1.1-2.9-1.6-4.8-1.6c-1.9,0-3.4,0.6-4.8,1.7c-1.3,1.1-2,2.4-2,4s0.7,2.9,2,4
				c1.3,1.1,2.9,1.7,4.8,1.7c1.9,0,3.5-0.5,4.8-1.6l1.5,1.2C37.5,14.2,35.4,14.9,33,14.9z"/>
			<path class="st0" d="M57.7,12.7c-1.7,1.4-3.8,2.2-6.3,2.2c-2.4,0-4.5-0.7-6.3-2.2c-1.7-1.4-2.6-3.2-2.6-5.2c0-2,0.9-3.8,2.6-5.2
				c1.8-1.4,3.9-2.2,6.3-2.2c2.5,0,4.5,0.7,6.3,2.2c1.7,1.5,2.6,3.2,2.6,5.2C60.3,9.6,59.5,11.3,57.7,12.7z M56.2,3.5
				c-1.3-1.1-2.9-1.7-4.8-1.7c-1.9,0-3.4,0.6-4.8,1.7c-1.3,1.1-2,2.4-2,4s0.7,2.9,2,4c1.3,1.1,2.9,1.7,4.8,1.7
				c1.9,0,3.5-0.6,4.8-1.7c1.3-1.1,2-2.4,2-4S57.5,4.6,56.2,3.5z"/>
			<path class="st0" d="M78.6,14.6V2.7l-5.2,11.8h-2.3L65.9,2.7v11.9h-2.1V0.4h3.4l5,11.5l5-11.5h3.4v14.1H78.6z"/>
			<path class="st0" d="M84.7,14.6V0.4h2.1v14.1H84.7z"/>
			<path class="st0" d="M102.3,14.6L93,3.6v10.9h-2.1V0.4H93l9.3,10.9V0.4h2.1v14.1H102.3z"/>
			<path class="st0" d="M122.8,13c-0.5,0.4-1.1,0.8-1.8,1c-0.6,0.3-1.3,0.5-2,0.7c-0.7,0.2-1.4,0.2-2.2,0.2c-2.4,0-4.5-0.7-6.3-2.2
				c-1.7-1.4-2.6-3.2-2.6-5.2s0.9-3.8,2.6-5.2c1.8-1.5,3.9-2.2,6.3-2.2c1.4,0,2.8,0.3,4,0.8s2.3,1.3,3.1,2.2l-1.7,1
				c-0.6-0.7-1.4-1.3-2.4-1.7c-1-0.4-2-0.6-3-0.6c-1.9,0-3.4,0.6-4.8,1.7c-1.3,1.1-2,2.4-2,4s0.7,2.9,2,4c1.3,1.1,2.9,1.7,4.8,1.7
				c2.2,0,4-0.7,5.3-2.1V8.4h-5.3V6.6h7.4v5C123.8,12.1,123.4,12.6,122.8,13z"/>
			<path class="st0" d="M151.7,13.9c-1.3,0.7-2.8,1-4.5,1c-1.7,0-3.2-0.3-4.5-1c-1.5-0.8-2.3-1.8-2.3-3.2h2.1c0,0.9,0.5,1.5,1.6,1.9
				c0.9,0.3,1.9,0.5,3,0.5c1.2,0,2.2-0.2,3-0.5c1.1-0.4,1.7-1.1,1.7-1.9c0-1.1-1-1.8-2.9-2.2c-0.9-0.1-1.8-0.3-2.7-0.4
				c-0.9-0.1-1.8-0.3-2.7-0.4c-1.9-0.6-2.8-1.8-2.8-3.5c0-1.3,0.7-2.3,2.1-3.1c1.2-0.7,2.6-1.1,4.3-1.1c1.6,0,3,0.4,4.2,1.1
				c1.4,0.8,2.1,1.8,2.1,3.1h-2.1c0-0.8-0.5-1.4-1.5-1.8c-0.8-0.4-1.7-0.5-2.8-0.5c-1,0-2,0.2-2.7,0.5c-1,0.4-1.5,1.1-1.5,1.9
				c0,1.1,0.9,1.8,2.8,2.2c0.9,0.2,1.8,0.3,2.6,0.5c0.9,0.2,1.7,0.3,2.6,0.5c1.9,0.6,2.9,1.7,2.9,3.4C154,12,153.3,13.1,151.7,13.9z
				"/>
			<path class="st0" d="M172.5,12.7c-1.7,1.4-3.8,2.2-6.3,2.2c-2.4,0-4.5-0.7-6.3-2.2c-1.7-1.4-2.6-3.2-2.6-5.2c0-2,0.9-3.8,2.6-5.2
				c1.8-1.4,3.9-2.2,6.3-2.2c2.5,0,4.5,0.7,6.3,2.2c1.7,1.5,2.6,3.2,2.6,5.2C175.1,9.6,174.2,11.3,172.5,12.7z M171,3.5
				c-1.3-1.1-2.9-1.7-4.8-1.7c-1.9,0-3.4,0.6-4.8,1.7c-1.3,1.1-2,2.4-2,4s0.7,2.9,2,4c1.3,1.1,2.9,1.7,4.8,1.7
				c1.9,0,3.5-0.6,4.8-1.7c1.3-1.1,2-2.4,2-4S172.3,4.6,171,3.5z"/>
			<path class="st0" d="M193.2,12.7c-1.7,1.4-3.8,2.2-6.3,2.2c-2.4,0-4.5-0.7-6.3-2.2c-1.7-1.4-2.6-3.2-2.6-5.2c0-2,0.9-3.8,2.6-5.2
				c1.8-1.4,3.9-2.2,6.3-2.2c2.5,0,4.5,0.7,6.3,2.2c1.7,1.5,2.6,3.2,2.6,5.2C195.8,9.6,195,11.3,193.2,12.7z M191.7,3.5
				c-1.3-1.1-2.9-1.7-4.8-1.7c-1.9,0-3.4,0.6-4.8,1.7c-1.3,1.1-2,2.4-2,4s0.7,2.9,2,4c1.3,1.1,2.9,1.7,4.8,1.7
				c1.9,0,3.5-0.6,4.8-1.7c1.3-1.1,2-2.4,2-4S193,4.6,191.7,3.5z"/>
			<path class="st0" d="M210.8,14.6l-9.3-10.9v10.9h-2.1V0.4h2.1l9.3,10.9V0.4h2.1v14.1H210.8z"/>
		</g>
	</g>
</g>
</svg>
