<?xml version="1.0" encoding="utf-8"?>
<!-- Generator: Adobe Illustrator 25.4.1, SVG Export Plug-In . SVG Version: 6.00 Build 0)  -->
<svg version="1.1" id="レイヤー_1" xmlns="http://www.w3.org/2000/svg" xmlns:xlink="http://www.w3.org/1999/xlink" x="0px"
	 y="0px" viewBox="0 0 345 25" style="enable-background:new 0 0 345 25;" xml:space="preserve">
<style type="text/css">
	.st0{fill:#FF583B;}
</style>
<metadata><?xpacket begin="﻿" id="W5M0MpCehiHzreSzNTczkc9d"?>
<x:xmpmeta xmlns:x="adobe:ns:meta/" x:xmptk="Adobe XMP Core 7.0-c000 79.217bca6, 2021/06/14-18:28:11        ">
   <rdf:RDF xmlns:rdf="http://www.w3.org/1999/02/22-rdf-syntax-ns#">
      <rdf:Description rdf:about=""
            xmlns:dc="http://purl.org/dc/elements/1.1/"
            xmlns:xmp="http://ns.adobe.com/xap/1.0/"
            xmlns:xmpGImg="http://ns.adobe.com/xap/1.0/g/img/"
            xmlns:xmpMM="http://ns.adobe.com/xap/1.0/mm/"
            xmlns:stRef="http://ns.adobe.com/xap/1.0/sType/ResourceRef#"
            xmlns:stEvt="http://ns.adobe.com/xap/1.0/sType/ResourceEvent#"
            xmlns:illustrator="http://ns.adobe.com/illustrator/1.0/"
            xmlns:xmpTPg="http://ns.adobe.com/xap/1.0/t/pg/"
            xmlns:stDim="http://ns.adobe.com/xap/1.0/sType/Dimensions#"
            xmlns:xmpG="http://ns.adobe.com/xap/1.0/g/"
            xmlns:pdf="http://ns.adobe.com/pdf/1.3/">
         <dc:format>image/svg+xml</dc:format>
         <dc:title>
            <rdf:Alt>
               <rdf:li xml:lang="x-default">Print</rdf:li>
            </rdf:Alt>
         </dc:title>
         <xmp:MetadataDate>2022-08-24T18:59:25+09:00</xmp:MetadataDate>
         <xmp:ModifyDate>2022-08-24T18:59:25+09:00</xmp:ModifyDate>
         <xmp:CreateDate>2022-08-24T18:59:25+09:00</xmp:CreateDate>
         <xmp:CreatorTool>Adobe Illustrator 25.4 (Macintosh)</xmp:CreatorTool>
         <xmp:Thumbnails>
            <rdf:Alt>
               <rdf:li rdf:parseType="Resource">
                  <xmpGImg:width>256</xmpGImg:width>
                  <xmpGImg:height>20</xmpGImg:height>
                  <xmpGImg:format>JPEG</xmpGImg:format>
                  <xmpGImg:image>/9j/4AAQSkZJRgABAgEASABIAAD/7QAsUGhvdG9zaG9wIDMuMAA4QklNA+0AAAAAABAASAAAAAEA&#xA;AQBIAAAAAQAB/+4ADkFkb2JlAGTAAAAAAf/bAIQABgQEBAUEBgUFBgkGBQYJCwgGBggLDAoKCwoK&#xA;DBAMDAwMDAwQDA4PEA8ODBMTFBQTExwbGxscHx8fHx8fHx8fHwEHBwcNDA0YEBAYGhURFRofHx8f&#xA;Hx8fHx8fHx8fHx8fHx8fHx8fHx8fHx8fHx8fHx8fHx8fHx8fHx8fHx8fHx8f/8AAEQgAFAEAAwER&#xA;AAIRAQMRAf/EAaIAAAAHAQEBAQEAAAAAAAAAAAQFAwIGAQAHCAkKCwEAAgIDAQEBAQEAAAAAAAAA&#xA;AQACAwQFBgcICQoLEAACAQMDAgQCBgcDBAIGAnMBAgMRBAAFIRIxQVEGE2EicYEUMpGhBxWxQiPB&#xA;UtHhMxZi8CRygvElQzRTkqKyY3PCNUQnk6OzNhdUZHTD0uIIJoMJChgZhJRFRqS0VtNVKBry4/PE&#xA;1OT0ZXWFlaW1xdXl9WZ2hpamtsbW5vY3R1dnd4eXp7fH1+f3OEhYaHiImKi4yNjo+Ck5SVlpeYmZ&#xA;qbnJ2en5KjpKWmp6ipqqusra6voRAAICAQIDBQUEBQYECAMDbQEAAhEDBCESMUEFURNhIgZxgZEy&#xA;obHwFMHR4SNCFVJicvEzJDRDghaSUyWiY7LCB3PSNeJEgxdUkwgJChgZJjZFGidkdFU38qOzwygp&#xA;0+PzhJSktMTU5PRldYWVpbXF1eX1RlZmdoaWprbG1ub2R1dnd4eXp7fH1+f3OEhYaHiImKi4yNjo&#xA;+DlJWWl5iZmpucnZ6fkqOkpaanqKmqq6ytrq+v/aAAwDAQACEQMRAD8A9DaLrOoXXkYatM4a+NtP&#xA;L6gUAc058TxAp+yMxcWWRw8R50XZanTQjq/DA9PEB86V7DzFDB5VsdY1abgJYomnlC7c5aCtFGwq&#xA;clDMBjEpMMukMtRLHjHImvgqad5r0m/vVsovWiuJEMkCzxPF6qDq0ZcDkMlDURka6sM2gyY48Roj&#xA;kaINe+kK/m6NPNZ0Uwyel6SkSiGUn1nk4dQKenT9vp75D8x+84Px/Y2js8nT+LYu+8cqv5+Sb6vq&#xA;cGl6bcX84JjgXlxX7TMTRVHuzEAZdkmIRJLiafCcsxAcyxW+Pm6S90mO41P6lPqczBrK2jjKwwxx&#xA;mR6u4Yu4oBXpmJLxLjZri6Do7XF+WEZkQ4hAcyTuSa5DkE106/1ax1pNG1aZbsXMbzWF8EEbP6ZH&#xA;qRyIvw8lDA1HbLYTlGXDLe+RcXNixzxeLjHDwmpR58+RCE8938QgtbaG+iguY7lZLiEzxRSej6Ug&#xA;qVee15DkV25jIauYoAHe+/8AaG3svEblIxJiY0Dwki7HdGX3MUlvCYnCaigcqQp+sW43ptv+lmp9&#xA;2Yhl5/aP+qjto4994f7GX/VBn/lu/t5dAtP9LjuZrW2iS8aKVZysixjnyaMvU1B+ebHBMGA3uhv1&#xA;ef1mKQzS9JiJSNWK2vzYMdWuf0oLgazc/pH1zaGY2sdBp3L1PV4eh1r8PT7Xtmv8Q8V8R4rrl/D8&#xA;ne/l4+Hw+HHgri+o/Xyr6vj7kxt9S0K9muz5g1G5nCXs8NvZsJVg4xyH0/ghReTcR0YnLYzhInjJ&#xA;5nbp9jjzw5YCPgwiPQCTte435nb4J/5u1VbXy8fQUOL5DBGpqDweJmLAHf4UWu+ZGoyVDbq6/s/B&#xA;xZt/4d/tH6WI3d5rT6LFaFpkdLRYkjgFwIpYWhVoiBHb3ClqOUarr07ZhylPgry8+73F2+PHiGUy&#xA;2+q9+Gwb35yjttY2PNOPIs92skNvdTXHwwKkUDi5MalVFQfUtoUWgG1JD9OXaUnYG+Xn+ofe4fak&#xA;IkGURH6ufpv7Jk/YFPzpLqF1q0djbR3xNs0F4Via1EJiicF5U9Qc+ak03NK9qYNSZGVDi2o9GXZs&#xA;YQxmcjD1XHfiuyORravtUbOe31S4e5v31IW8OnwzQI0xSeUSTTHmEtiitVaAbVoMESJmzxVwj38z&#xA;3M8kTiHDDw7MyDtYFCO1ytknkxbgaEvr+tUzTmIXBYyiIyt6fLkS32adcydNfBv5ut7SMfF2rkOX&#xA;K63Q3l3U7pPLY1OWO51CS6uJpBDFSSRUaZggUO6gKqqNgdsjhmeDi3Nk/e2avBE5+AGMBGIG+w5D&#xA;uHNB6Pruqy+YdWWPS7t1kltvgneKP6vGYlUllLt1IZqLWuQx5ZGcvSenwbtRpcYwwucdhLkCeI37&#xA;vhuyq/ju5LSRLS4W1uDThO6eqq0IJqlUrUbdcy5gkbGi6rEYiQMhxDuumMC3/MCbUJLZNRjhs4qB&#xA;717WNSxO/wC6j9SXkPduOYvDmMqvbvp2fHo4wEjAmR/h4j9pofZbJpVv0sSsDJNeqgCvNVEdwNy3&#xA;ANSvsMyjdbc3WRMDPexHy/aw+NvNknmy8nA06K5trGGKVmed4VR5JHU1oh5bGte2YQ8TxCfTYHm7&#xA;kjTjTxHrMZTJ/hvYAebJdFGrsJZr++t7tJKeklrGURKV5fEXctWvfwzKxcXMkH3Os1Ph7CEZRr+c&#xA;ef2BR1qaC51Gy0O4h9W2v45pJyHeNlFuUZaFCDuzePbI5SDIQPI39jPTRMYSyg1KBAG18771LSLD&#xA;S7PUStlrEsw4lTp0lyJ1B6gqrFnWnzwY4RjLaXwu2eoy5Jw9WMD+lw1+xNtQvRZWrXBhmuOJA9K3&#xA;QySGppsoy6cuEXzcPFj45VYHvNBh2leanhuNY1e50++awlueJm4qUgjgRYjVOfIUYMX4jMLHqKMp&#xA;ESq/lTuc+hsY8cZQ4xHl3k786+Se6Xrd2dXl0rUfTMkim5025hBEc1uT0oSaOld9+m+X48p4uGXv&#xA;HmHBz6aPhjJC6G0geYP6iv1qWC51Gz0O4h9W2v45pZyHdGUW5QpQoVO7N49sOUgyEDyP6GOmiYwl&#xA;lBqUSAOR533qWkWGl2eoFLPWJZgFKnTpLkTqDsagNykWnzwY4RjLaXwu2eoy5JwuWMD+lw1+xIbK&#xA;bWNN8sTeWm0m6nv0Sa2t540rbSLKW4yGWvFQA24P+1jxMo4/D4TfLyc/JHHlzjPxxENiQT6hXSkR&#xA;5q0+TT/IFtYcRPLbfU4ivZ3WRARv2JyWohw4QO6mvQ5Rk1hnyB4z9hRDTXmueYtImj065s4NMMst&#xA;zPdx+lvJHwEcdT8e/UjbJWck4miOHvaxGODDMGcZGdACJvkbs9yIuxdWvniG8NpPNaXVilmJ4U5q&#xA;kvrs/wC8ofhXiftZKVjLdGiK+1rx8M9KY8QEoz4qPUcNbI7zTYXd7o0kdookuYpIp4omNA5hkWTg&#xA;Sf5uNMszwMo7c2jQ5Ywygy+kgj3WKtLoJJ21GTzHrkf6MsrKEwWcEzKWX1GHqSvxJALUCgZUCeLj&#xA;n6QBs5EogQGDEeOUjZI8uQ/Susp5dd8w22pwxPFpOnRSrbzyqUNxLOApZFah4Ko+0e+GJ8SYkPpj&#xA;9toyRGDCcZIOSZFgfwgd/naA86XVv+mtNijY/WIVmabgsxYK4UJUwxzNvQ9sr1Mhxjv+P6AXI7Ng&#xA;fCmTyNVy6c+ZDHPVisrCC+knuGMlzepcaZDK0c5IlcpIqMFb4StHqo61ptTMW+EA2eZ26/jvdlwm&#xA;czACO0YVIixyG36t2d+UlRPLkDNeC9lZS888T+pRmq3EMKk8B8Pjmw0/0De3Q683mPp4R0B2/FsJ&#xA;A1P/ABE99yvBpwtPVX1blorr6oJeJl5NQD4vj4NT4ffMH1cd78Nd+9O79HgiHp4+Kto3Hirl+ix1&#xA;Ti1ikGmaDdSKyNf6214EbqFnWd0r80IOXRHpie+d/O3DySHHliP4MXD8uG/tZV5gRG0O/ZlBKW05&#xA;QkVIPpMKj6DmZmHoPuLqdIT4sf6w+9iOr28lxB5XhS3e5rYSsYkRZDslvvxaWAbV/mzCyCxAVfp/&#xA;V5h3GnmInMSeH1jy6z/oy+5E+SIjDr+qRei1uBb259JlVKEtJvxSW4H/AA30ZPSipyHLYfjmWvtO&#xA;V4YG79UvPu74x+5Z560+5a9t7iO3mYTzwWhlW8eNWjndVkgEQ2USUAY/Tg1UDYNdQOff0T2XliIm&#xA;JI2Bl9AO45SvrSUa7a29hexXF1aJJPZW1r6Wm3Un1wyiS4uUMKvIGJPEhloNqZTliImyOQGx36nZ&#xA;y9LM5ImMZUJSl6ojhqowN0PkzHyNFaxeWLJbeWOWql5mioFEsjF3Sgpx4luNKZm6UAYxTpu05SOe&#xA;XECO6+4bD5sb8u6pqmleVluHZVj+spp8BnqYLdIiyvNIEofikqDv4b5i4ckoY7868h5uz1mDHl1H&#xA;CP5pka5yvkB8P0q+h6xqkev6nciOPWbOd7WK4vdP2VH4FRxQs/MCo50bbJYskhOR+obbhhqtPjOG&#xA;EbOOQ4iIy/Ary23T3zpBczaOixwyXNutxC99bQ7ySWyvWRVX9rtt3GZGpBMe8WL9zr+zZRGTciJ4&#xA;Twk8hLo4eePLVAPXlVv99/VrjkP9iI64/msff9hT/JmfuH+mj+tN7K8hvbWO6hDiKUVUSKyNStN1&#xA;YAjLoyEhYcPLjMJGJ5j4scv9E8qwaxd6jrl5FJJdGORLW6kRIlWNeC/uiQH6HdhmNPFjEjKZ597s&#xA;cWp1EscYYokCN7xG++/Pop+XF0yTzPc3Ogw+noxtfTuJIl9O3kuRIOJjWgBKpyBK7YMPCchMPpr4&#xA;Wz1hmMAjmN5OLa95CNdfij9f8v6Pd30Wp6tdGK0ghMLQvIIYWDNy+NqqSNulabDLM2GJPFI7OPpN&#xA;XkhA48cbkTd1Z+CQ+YD5Su7H9HeXoLe41gsn1JrBFrE4YH1GmjFEVe5rmPm8MjhgAZdK/W5+k/MQ&#xA;nx5jIY/4uI8/KjzZZruqjStHnvGHqTIvGFAP7yZ/hjUAV+05GZeXJwRJdTpcHi5BHp18h1+xi02q&#xA;aXpflG60Az+prIge2e1IPqSXN0DUqpHxqXkJr0pmIckYYzC/VVfEu1jgyZdSM1fu7u+gjH7tgyy0&#xA;0m2jh04zRiS506IRwSnqpMYR6f6wGZkcYAF8w6jJqJEyo+mZ3+dpdr/l/Rru+i1TVrox2lvCYWge&#xA;QRQtyblV2qpPTpWmwyvNhiTxSOwcnSavLCBx4xciburPwSHzA3lK7sRp3l6C3uNYLIbJrBFrE4YH&#xA;1GljFFVe9TmPm8MjhgAZdKc/SDUQnx5jIY9+LiPPyos9zYOgSrzN+i/0X/uT5/VfWh/u/tc/UX0+&#xA;nblSuU5+Hh9XLZy9F4nifu/qo/Kt01y5xHYq7FWm48Typx716YpDeKHYql9n/h/69N9S+qfX/i+s&#xA;ej6frfbPPnx+L+85Vr3rlceC9qtyMnjcA4uLg6Xdcunw+xWsP0VWf6h6FfU/0n0OH97QV9Th+1Sn&#xA;XfDDh34aYZfE2475bXfLy8lO9/QnqS/Xfq3qegfX9bhy+r8t+XLf0+XjtXBLg61y+xlj8Whw8VXt&#xA;V/V+tWuP0f8A6N9Z9H+8X6p6nH+94nj6df2uNaU3pXJHh2v4MIce/DfLf3efkq3HoehJ9Y4/V+Le&#xA;t6lOHCnxcq7Up1rhNVvyYwuxw81GP9Gc7X0/Q9T0m+pceFfR+Hl6VP2PsV47dPbIjh25eTM+JRu+&#xA;e/v35+fP7VDTP8P/AFi6/Rn1T6xy/wBN+renz51P97w3rWv2sEOCzw1fWmebxqHicVdLv7LRN59R&#xA;4xfXPS4+qno+txp63L93x5ft8vs03rkpV1a8fHvw3yN13dfh3qcn6J/SKep6H6R4j0+XD1+Px8eN&#xA;fjp9un+y98B4eLpxfayHicG3FwfGunw7vsVLT6jSX6p6VPUb1/S4/wB7ty58f2vGu+GNdGOTj24r&#xA;5bX3fqVn48TzpwoeVelO9ckwCy3+rekPq3D0v2fTpx+jjtgjVbJnxX6uaphYuxV2KoG8/Qf1pPrv&#xA;1b63x/d+t6fqca/s8vipXK5cF71bfj8Xh9PFw+V0jV48RxpxptTpTLGgqV59S+rn676f1eq8vW48&#xA;K8hxry2+1SnvkZVW/Jnj4r9N35OtPqfpf6J6fpf8VceP/C7YxrouTiv1Xfmqtxp8VKVHXxrtkmAU&#xA;pPqf1mP1PT+s0PpcuPOnfjXf7siavzZji4TV8P2K2SYKN59S9A/XfS+r1WvrceFajj9ravLpkZVW&#xA;/Jnj4r9N35OtPqfpf6J6fpf8VceP/C7YxrouTiv1Xfm//9k=</xmpGImg:image>
               </rdf:li>
            </rdf:Alt>
         </xmp:Thumbnails>
         <xmpMM:InstanceID>xmp.iid:9e8c0a21-a0f4-46bd-990c-6440f1d46c3e</xmpMM:InstanceID>
         <xmpMM:DocumentID>xmp.did:9e8c0a21-a0f4-46bd-990c-6440f1d46c3e</xmpMM:DocumentID>
         <xmpMM:OriginalDocumentID>uuid:5D20892493BFDB11914A8590D31508C8</xmpMM:OriginalDocumentID>
         <xmpMM:RenditionClass>proof:pdf</xmpMM:RenditionClass>
         <xmpMM:DerivedFrom rdf:parseType="Resource">
            <stRef:instanceID>uuid:4309e52a-f003-a341-9c09-631e0b1d1fb1</stRef:instanceID>
            <stRef:documentID>xmp.did:fb95c1d5-e351-4eab-ba9f-16d563b009fb</stRef:documentID>
            <stRef:originalDocumentID>uuid:5D20892493BFDB11914A8590D31508C8</stRef:originalDocumentID>
            <stRef:renditionClass>proof:pdf</stRef:renditionClass>
         </xmpMM:DerivedFrom>
         <xmpMM:History>
            <rdf:Seq>
               <rdf:li rdf:parseType="Resource">
                  <stEvt:action>saved</stEvt:action>
                  <stEvt:instanceID>xmp.iid:9e8c0a21-a0f4-46bd-990c-6440f1d46c3e</stEvt:instanceID>
                  <stEvt:when>2022-08-24T18:59:25+09:00</stEvt:when>
                  <stEvt:softwareAgent>Adobe Illustrator 25.4 (Macintosh)</stEvt:softwareAgent>
                  <stEvt:changed>/</stEvt:changed>
               </rdf:li>
            </rdf:Seq>
         </xmpMM:History>
         <illustrator:StartupProfile>Print</illustrator:StartupProfile>
         <illustrator:CreatorSubTool>Adobe Illustrator</illustrator:CreatorSubTool>
         <xmpTPg:HasVisibleOverprint>False</xmpTPg:HasVisibleOverprint>
         <xmpTPg:HasVisibleTransparency>False</xmpTPg:HasVisibleTransparency>
         <xmpTPg:NPages>1</xmpTPg:NPages>
         <xmpTPg:MaxPageSize rdf:parseType="Resource">
            <stDim:w>345.000000</stDim:w>
            <stDim:h>25.000000</stDim:h>
            <stDim:unit>Pixels</stDim:unit>
         </xmpTPg:MaxPageSize>
         <xmpTPg:PlateNames>
            <rdf:Seq>
               <rdf:li>Magenta</rdf:li>
               <rdf:li>Yellow</rdf:li>
            </rdf:Seq>
         </xmpTPg:PlateNames>
         <xmpTPg:SwatchGroups>
            <rdf:Seq>
               <rdf:li rdf:parseType="Resource">
                  <xmpG:groupName>初期設定のスウォッチグループ</xmpG:groupName>
                  <xmpG:groupType>0</xmpG:groupType>
                  <xmpG:Colorants>
                     <rdf:Seq>
                        <rdf:li rdf:parseType="Resource">
                           <xmpG:swatchName>ホワイト</xmpG:swatchName>
                           <xmpG:mode>RGB</xmpG:mode>
                           <xmpG:type>PROCESS</xmpG:type>
                           <xmpG:red>255</xmpG:red>
                           <xmpG:green>255</xmpG:green>
                           <xmpG:blue>255</xmpG:blue>
                        </rdf:li>
                        <rdf:li rdf:parseType="Resource">
                           <xmpG:swatchName>ブラック</xmpG:swatchName>
                           <xmpG:mode>RGB</xmpG:mode>
                           <xmpG:type>PROCESS</xmpG:type>
                           <xmpG:red>35</xmpG:red>
                           <xmpG:green>24</xmpG:green>
                           <xmpG:blue>21</xmpG:blue>
                        </rdf:li>
                        <rdf:li rdf:parseType="Resource">
                           <xmpG:swatchName>CMYK レッド</xmpG:swatchName>
                           <xmpG:mode>RGB</xmpG:mode>
                           <xmpG:type>PROCESS</xmpG:type>
                           <xmpG:red>230</xmpG:red>
                           <xmpG:green>0</xmpG:green>
                           <xmpG:blue>18</xmpG:blue>
                        </rdf:li>
                        <rdf:li rdf:parseType="Resource">
                           <xmpG:swatchName>CMYK イエロー</xmpG:swatchName>
                           <xmpG:mode>RGB</xmpG:mode>
                           <xmpG:type>PROCESS</xmpG:type>
                           <xmpG:red>255</xmpG:red>
                           <xmpG:green>241</xmpG:green>
                           <xmpG:blue>0</xmpG:blue>
                        </rdf:li>
                        <rdf:li rdf:parseType="Resource">
                           <xmpG:swatchName>CMYK グリーン</xmpG:swatchName>
                           <xmpG:mode>RGB</xmpG:mode>
                           <xmpG:type>PROCESS</xmpG:type>
                           <xmpG:red>0</xmpG:red>
                           <xmpG:green>153</xmpG:green>
                           <xmpG:blue>68</xmpG:blue>
                        </rdf:li>
                        <rdf:li rdf:parseType="Resource">
                           <xmpG:swatchName>CMYK シアン</xmpG:swatchName>
                           <xmpG:mode>RGB</xmpG:mode>
                           <xmpG:type>PROCESS</xmpG:type>
                           <xmpG:red>0</xmpG:red>
                           <xmpG:green>160</xmpG:green>
                           <xmpG:blue>233</xmpG:blue>
                        </rdf:li>
                        <rdf:li rdf:parseType="Resource">
                           <xmpG:swatchName>CMYK ブルー</xmpG:swatchName>
                           <xmpG:mode>RGB</xmpG:mode>
                           <xmpG:type>PROCESS</xmpG:type>
                           <xmpG:red>29</xmpG:red>
                           <xmpG:green>32</xmpG:green>
                           <xmpG:blue>136</xmpG:blue>
                        </rdf:li>
                        <rdf:li rdf:parseType="Resource">
                           <xmpG:swatchName>CMYK マゼンタ</xmpG:swatchName>
                           <xmpG:mode>RGB</xmpG:mode>
                           <xmpG:type>PROCESS</xmpG:type>
                           <xmpG:red>228</xmpG:red>
                           <xmpG:green>0</xmpG:green>
                           <xmpG:blue>127</xmpG:blue>
                        </rdf:li>
                        <rdf:li rdf:parseType="Resource">
                           <xmpG:swatchName>C=15 M=100 Y=90 K=10</xmpG:swatchName>
                           <xmpG:mode>RGB</xmpG:mode>
                           <xmpG:type>PROCESS</xmpG:type>
                           <xmpG:red>195</xmpG:red>
                           <xmpG:green>13</xmpG:green>
                           <xmpG:blue>35</xmpG:blue>
                        </rdf:li>
                        <rdf:li rdf:parseType="Resource">
                           <xmpG:swatchName>C=0 M=90 Y=85 K=0</xmpG:swatchName>
                           <xmpG:mode>RGB</xmpG:mode>
                           <xmpG:type>PROCESS</xmpG:type>
                           <xmpG:red>232</xmpG:red>
                           <xmpG:green>56</xmpG:green>
                           <xmpG:blue>40</xmpG:blue>
                        </rdf:li>
                        <rdf:li rdf:parseType="Resource">
                           <xmpG:swatchName>C=0 M=80 Y=95 K=0</xmpG:swatchName>
                           <xmpG:mode>RGB</xmpG:mode>
                           <xmpG:type>PROCESS</xmpG:type>
                           <xmpG:red>234</xmpG:red>
                           <xmpG:green>85</xmpG:green>
                           <xmpG:blue>20</xmpG:blue>
                        </rdf:li>
                        <rdf:li rdf:parseType="Resource">
                           <xmpG:swatchName>C=0 M=50 Y=100 K=0</xmpG:swatchName>
                           <xmpG:mode>RGB</xmpG:mode>
                           <xmpG:type>PROCESS</xmpG:type>
                           <xmpG:red>243</xmpG:red>
                           <xmpG:green>152</xmpG:green>
                           <xmpG:blue>0</xmpG:blue>
                        </rdf:li>
                        <rdf:li rdf:parseType="Resource">
                           <xmpG:swatchName>C=0 M=35 Y=85 K=0</xmpG:swatchName>
                           <xmpG:mode>RGB</xmpG:mode>
                           <xmpG:type>PROCESS</xmpG:type>
                           <xmpG:red>248</xmpG:red>
                           <xmpG:green>182</xmpG:green>
                           <xmpG:blue>45</xmpG:blue>
                        </rdf:li>
                        <rdf:li rdf:parseType="Resource">
                           <xmpG:swatchName>C=5 M=0 Y=90 K=0</xmpG:swatchName>
                           <xmpG:mode>RGB</xmpG:mode>
                           <xmpG:type>PROCESS</xmpG:type>
                           <xmpG:red>250</xmpG:red>
                           <xmpG:green>238</xmpG:green>
                           <xmpG:blue>0</xmpG:blue>
                        </rdf:li>
                        <rdf:li rdf:parseType="Resource">
                           <xmpG:swatchName>C=20 M=0 Y=100 K=0</xmpG:swatchName>
                           <xmpG:mode>RGB</xmpG:mode>
                           <xmpG:type>PROCESS</xmpG:type>
                           <xmpG:red>218</xmpG:red>
                           <xmpG:green>224</xmpG:green>
                           <xmpG:blue>0</xmpG:blue>
                        </rdf:li>
                        <rdf:li rdf:parseType="Resource">
                           <xmpG:swatchName>C=50 M=0 Y=100 K=0</xmpG:swatchName>
                           <xmpG:mode>RGB</xmpG:mode>
                           <xmpG:type>PROCESS</xmpG:type>
                           <xmpG:red>143</xmpG:red>
                           <xmpG:green>195</xmpG:green>
                           <xmpG:blue>31</xmpG:blue>
                        </rdf:li>
                        <rdf:li rdf:parseType="Resource">
                           <xmpG:swatchName>C=75 M=0 Y=100 K=0</xmpG:swatchName>
                           <xmpG:mode>RGB</xmpG:mode>
                           <xmpG:type>PROCESS</xmpG:type>
                           <xmpG:red>34</xmpG:red>
                           <xmpG:green>172</xmpG:green>
                           <xmpG:blue>56</xmpG:blue>
                        </rdf:li>
                        <rdf:li rdf:parseType="Resource">
                           <xmpG:swatchName>C=85 M=10 Y=100 K=10</xmpG:swatchName>
                           <xmpG:mode>RGB</xmpG:mode>
                           <xmpG:type>PROCESS</xmpG:type>
                           <xmpG:red>0</xmpG:red>
                           <xmpG:green>145</xmpG:green>
                           <xmpG:blue>58</xmpG:blue>
                        </rdf:li>
                        <rdf:li rdf:parseType="Resource">
                           <xmpG:swatchName>C=90 M=30 Y=95 K=30</xmpG:swatchName>
                           <xmpG:mode>RGB</xmpG:mode>
                           <xmpG:type>PROCESS</xmpG:type>
                           <xmpG:red>0</xmpG:red>
                           <xmpG:green>105</xmpG:green>
                           <xmpG:blue>52</xmpG:blue>
                        </rdf:li>
                        <rdf:li rdf:parseType="Resource">
                           <xmpG:swatchName>C=75 M=0 Y=75 K=0</xmpG:swatchName>
                           <xmpG:mode>RGB</xmpG:mode>
                           <xmpG:type>PROCESS</xmpG:type>
                           <xmpG:red>19</xmpG:red>
                           <xmpG:green>174</xmpG:green>
                           <xmpG:blue>103</xmpG:blue>
                        </rdf:li>
                        <rdf:li rdf:parseType="Resource">
                           <xmpG:swatchName>C=80 M=10 Y=45 K=0</xmpG:swatchName>
                           <xmpG:mode>RGB</xmpG:mode>
                           <xmpG:type>PROCESS</xmpG:type>
                           <xmpG:red>0</xmpG:red>
                           <xmpG:green>162</xmpG:green>
                           <xmpG:blue>154</xmpG:blue>
                        </rdf:li>
                        <rdf:li rdf:parseType="Resource">
                           <xmpG:swatchName>C=70 M=15 Y=0 K=0</xmpG:swatchName>
                           <xmpG:mode>RGB</xmpG:mode>
                           <xmpG:type>PROCESS</xmpG:type>
                           <xmpG:red>46</xmpG:red>
                           <xmpG:green>167</xmpG:green>
                           <xmpG:blue>224</xmpG:blue>
                        </rdf:li>
                        <rdf:li rdf:parseType="Resource">
                           <xmpG:swatchName>C=85 M=50 Y=0 K=0</xmpG:swatchName>
                           <xmpG:mode>RGB</xmpG:mode>
                           <xmpG:type>PROCESS</xmpG:type>
                           <xmpG:red>3</xmpG:red>
                           <xmpG:green>110</xmpG:green>
                           <xmpG:blue>184</xmpG:blue>
                        </rdf:li>
                        <rdf:li rdf:parseType="Resource">
                           <xmpG:swatchName>C=100 M=95 Y=5 K=0</xmpG:swatchName>
                           <xmpG:mode>RGB</xmpG:mode>
                           <xmpG:type>PROCESS</xmpG:type>
                           <xmpG:red>23</xmpG:red>
                           <xmpG:green>42</xmpG:green>
                           <xmpG:blue>136</xmpG:blue>
                        </rdf:li>
                        <rdf:li rdf:parseType="Resource">
                           <xmpG:swatchName>C=100 M=100 Y=25 K=25</xmpG:swatchName>
                           <xmpG:mode>RGB</xmpG:mode>
                           <xmpG:type>PROCESS</xmpG:type>
                           <xmpG:red>23</xmpG:red>
                           <xmpG:green>28</xmpG:green>
                           <xmpG:blue>97</xmpG:blue>
                        </rdf:li>
                        <rdf:li rdf:parseType="Resource">
                           <xmpG:swatchName>C=75 M=100 Y=0 K=0</xmpG:swatchName>
                           <xmpG:mode>RGB</xmpG:mode>
                           <xmpG:type>PROCESS</xmpG:type>
                           <xmpG:red>96</xmpG:red>
                           <xmpG:green>25</xmpG:green>
                           <xmpG:blue>134</xmpG:blue>
                        </rdf:li>
                        <rdf:li rdf:parseType="Resource">
                           <xmpG:swatchName>C=50 M=100 Y=0 K=0</xmpG:swatchName>
                           <xmpG:mode>RGB</xmpG:mode>
                           <xmpG:type>PROCESS</xmpG:type>
                           <xmpG:red>146</xmpG:red>
                           <xmpG:green>7</xmpG:green>
                           <xmpG:blue>131</xmpG:blue>
                        </rdf:li>
                        <rdf:li rdf:parseType="Resource">
                           <xmpG:swatchName>C=35 M=100 Y=35 K=10</xmpG:swatchName>
                           <xmpG:mode>RGB</xmpG:mode>
                           <xmpG:type>PROCESS</xmpG:type>
                           <xmpG:red>164</xmpG:red>
                           <xmpG:green>11</xmpG:green>
                           <xmpG:blue>93</xmpG:blue>
                        </rdf:li>
                        <rdf:li rdf:parseType="Resource">
                           <xmpG:swatchName>C=10 M=100 Y=50 K=0</xmpG:swatchName>
                           <xmpG:mode>RGB</xmpG:mode>
                           <xmpG:type>PROCESS</xmpG:type>
                           <xmpG:red>215</xmpG:red>
                           <xmpG:green>0</xmpG:green>
                           <xmpG:blue>81</xmpG:blue>
                        </rdf:li>
                        <rdf:li rdf:parseType="Resource">
                           <xmpG:swatchName>C=0 M=95 Y=20 K=0</xmpG:swatchName>
                           <xmpG:mode>RGB</xmpG:mode>
                           <xmpG:type>PROCESS</xmpG:type>
                           <xmpG:red>230</xmpG:red>
                           <xmpG:green>22</xmpG:green>
                           <xmpG:blue>115</xmpG:blue>
                        </rdf:li>
                        <rdf:li rdf:parseType="Resource">
                           <xmpG:swatchName>C=25 M=25 Y=40 K=0</xmpG:swatchName>
                           <xmpG:mode>RGB</xmpG:mode>
                           <xmpG:type>PROCESS</xmpG:type>
                           <xmpG:red>201</xmpG:red>
                           <xmpG:green>188</xmpG:green>
                           <xmpG:blue>156</xmpG:blue>
                        </rdf:li>
                        <rdf:li rdf:parseType="Resource">
                           <xmpG:swatchName>C=40 M=45 Y=50 K=5</xmpG:swatchName>
                           <xmpG:mode>RGB</xmpG:mode>
                           <xmpG:type>PROCESS</xmpG:type>
                           <xmpG:red>164</xmpG:red>
                           <xmpG:green>139</xmpG:green>
                           <xmpG:blue>120</xmpG:blue>
                        </rdf:li>
                        <rdf:li rdf:parseType="Resource">
                           <xmpG:swatchName>C=50 M=50 Y=60 K=25</xmpG:swatchName>
                           <xmpG:mode>RGB</xmpG:mode>
                           <xmpG:type>PROCESS</xmpG:type>
                           <xmpG:red>122</xmpG:red>
                           <xmpG:green>106</xmpG:green>
                           <xmpG:blue>86</xmpG:blue>
                        </rdf:li>
                        <rdf:li rdf:parseType="Resource">
                           <xmpG:swatchName>C=55 M=60 Y=65 K=40</xmpG:swatchName>
                           <xmpG:mode>RGB</xmpG:mode>
                           <xmpG:type>PROCESS</xmpG:type>
                           <xmpG:red>96</xmpG:red>
                           <xmpG:green>76</xmpG:green>
                           <xmpG:blue>63</xmpG:blue>
                        </rdf:li>
                        <rdf:li rdf:parseType="Resource">
                           <xmpG:swatchName>C=25 M=40 Y=65 K=0</xmpG:swatchName>
                           <xmpG:mode>RGB</xmpG:mode>
                           <xmpG:type>PROCESS</xmpG:type>
                           <xmpG:red>201</xmpG:red>
                           <xmpG:green>160</xmpG:green>
                           <xmpG:blue>99</xmpG:blue>
                        </rdf:li>
                        <rdf:li rdf:parseType="Resource">
                           <xmpG:swatchName>C=30 M=50 Y=75 K=10</xmpG:swatchName>
                           <xmpG:mode>RGB</xmpG:mode>
                           <xmpG:type>PROCESS</xmpG:type>
                           <xmpG:red>178</xmpG:red>
                           <xmpG:green>130</xmpG:green>
                           <xmpG:blue>71</xmpG:blue>
                        </rdf:li>
                        <rdf:li rdf:parseType="Resource">
                           <xmpG:swatchName>C=35 M=60 Y=80 K=25</xmpG:swatchName>
                           <xmpG:mode>RGB</xmpG:mode>
                           <xmpG:type>PROCESS</xmpG:type>
                           <xmpG:red>149</xmpG:red>
                           <xmpG:green>97</xmpG:green>
                           <xmpG:blue>52</xmpG:blue>
                        </rdf:li>
                        <rdf:li rdf:parseType="Resource">
                           <xmpG:swatchName>C=40 M=65 Y=90 K=35</xmpG:swatchName>
                           <xmpG:mode>RGB</xmpG:mode>
                           <xmpG:type>PROCESS</xmpG:type>
                           <xmpG:red>127</xmpG:red>
                           <xmpG:green>79</xmpG:green>
                           <xmpG:blue>33</xmpG:blue>
                        </rdf:li>
                        <rdf:li rdf:parseType="Resource">
                           <xmpG:swatchName>C=40 M=70 Y=100 K=50</xmpG:swatchName>
                           <xmpG:mode>RGB</xmpG:mode>
                           <xmpG:type>PROCESS</xmpG:type>
                           <xmpG:red>106</xmpG:red>
                           <xmpG:green>57</xmpG:green>
                           <xmpG:blue>6</xmpG:blue>
                        </rdf:li>
                        <rdf:li rdf:parseType="Resource">
                           <xmpG:swatchName>C=50 M=70 Y=80 K=70</xmpG:swatchName>
                           <xmpG:mode>RGB</xmpG:mode>
                           <xmpG:type>PROCESS</xmpG:type>
                           <xmpG:red>64</xmpG:red>
                           <xmpG:green>34</xmpG:green>
                           <xmpG:blue>15</xmpG:blue>
                        </rdf:li>
                     </rdf:Seq>
                  </xmpG:Colorants>
               </rdf:li>
               <rdf:li rdf:parseType="Resource">
                  <xmpG:groupName>グレー</xmpG:groupName>
                  <xmpG:groupType>1</xmpG:groupType>
                  <xmpG:Colorants>
                     <rdf:Seq>
                        <rdf:li rdf:parseType="Resource">
                           <xmpG:swatchName>C=0 M=0 Y=0 K=100</xmpG:swatchName>
                           <xmpG:mode>RGB</xmpG:mode>
                           <xmpG:type>PROCESS</xmpG:type>
                           <xmpG:red>35</xmpG:red>
                           <xmpG:green>24</xmpG:green>
                           <xmpG:blue>21</xmpG:blue>
                        </rdf:li>
                        <rdf:li rdf:parseType="Resource">
                           <xmpG:swatchName>C=0 M=0 Y=0 K=90</xmpG:swatchName>
                           <xmpG:mode>RGB</xmpG:mode>
                           <xmpG:type>PROCESS</xmpG:type>
                           <xmpG:red>62</xmpG:red>
                           <xmpG:green>58</xmpG:green>
                           <xmpG:blue>57</xmpG:blue>
                        </rdf:li>
                        <rdf:li rdf:parseType="Resource">
                           <xmpG:swatchName>C=0 M=0 Y=0 K=80</xmpG:swatchName>
                           <xmpG:mode>RGB</xmpG:mode>
                           <xmpG:type>PROCESS</xmpG:type>
                           <xmpG:red>89</xmpG:red>
                           <xmpG:green>87</xmpG:green>
                           <xmpG:blue>87</xmpG:blue>
                        </rdf:li>
                        <rdf:li rdf:parseType="Resource">
                           <xmpG:swatchName>C=0 M=0 Y=0 K=70</xmpG:swatchName>
                           <xmpG:mode>RGB</xmpG:mode>
                           <xmpG:type>PROCESS</xmpG:type>
                           <xmpG:red>114</xmpG:red>
                           <xmpG:green>113</xmpG:green>
                           <xmpG:blue>113</xmpG:blue>
                        </rdf:li>
                        <rdf:li rdf:parseType="Resource">
                           <xmpG:swatchName>C=0 M=0 Y=0 K=60</xmpG:swatchName>
                           <xmpG:mode>RGB</xmpG:mode>
                           <xmpG:type>PROCESS</xmpG:type>
                           <xmpG:red>137</xmpG:red>
                           <xmpG:green>137</xmpG:green>
                           <xmpG:blue>137</xmpG:blue>
                        </rdf:li>
                        <rdf:li rdf:parseType="Resource">
                           <xmpG:swatchName>C=0 M=0 Y=0 K=50</xmpG:swatchName>
                           <xmpG:mode>RGB</xmpG:mode>
                           <xmpG:type>PROCESS</xmpG:type>
                           <xmpG:red>159</xmpG:red>
                           <xmpG:green>160</xmpG:green>
                           <xmpG:blue>160</xmpG:blue>
                        </rdf:li>
                        <rdf:li rdf:parseType="Resource">
                           <xmpG:swatchName>C=0 M=0 Y=0 K=40</xmpG:swatchName>
                           <xmpG:mode>RGB</xmpG:mode>
                           <xmpG:type>PROCESS</xmpG:type>
                           <xmpG:red>181</xmpG:red>
                           <xmpG:green>181</xmpG:green>
                           <xmpG:blue>182</xmpG:blue>
                        </rdf:li>
                        <rdf:li rdf:parseType="Resource">
                           <xmpG:swatchName>C=0 M=0 Y=0 K=30</xmpG:swatchName>
                           <xmpG:mode>RGB</xmpG:mode>
                           <xmpG:type>PROCESS</xmpG:type>
                           <xmpG:red>201</xmpG:red>
                           <xmpG:green>202</xmpG:green>
                           <xmpG:blue>202</xmpG:blue>
                        </rdf:li>
                        <rdf:li rdf:parseType="Resource">
                           <xmpG:swatchName>C=0 M=0 Y=0 K=20</xmpG:swatchName>
                           <xmpG:mode>RGB</xmpG:mode>
                           <xmpG:type>PROCESS</xmpG:type>
                           <xmpG:red>220</xmpG:red>
                           <xmpG:green>221</xmpG:green>
                           <xmpG:blue>221</xmpG:blue>
                        </rdf:li>
                        <rdf:li rdf:parseType="Resource">
                           <xmpG:swatchName>C=0 M=0 Y=0 K=10</xmpG:swatchName>
                           <xmpG:mode>RGB</xmpG:mode>
                           <xmpG:type>PROCESS</xmpG:type>
                           <xmpG:red>239</xmpG:red>
                           <xmpG:green>239</xmpG:green>
                           <xmpG:blue>239</xmpG:blue>
                        </rdf:li>
                        <rdf:li rdf:parseType="Resource">
                           <xmpG:swatchName>C=0 M=0 Y=0 K=5</xmpG:swatchName>
                           <xmpG:mode>RGB</xmpG:mode>
                           <xmpG:type>PROCESS</xmpG:type>
                           <xmpG:red>247</xmpG:red>
                           <xmpG:green>248</xmpG:green>
                           <xmpG:blue>248</xmpG:blue>
                        </rdf:li>
                     </rdf:Seq>
                  </xmpG:Colorants>
               </rdf:li>
               <rdf:li rdf:parseType="Resource">
                  <xmpG:groupName>輝き</xmpG:groupName>
                  <xmpG:groupType>1</xmpG:groupType>
                  <xmpG:Colorants>
                     <rdf:Seq>
                        <rdf:li rdf:parseType="Resource">
                           <xmpG:swatchName>C=0 M=100 Y=100 K=0</xmpG:swatchName>
                           <xmpG:mode>RGB</xmpG:mode>
                           <xmpG:type>PROCESS</xmpG:type>
                           <xmpG:red>230</xmpG:red>
                           <xmpG:green>0</xmpG:green>
                           <xmpG:blue>18</xmpG:blue>
                        </rdf:li>
                        <rdf:li rdf:parseType="Resource">
                           <xmpG:swatchName>C=0 M=75 Y=100 K=0</xmpG:swatchName>
                           <xmpG:mode>RGB</xmpG:mode>
                           <xmpG:type>PROCESS</xmpG:type>
                           <xmpG:red>235</xmpG:red>
                           <xmpG:green>97</xmpG:green>
                           <xmpG:blue>0</xmpG:blue>
                        </rdf:li>
                        <rdf:li rdf:parseType="Resource">
                           <xmpG:swatchName>C=0 M=10 Y=95 K=0</xmpG:swatchName>
                           <xmpG:mode>RGB</xmpG:mode>
                           <xmpG:type>PROCESS</xmpG:type>
                           <xmpG:red>255</xmpG:red>
                           <xmpG:green>226</xmpG:green>
                           <xmpG:blue>0</xmpG:blue>
                        </rdf:li>
                        <rdf:li rdf:parseType="Resource">
                           <xmpG:swatchName>C=85 M=10 Y=100 K=0</xmpG:swatchName>
                           <xmpG:mode>RGB</xmpG:mode>
                           <xmpG:type>PROCESS</xmpG:type>
                           <xmpG:red>0</xmpG:red>
                           <xmpG:green>154</xmpG:green>
                           <xmpG:blue>62</xmpG:blue>
                        </rdf:li>
                        <rdf:li rdf:parseType="Resource">
                           <xmpG:swatchName>C=100 M=90 Y=0 K=0</xmpG:swatchName>
                           <xmpG:mode>RGB</xmpG:mode>
                           <xmpG:type>PROCESS</xmpG:type>
                           <xmpG:red>11</xmpG:red>
                           <xmpG:green>49</xmpG:green>
                           <xmpG:blue>143</xmpG:blue>
                        </rdf:li>
                        <rdf:li rdf:parseType="Resource">
                           <xmpG:swatchName>C=60 M=90 Y=0 K=0</xmpG:swatchName>
                           <xmpG:mode>RGB</xmpG:mode>
                           <xmpG:type>PROCESS</xmpG:type>
                           <xmpG:red>126</xmpG:red>
                           <xmpG:green>49</xmpG:green>
                           <xmpG:blue>142</xmpG:blue>
                        </rdf:li>
                     </rdf:Seq>
                  </xmpG:Colorants>
               </rdf:li>
            </rdf:Seq>
         </xmpTPg:SwatchGroups>
         <pdf:Producer>Adobe PDF library 15.00</pdf:Producer>
      </rdf:Description>
   </rdf:RDF>
</x:xmpmeta>
                                                                                                    
                                                                                                    
                                                                                                    
                                                                                                    
                                                                                                    
                                                                                                    
                                                                                                    
                                                                                                    
                                                                                                    
                                                                                                    
                                                                                                    
                                                                                                    
                                                                                                    
                                                                                                    
                                                                                                    
                                                                                                    
                                                                                                    
                                                                                                    
                                                                                                    
                                                                                                    
                           
<?xpacket end="w"?>
	</metadata>
<g>
	<g>
		<path class="st0" d="M2.4,3.4v9.8c0,3.7,1.6,5.3,3.9,5.3c2.5,0,4-1.6,4-5.3V3.4h2.2V13c0,5.1-2.7,7.2-6.3,7.2
			c-3.4,0-5.9-1.9-5.9-7.1V3.4H2.4z"/>
		<path class="st0" d="M18.9,11.9c0-1.5,0-2.8-0.1-3.9h1.9l0.1,2h0c0.9-1.4,2.3-2.3,4.2-2.3c2.9,0,5,2.4,5,6c0,4.3-2.6,6.4-5.4,6.4
			c-1.6,0-2.9-0.7-3.7-1.9h0v6.5h-2.1V11.9z M21.1,15.1c0,0.3,0,0.6,0.1,0.9c0.4,1.5,1.7,2.5,3.2,2.5c2.3,0,3.6-1.9,3.6-4.6
			c0-2.4-1.3-4.4-3.5-4.4c-1.5,0-2.8,1.1-3.3,2.7c-0.1,0.3-0.1,0.6-0.1,0.9V15.1z"/>
		<path class="st0" d="M38.7,4.6V8h3.1v1.6h-3.1v6.4c0,1.5,0.4,2.3,1.6,2.3c0.6,0,1-0.1,1.3-0.1l0.1,1.6c-0.4,0.2-1.1,0.3-1.9,0.3
			c-1,0-1.8-0.3-2.3-0.9c-0.6-0.6-0.8-1.7-0.8-3.1V9.7h-1.8V8h1.8V5.2L38.7,4.6z"/>
		<path class="st0" d="M63.3,4.7c-0.1,0.2-0.3,0.4-0.6,0.4c-0.9,7.6-3.4,14.3-7.5,14.3c-2.1,0-3.9-2.1-3.9-5.9
			c0-5.9,4.6-10.8,11.1-10.8c7.1,0,10.2,4.5,10.2,9.3c0,5.8-3.4,8.7-9.3,10c-0.2-0.4-0.6-1.1-1-1.5c5.7-1.1,8.5-3.8,8.5-8.5
			c0-4.1-2.6-7.7-8.4-7.7c-0.2,0-0.5,0-0.7,0L63.3,4.7z M60.9,4.4c-5,0.6-8,4.7-8,9c0,2.6,1.1,4.3,2.3,4.3
			C58.2,17.7,60.3,11.1,60.9,4.4z"/>
		<path class="st0" d="M101.5,11.3H89.3v11.8h-1.6v-2.9c-2.9,0.4-5.8,0.8-7.7,1.1c0,0.2-0.2,0.3-0.3,0.3l-0.6-1.7l2.4-0.2v-8.4h-2.3
			V9.9h22.3V11.3z M98.3,1.3v7H82.4v-7H98.3z M87.7,13v-1.7H83V13H87.7z M87.7,16.1v-1.8H83v1.8H87.7z M83,17.4v2.1
			c1.5-0.2,3.1-0.3,4.7-0.5v-1.5H83z M96.7,4.2V2.5H84v1.7H96.7z M96.7,7.1V5.4H84v1.7H96.7z M99.4,12.9l1.1,0.4
			c-0.1,0.1-0.1,0.2-0.2,0.3c-0.7,2.3-2,4.2-3.5,5.7c1.4,1.1,3.1,1.9,5.1,2.4c-0.4,0.3-0.8,0.9-1,1.3c-2-0.6-3.7-1.5-5.2-2.7
			c-1.4,1.2-3.1,2.1-4.8,2.8c-0.2-0.4-0.6-1-0.9-1.3c1.6-0.5,3.2-1.4,4.6-2.5c-1.3-1.3-2.3-2.9-3-4.7l1-0.3H90v-1.4h9L99.4,12.9z
			 M92.8,14.3c0.6,1.5,1.5,2.9,2.7,4c1.1-1.1,2.1-2.5,2.7-4H92.8z"/>
		<path class="st0" d="M114.1,14.9c0.9,0.6,3.5,2.7,4.1,3.3l-1,1.3c-0.6-0.6-2-2-3.1-3v6.6h-1.6v-6.8c-1.2,1.9-2.7,3.8-4.1,4.8
			c-0.3-0.4-0.8-0.9-1.1-1.2c1.7-1.2,3.7-3.5,4.9-5.7h-4.4v-1.4h4.7v-2.6h-5V8.7h3c-0.1-1.1-0.5-2.6-1.1-3.8l1.3-0.4
			c0.6,1.2,1,2.8,1.2,3.9L111,8.7h4.1c-0.3-0.1-0.7-0.2-0.7-0.2c0.5-1.1,1.1-2.8,1.4-4l1.9,0.6c0,0.1-0.2,0.2-0.5,0.2
			c-0.3,1-0.9,2.4-1.4,3.4h3.6v1.4h-5c-0.1,0-0.1,0-0.2,0v2.6h4.9v1.4h-4.9V14.9z M118.8,3v1.4h-10.9V3h4.5V0.2l2.1,0.1
			c0,0.2-0.1,0.3-0.5,0.3V3H118.8z M130.3,8.7v1.5h-2.9v12.8h-1.6V10.2h-3.9v0.9c0,3.7-0.5,8.5-4,12c-0.2-0.4-0.8-0.9-1.2-1.2
			c3.2-3.1,3.6-7.3,3.6-10.8V2.6l1.2,0.4c2.6-0.7,5.3-1.7,6.9-2.7l1.6,1.3c-0.1,0.1-0.2,0.1-0.5,0.1c-1.8,0.9-4.8,1.9-7.6,2.6v4.4
			H130.3z"/>
		<path class="st0" d="M138.5,5.3c0,2.2-0.4,4.8-1.4,6.4c-0.9-0.5-1.1-0.6-1.2-0.7c0.9-1.4,1.3-3.9,1.3-5.9L138.5,5.3z M139.4,0.2
			l2.1,0.1c0,0.2-0.1,0.3-0.5,0.3V23h-1.6V0.2z M143.2,8.2c-0.3-0.9-1.1-2.5-1.8-3.6l1.1-0.6c0.7,1.1,1.5,2.6,1.8,3.5L143.2,8.2z
			 M151.8,8.5h6.9v1.4h-15.2V8.5h6.6V6.7h-4.8V5.4h4.8V3.8h-5.8V2.4h5.8V0.2l2.2,0.1c0,0.2-0.1,0.3-0.5,0.3v1.7h6v1.3h-6v1.7h5v1.3
			h-5V8.5z M156.5,11.5v9.8c0,1.6-0.6,1.8-4.1,1.8c-0.1-0.4-0.3-1-0.5-1.4c0.7,0,1.3,0,1.8,0c1,0,1.1,0,1.1-0.4v-2.2h-7.6V23h-1.6
			V11.5H156.5z M154.8,12.9h-7.6v1.8h7.6V12.9z M147.2,17.9h7.6V16h-7.6V17.9z"/>
		<path class="st0" d="M171,4.2v2.8h4.9v1.4h-11.4V6.9h4.9V4.2h-3.9V2.7h3.9V0.3l2,0.1c0,0.2-0.1,0.3-0.5,0.3v2h3.9v1.4H171z
			 M171.4,12.3c0.5-1,1.2-2.6,1.5-3.7l1.7,0.6c-0.1,0.1-0.2,0.2-0.5,0.2c-0.4,0.9-1,2.2-1.6,3h2.9v1.4h-4.5v2.8h4.2v1.5h-4.2v4.8
			h-1.5v-4.8h-4.2v-1.5h4.2v-2.8h-4.5v-1.4h7L171.4,12.3z M167.3,12.4c-0.1-0.9-0.6-2.3-1.1-3.4l1.3-0.3c0.5,1.1,1,2.5,1.2,3.3
			L167.3,12.4z M185.4,10.7l1,0.4c0,0.1-0.1,0.2-0.2,0.3c-0.4,2.6-1.4,5.2-2.7,7.4c1.1,1.2,2.3,2.2,3.7,2.8c-0.4,0.3-0.9,1-1.2,1.4
			c-1.3-0.7-2.5-1.7-3.5-2.9c-0.8,1-1.8,1.9-2.9,2.7c-0.3-0.4-0.7-0.8-1.1-1.1c1.2-0.8,2.2-1.7,3-2.9c-1.2-1.7-2.1-3.7-2.8-5.8
			l1.3-0.3c0.5,1.7,1.4,3.3,2.3,4.8c0.9-1.6,1.5-3.4,1.9-5.2h-6.3v10.8h-1.6V1.4h9.6v6.2c0,1.8-0.9,1.8-4.2,1.8c0-0.4-0.3-1-0.5-1.4
			c0.6,0,1.3,0,1.7,0c1.4,0,1.4,0,1.4-0.4V2.9h-6.4v7.9h7L185.4,10.7z"/>
		<path class="st0" d="M195.3,21.7c-0.8-1.8-1.1-5.4-1.1-8.6c0-3.3,0.5-7.4,1.3-11.5L198,2c0,0.2-0.3,0.4-0.6,0.4
			c-0.9,3.4-1.4,7.7-1.4,10.6c0,1.9,0,3.7,0.2,4.6c0.5-1.5,1.5-3.8,2-5l1.1,1c-0.8,1.7-2.5,5.4-2.5,6.6c0,0.3,0.1,0.7,0.2,1.2
			L195.3,21.7z M201.6,7.2c2.1,0,4.1,0,6.2-0.1c-0.1-2.1-0.2-3.9-0.2-5.7l2.5,0.1c0,0.2-0.2,0.4-0.6,0.5c0,1.6,0.1,3.2,0.1,5
			c1.9-0.2,3.5-0.5,4.8-1l0.2,1.7c-1.2,0.4-2.9,0.7-5,0.9c0.1,2.7,0.2,5.6,0.3,7.2c1.9,0.8,3.7,2,5,3.1l-1,1.6c-1-1-2.5-2.1-4-2.8
			c0,2.1-0.4,4.4-4.1,4.4c-2.9,0-4.8-1.4-4.8-3.5c0-2.5,2.5-3.6,4.8-3.6c0.8,0,1.6,0.1,2.3,0.3c-0.1-1.5-0.2-4.1-0.3-6.5
			c-0.8,0-1.8,0.1-2.5,0.1h-3.7L201.6,7.2z M208.3,16.9c-0.8-0.2-1.6-0.4-2.4-0.4c-1.5,0-3.3,0.5-3.3,2.1c0,1.4,1.5,2.1,3.3,2.1
			c1.8,0,2.5-0.9,2.5-2.8L208.3,16.9z"/>
		<path class="st0" d="M239.3,20.5c-2.2,0.4-5,0.6-7.5,0.6c-2.1,0-3.9-0.1-4.8-0.3c-3-0.7-4.2-2.5-4.2-4.7c0-1.9,1.1-3.8,2.5-5.3
			l1.4,0.7c-1.4,1.4-2.2,3-2.2,4.4c0,1.4,1,2.7,3.1,3.2c0.9,0.2,2.3,0.3,4,0.3c2.4,0,5.2-0.2,7.6-0.7L239.3,20.5z M228.2,8.1
			c1.3-1,3-2.2,4.3-2.8v0c-1.9,0.2-6.1,0.3-8.9,0.3c0-0.5,0-1.3,0-1.7c0.5,0,10,0.2,14-0.8l0.2,1.8c-2.9,0.3-6.7,2.9-8.3,4.2
			L228.2,8.1z"/>
		<path class="st0" d="M264.2,5.2c-3.2,0.8-7.6,1.3-10.6,1.4c-0.3,3.1-0.8,5.6-1.2,6.5c1.9-1.5,4.9-2.6,7-2.6c3.7,0,5.9,2,5.9,5.3
			c0,4.9-4.9,6.5-12.9,6.7c-0.1-0.5-0.3-1.2-0.5-1.6c7.1-0.1,11.6-1.4,11.6-5.1c0-2.2-1.5-3.7-4.3-3.7c-2.2,0-5.9,1.3-7.6,3.8
			l-1.7-0.8c0.8-0.9,1.6-4.4,2-8.4h-5.7V4.9c1,0,4.1,0,5.9,0c0.1-1.4,0.1-3,0.1-4.4l2.6,0.2c0,0.4-0.3,0.5-0.8,0.5
			c0,1.2-0.1,2.5-0.2,3.6c2.6-0.1,7.1-0.6,10.1-1.5L264.2,5.2z"/>
		<path class="st0" d="M277.4,5.5c-0.1,0.2-0.3,0.4-0.6,0.4c-0.2,3.6-0.7,6.7-1,7.2h0c2.4-1.8,6.2-3,9-3c3.8,0,6.1,1.9,6.1,5.4
			c-0.1,4.5-3.8,6.5-13.3,6.9c-0.1-0.5-0.3-1.2-0.6-1.6c8.6-0.4,12-1.8,12.1-5.3c0-2.4-1.6-3.8-4.5-3.8c-4.5,0-8.6,2.7-9.3,3.9
			l-1.7-0.8c0.5-0.5,1.4-4.9,1.4-9.7L277.4,5.5z M277.9,0.8c3.3,0.4,7.1,1.2,9.5,2.2l-0.6,1.7c-2.5-1.1-6.2-1.8-9.4-2.2L277.9,0.8z"
			/>
		<path class="st0" d="M307.3,1.4c0,0.3-0.3,0.4-0.8,0.4c-0.3,1.4-0.7,3.8-1,5.2c1.1-0.1,2.1-0.2,2.7-0.2c3.7,0,5,2.4,5,6.1
			c0,1.8-0.3,4-0.8,5.5c-0.8,2.5-2.3,3.7-4.4,3.7c-1,0-2.3-0.4-4.4-2.1c0.3-0.4,0.5-1,0.7-1.5c2,1.5,3,1.9,3.8,1.9
			c1.4,0,2.2-0.9,2.7-2.5c0.5-1.5,0.8-3.8,0.8-5c0-2.8-0.9-4.5-3.4-4.4c-0.7,0-1.7,0.1-3,0.2c-1.2,5-2.7,9.3-5,13.3l-1.6-0.8
			c2.4-3.8,3.7-7.6,4.9-12.3c-1.3,0.1-3,0.4-4.4,0.6l-0.1-1.7c1.2-0.1,3.2-0.4,4.9-0.6c0.4-1.8,0.8-4,1.1-6.2L307.3,1.4z
			 M318.7,13.2c-0.8-3.6-3.1-6.6-5.5-8.4l1.3-1c2.6,1.8,5.2,5.2,6,8.7L318.7,13.2z"/>
		<path class="st0" d="M331.2,5.5c-0.1,0.2-0.3,0.4-0.6,0.4c-0.2,3.6-0.7,6.7-1,7.2h0c2.4-1.8,6.2-3,9-3c3.8,0,6.1,1.9,6.1,5.4
			c-0.1,4.5-3.8,6.5-13.3,6.9c-0.1-0.5-0.3-1.2-0.6-1.6c8.6-0.4,12-1.8,12.1-5.3c0-2.4-1.6-3.8-4.5-3.8c-4.5,0-8.6,2.7-9.3,3.9
			l-1.7-0.8c0.5-0.5,1.4-4.9,1.4-9.7L331.2,5.5z M331.7,0.8c3.3,0.4,7.1,1.2,9.5,2.2l-0.6,1.7c-2.5-1.1-6.2-1.8-9.4-2.2L331.7,0.8z"
			/>
	</g>
</g>
</svg>
