<?xml version="1.0" encoding="utf-8"?>
<!-- Generator: Adobe Illustrator 25.4.1, SVG Export Plug-In . SVG Version: 6.00 Build 0)  -->
<svg version="1.1" id="レイヤー_1" xmlns="http://www.w3.org/2000/svg" xmlns:xlink="http://www.w3.org/1999/xlink" x="0px"
	 y="0px" viewBox="0 0 356 25" style="enable-background:new 0 0 356 25;" xml:space="preserve">
<style type="text/css">
	.st0{fill:#FF583B;}
</style>
<metadata><?xpacket begin="﻿" id="W5M0MpCehiHzreSzNTczkc9d"?>
<x:xmpmeta xmlns:x="adobe:ns:meta/" x:xmptk="Adobe XMP Core 7.0-c000 79.217bca6, 2021/06/14-18:28:11        ">
   <rdf:RDF xmlns:rdf="http://www.w3.org/1999/02/22-rdf-syntax-ns#">
      <rdf:Description rdf:about=""
            xmlns:dc="http://purl.org/dc/elements/1.1/"
            xmlns:xmp="http://ns.adobe.com/xap/1.0/"
            xmlns:xmpGImg="http://ns.adobe.com/xap/1.0/g/img/"
            xmlns:xmpMM="http://ns.adobe.com/xap/1.0/mm/"
            xmlns:stRef="http://ns.adobe.com/xap/1.0/sType/ResourceRef#"
            xmlns:stEvt="http://ns.adobe.com/xap/1.0/sType/ResourceEvent#"
            xmlns:illustrator="http://ns.adobe.com/illustrator/1.0/"
            xmlns:xmpTPg="http://ns.adobe.com/xap/1.0/t/pg/"
            xmlns:stDim="http://ns.adobe.com/xap/1.0/sType/Dimensions#"
            xmlns:xmpG="http://ns.adobe.com/xap/1.0/g/"
            xmlns:pdf="http://ns.adobe.com/pdf/1.3/">
         <dc:format>image/svg+xml</dc:format>
         <dc:title>
            <rdf:Alt>
               <rdf:li xml:lang="x-default">Print</rdf:li>
            </rdf:Alt>
         </dc:title>
         <xmp:MetadataDate>2022-08-23T20:26:48+09:00</xmp:MetadataDate>
         <xmp:ModifyDate>2022-08-23T20:26:48+09:00</xmp:ModifyDate>
         <xmp:CreateDate>2022-08-23T20:26:48+09:00</xmp:CreateDate>
         <xmp:CreatorTool>Adobe Illustrator 25.4 (Macintosh)</xmp:CreatorTool>
         <xmp:Thumbnails>
            <rdf:Alt>
               <rdf:li rdf:parseType="Resource">
                  <xmpGImg:width>256</xmpGImg:width>
                  <xmpGImg:height>20</xmpGImg:height>
                  <xmpGImg:format>JPEG</xmpGImg:format>
                  <xmpGImg:image>/9j/4AAQSkZJRgABAgEASABIAAD/7QAsUGhvdG9zaG9wIDMuMAA4QklNA+0AAAAAABAASAAAAAEA&#xA;AQBIAAAAAQAB/+4ADkFkb2JlAGTAAAAAAf/bAIQABgQEBAUEBgUFBgkGBQYJCwgGBggLDAoKCwoK&#xA;DBAMDAwMDAwQDA4PEA8ODBMTFBQTExwbGxscHx8fHx8fHx8fHwEHBwcNDA0YEBAYGhURFRofHx8f&#xA;Hx8fHx8fHx8fHx8fHx8fHx8fHx8fHx8fHx8fHx8fHx8fHx8fHx8fHx8fHx8f/8AAEQgAFAEAAwER&#xA;AAIRAQMRAf/EAaIAAAAHAQEBAQEAAAAAAAAAAAQFAwIGAQAHCAkKCwEAAgIDAQEBAQEAAAAAAAAA&#xA;AQACAwQFBgcICQoLEAACAQMDAgQCBgcDBAIGAnMBAgMRBAAFIRIxQVEGE2EicYEUMpGhBxWxQiPB&#xA;UtHhMxZi8CRygvElQzRTkqKyY3PCNUQnk6OzNhdUZHTD0uIIJoMJChgZhJRFRqS0VtNVKBry4/PE&#xA;1OT0ZXWFlaW1xdXl9WZ2hpamtsbW5vY3R1dnd4eXp7fH1+f3OEhYaHiImKi4yNjo+Ck5SVlpeYmZ&#xA;qbnJ2en5KjpKWmp6ipqqusra6voRAAICAQIDBQUEBQYECAMDbQEAAhEDBCESMUEFURNhIgZxgZEy&#xA;obHwFMHR4SNCFVJicvEzJDRDghaSUyWiY7LCB3PSNeJEgxdUkwgJChgZJjZFGidkdFU38qOzwygp&#xA;0+PzhJSktMTU5PRldYWVpbXF1eX1RlZmdoaWprbG1ub2R1dnd4eXp7fH1+f3OEhYaHiImKi4yNjo&#xA;+DlJWWl5iZmpucnZ6fkqOkpaanqKmqq6ytrq+v/aAAwDAQACEQMRAD8A9GeXtTvrvVNcguJOcVnd&#xA;CK2Xio4oUrSoAJ38cx8MyZSB6Fz9XhjDHjMRvKNlT8parf38+trdy+otnqM9vbjiq8YkPwr8IFae&#xA;J3wafIZGV9JEMtfghjGPhFcWME+9BxfmTpk1mL+PT75tPU8bi79JeERrT4qMa9ieNevjtkBrYkXU&#xA;uFul2NkEuAyhx9BfP7EZ5w8xz6V5fa/sInneRQYZ1QPEgalHkqRQEHb3yepzGELDT2foxlzcEzVc&#xA;x1PuTDQ9WfUrYyPZ3NmycQRdRiMvUV5JRmqMsxZOIciPe4+p04xSoSjL+qbQOp6rqtzqx0XRuEcs&#xA;KLLf38q81hV/sKqVHJ2pXfamQnkkZcEfie5vw4Mccfi5bIJqMR179+5I9N1rzXBoQ8wz3i6lp6yS&#xA;Ga2aFIpPq6SFPVjaPiK0XlRh0zHhlyCHGTxD9Dn5tNp5ZfBEeCdCjZI4qujbL7/UbKDTHu5p0ht2&#xA;SqzOwRfjHw7mnWuZs5gRsnZ02LDKU+ECzbyizvxHaxRzXCNKqgSN6to9SBv8Ru1J+7NPGdDc/d/x&#xA;T1uTFciQDXun/wAQzD8vL+FhfW73UbzyzerBCJY3b0giKTxjklCjl/lZm6OY3F/j7XTdr4iOGQBo&#xA;CiaPOz3gIXztczrqxR5NR+qxoklokEP7r9IIVNuiSGFw3MnxPxfdkNVI8X8Ve7+Lp0bezYDw7Ax8&#xA;XWzvwfxbcXT7kGmqp9ZaHXr7VDbxWcMk6rHNBWRmf1TIsaIyptRa028ch4m9TMqod4bzgPDeGOOz&#xA;I1vE7bVVk7srOqWWn+U3vdLhZYLaMraQTrIhLV4opElHoWOZniCOO49OTqfAlk1AjkO5O5FfHlsw&#xA;qwvNVg0i0SSSeK3/AHjWslu0qKyFyCremaclcN17EZgwlIRHOnd5ceOWSRABO13Xd59KpF+RZ7uK&#xA;XT7WVrsiNeLQKZTGtaj4lrw4iuS0pIoG/tae1IxIlIcO/Xa/1pp5/Oq3LxaXZw3LG7T9z6ctukEj&#xA;RkSOHEo51VVqPiH00OXaviPpF7+6nF7J8OIOSRj6ee0rF7bVsky63BcXEU+pvcrAbFpLOO6vRbNO&#xA;3r0Dc7cxJ9nkBUdB9OUeKCblfLazV7+TmnTGMSMYjfHvww4q9PdKyzDyVKJdDDiZZQZpiAsxuPTV&#xA;pCyRmUk8iiECuZumNw+J626btKNZaqth04b2515lD6Nf6o1nq97DE+oSHUJ0tbZpQgEUTCOis/wq&#xA;PhJyOKcqkRv6i2anFjEoRJ4BwCzV7nfogdE1nzPP5o1OKXTmWOtmJreW6VltUZWq6BQysXG9Fp03&#xA;yvFlyHIRXd15N+p02COCBE9/VREfq/VXmyvUIbya0eOyuRaXLcfTuDGJQtGBPwErWoqOuZkwSNjR&#xA;dTilGMgZDij3XX2pOul+ci3x65AqAjdLMEkV6bybZR4eX+cPk5hz6bpjP+n/AGJ1d/W/q0n1P0/r&#xA;NP3XrcvTr/lcd8vldbc3Cx8PEOK+Hy5sJsdT8z/pTVbqS902ALMlmfrMk3oh4Fq/oqWT+f4t+uYM&#xA;J5OKRuPdvfTud5lwYPDhERyHbi2Avfv+WzMNIa8ayV7u5hu5XJYTW68YyvYL8T1+dczcd1ub9zpt&#xA;QIiVRBiO480k1S8tr7Ur63uNRm0ePSTEq3cVwsSSNcRiQq6uvE8QBTc9e2Y+SQlIgnh4et97nYMc&#xA;oQiREZPEvYxuuE1tXemHlu5jmtJAusprJV/75RECi0ACsIvkTU5bglY+ricfWQIkP3fh+W/6UN5s&#xA;1+50uyuvTsJ5oxbs5vEZFjQtVQCWYNUbHYZDUZjAHY8ubZoNJHLIXIA8XLeyluna35gtdNtdJlsW&#xA;h1d7MvYzXMgnWeSBVMitwYMrEHapyqGWYiI16q2ve6crNpsMpnIJXj4/UAK4QeTJdF1WDVdLt9Qh&#xA;2SdORQ9VYbMh91YEZlYsgnESDrNTgOLIYHoxcahaX1pFrb69LoU15y4WrXEUkJWNjEGWKRf2uHLb&#xA;MTjEhx8XBfm7XwZY5HEMYyiPXhIO+/Me9lmmypLYQOt2t98ADXaceMjDYsOHw7nwzNgbA3vzdRmj&#xA;Uz6eHy7vmxgweZND17U7mx039K2Opuky8JkieOQLQhg/Y+OYlZMc5EDiEnacWDPhhGc/DnDbkTYT&#xA;Dybo+oafaXs+ohY73UruW8lhQ8lj9Snw175ZpscogmXORtx+0dRDJKIh9MIiN99ML8tN5luvIp0i&#xA;x0tZ4L0yxx3xmRVRWch/UQ/FUb0pmDg8Q4eER59Xda0YIavxJzoxr01z7qLM9b0C6l8kPolpSW4j&#xA;tYoIqkKHMPHudhXh3zOy4ScXAOdOl02riNV4stgZE/O0d5eutXnsFOp2H1CZAqrH6iy8gFFW+H7O&#xA;/bLMMpEeoU0auGOM/wB3LjHupI9W0zzPBq2qNpEEcsOtxxI900gQ2zxp6RYqd3HDcce+Y+SGQSlw&#xA;j6vsc7T58EscPEJBxE7V9V7/AA3WX/1uTS/8JaJZTgLGLO41CeMxQJFTjI4Y09RmHZfHBO+Hw4A9&#xA;19GWLhGT8xllHnxCINknp7k71wR2Xlqe2jjklH1drWCOKNpHJMZRBxQE/hmRl9OMjypwdLc84kSB&#xA;6rNmut9XnEYmjuni1Ka7sJW0xkspJDdiQzCWIoiK7u9CRQqoAzWCwfUSPTtz8npDRjcBGY8Tf6aq&#xA;pc9q+bJ/Ik5GpXa3zTWV/KiCHSJ5Lh+MaqC0oM5bkWbwPwjMrSn1G7B7t/0ur7Uh6I8FSgOcwI8+&#xA;70/goTz1p17e6pCbaKW1iW7tYpLqWWb05ZZWVI/SjVwqqg3ZlANem9chqoGUhW24727svNGGM8RE&#xA;jwyNACwBzs1zPQcqUreGSXy95m1AxGKL6r9Ti/eyThmgVzMyySkuy+pIQPlgAuE5eVd/LmynIDNh&#xA;hdni4uQHOq2G10HoVsAbSEEVHBdj8hmyjyeen9R97zf6pc3eleVoLZBJMxviqn0iNmJP98kqfeua&#xA;vhJjAD+l+N3pfEjDJmMth6O/9BB+1GeWYZofOqQShBNDaTCVI/q1UJaOnP6vFDSvblXJ4ARlo9x7&#xA;vLuAaNbIHS2LoyH87z/nSP2I38x9KnmsXv44LVlhjjQzS+p66ky0onE8afH398s1uMkXQ/S09j5x&#xA;GYgTLcnYVXLr1SLVrKXSdZtUjihh1eK3STTLeyWR0eb16cKOeXFouQbcADMfJEwkP51bV73PwZBm&#xA;xSJJOMy9RlVgcPP51TMvJDwfoJI1Z2vEdzqKyKUkW6di8oZT7tt7ZnaWuDz6+90vaYPik/w0OGuX&#xA;DyDH7GTzLp+mavJAJAq6m8CBIvVeKD1XeW4jjP2yfU+4ZjQOSMZV/O+zvdjlGDJkgDX93fOrNACJ&#xA;PTku8vyeZf07fajaRvqGn3DW0NxNeRC0mdVDDnEAsakRcviqu/bDhOTjMhuDXPb8Ux1YweFGEjwT&#xA;HEQIniHuPPn9jI/NT6tFaWlxp0cs31a7ilu4IDSSS3WvNFG3Kpp8PfMnUGQAMeh39zrtCMZlKMyB&#xA;cSATyEuiH/xvZHZdN1N5P99LZycq+G9B+OR/NDul8mz+TJfz8df1gn8MnqwRy8GjMihvTcUdeQrR&#xA;hvuO+ZANh18o0SObDYrTyZoM01teW8l/qTMXmnltZLh5DKefwsEZB16CmYQjixmiLl7rd1LJqdQB&#xA;KJEIdAJAVW3faYeTLKeE6ldC0bTrC9nEllp7gIyKECs5QfY5nfj2yzTRIs1wgnYON2lkB4I8XHOM&#xA;fVLv+PWu9Qv7DyvpGtT6nqkcl1dX5MkRaB50jCKqlUCKwB6bnfIzhjhIyluT5W2YsufNiGPGRGMP&#xA;6VX8y1pCNqPmoavZWElhp8Vs8Ms8sfotcuzArSPYlUp9o44xxZOIChXzXUHw9P4cpCczK6Bvh+Pn&#xA;3IrzXHc389ho8cEj2k0n1nUJVU8PRtyH9KvTlI9BSuT1AMiI1tzPwatAY4xLISOICo++XX4BRsry&#xA;TW/NNteRWtxBY6bbzL6tzEYuU1wVHFQ25oqb5GMvEyA0aiOvmzyYxg05iZRMpyHI3sLZBbabaWlv&#xA;LBaJ9XSZ3kbhX+8kNWYVr3OZEYAChs6+eaUyDLeqHwDFLBfJ/lgNpy2s1zfxUEsv1WSaWQlaijhS&#xA;tKGgANMxIeFi9NEn3O2ynU6r12IwP9IAD4WmPkyyuoV1K7ltDp8F/c+ta2LUDInALyZRsrORUjLd&#xA;NEizVAnk43aOSJ4IiXGYRoy7/wBdKf8AzpH+f1jI/uvxbL/Cvxwu/wCdI/z+sY/uvxa/4V+OFC6b&#xA;/wAq6+qL9Rp9WqeNPrNK13679cjDwK25fFtzfneL1/V/mor/AJ0j/P6xkv3X4tq/wr8cLv8AnSK/&#xA;9pGP7r8Wv+Ffjhd/zpH+f1jH91+LX/Cvxwu/50j/AD+sY/uvxa/4V+OF3/Okf5/WMf3X4tf8K/HC&#xA;1/zo3Ltypt/f1pj+6/Fp/wAK/HC7/nR6+/8Az3x/dfi0f4V+OFx/wNtWnXavr9cf3X4tP+Ffjhcf&#xA;8DcTWnHv/f0x/dfi1/wr8cLf/Okf5/WMf3X4tH+FfjhWj/Au1Kf5P9/9NMf3P4tP+F/jhcP8DcjS&#xA;nL9qnr1+nH9z+LX/AAr8cLbf4Hp8VKd6+vj+6/FqPzX44XH/AANyFacu39/XH9z+LX/Cvxwt/wDO&#xA;kf1/v8f3X4tH+Ffjhd/zpH+f1jH91+LX/Cvxwu/50j/P6xj+6/Fr/hX44Xf86R/n9Yx/dfi1/wAK&#xA;/HC7/nSP8/rGP7r8Wv8AhX44Xf8AOkf5/WMf3X4tf8K/HC7/AJ0j/P6xj+6/Fr/hX44Xf86R/n9Y&#xA;x/dfi1/wr8cLv+dI/wA/rGP7r8Wv+Ffjhd/zpH+f1jH91+LX/Cvxwu/50j/P6xj+6/Fr/hX44Xf8&#xA;6R/n9Yx/dfi1/wAK/HC7/nSP8/rGP7r8Wv8AhX44Xf8AOkf5/WMf3X4tf8K/HC7/AJ0j/P6xj+6/&#xA;Fr/hX44X/9k=</xmpGImg:image>
               </rdf:li>
            </rdf:Alt>
         </xmp:Thumbnails>
         <xmpMM:InstanceID>xmp.iid:12a29856-0322-47fd-8448-bcbfb58e3f93</xmpMM:InstanceID>
         <xmpMM:DocumentID>xmp.did:12a29856-0322-47fd-8448-bcbfb58e3f93</xmpMM:DocumentID>
         <xmpMM:OriginalDocumentID>uuid:5D20892493BFDB11914A8590D31508C8</xmpMM:OriginalDocumentID>
         <xmpMM:RenditionClass>proof:pdf</xmpMM:RenditionClass>
         <xmpMM:DerivedFrom rdf:parseType="Resource">
            <stRef:instanceID>uuid:4309e52a-f003-a341-9c09-631e0b1d1fb1</stRef:instanceID>
            <stRef:documentID>xmp.did:fb95c1d5-e351-4eab-ba9f-16d563b009fb</stRef:documentID>
            <stRef:originalDocumentID>uuid:5D20892493BFDB11914A8590D31508C8</stRef:originalDocumentID>
            <stRef:renditionClass>proof:pdf</stRef:renditionClass>
         </xmpMM:DerivedFrom>
         <xmpMM:History>
            <rdf:Seq>
               <rdf:li rdf:parseType="Resource">
                  <stEvt:action>saved</stEvt:action>
                  <stEvt:instanceID>xmp.iid:12a29856-0322-47fd-8448-bcbfb58e3f93</stEvt:instanceID>
                  <stEvt:when>2022-08-23T20:26:48+09:00</stEvt:when>
                  <stEvt:softwareAgent>Adobe Illustrator 25.4 (Macintosh)</stEvt:softwareAgent>
                  <stEvt:changed>/</stEvt:changed>
               </rdf:li>
            </rdf:Seq>
         </xmpMM:History>
         <illustrator:StartupProfile>Print</illustrator:StartupProfile>
         <illustrator:CreatorSubTool>Adobe Illustrator</illustrator:CreatorSubTool>
         <xmpTPg:HasVisibleOverprint>False</xmpTPg:HasVisibleOverprint>
         <xmpTPg:HasVisibleTransparency>False</xmpTPg:HasVisibleTransparency>
         <xmpTPg:NPages>1</xmpTPg:NPages>
         <xmpTPg:MaxPageSize rdf:parseType="Resource">
            <stDim:w>356.000000</stDim:w>
            <stDim:h>25.000000</stDim:h>
            <stDim:unit>Pixels</stDim:unit>
         </xmpTPg:MaxPageSize>
         <xmpTPg:PlateNames>
            <rdf:Seq>
               <rdf:li>Magenta</rdf:li>
               <rdf:li>Yellow</rdf:li>
            </rdf:Seq>
         </xmpTPg:PlateNames>
         <xmpTPg:SwatchGroups>
            <rdf:Seq>
               <rdf:li rdf:parseType="Resource">
                  <xmpG:groupName>初期設定のスウォッチグループ</xmpG:groupName>
                  <xmpG:groupType>0</xmpG:groupType>
                  <xmpG:Colorants>
                     <rdf:Seq>
                        <rdf:li rdf:parseType="Resource">
                           <xmpG:swatchName>ホワイト</xmpG:swatchName>
                           <xmpG:mode>RGB</xmpG:mode>
                           <xmpG:type>PROCESS</xmpG:type>
                           <xmpG:red>255</xmpG:red>
                           <xmpG:green>255</xmpG:green>
                           <xmpG:blue>255</xmpG:blue>
                        </rdf:li>
                        <rdf:li rdf:parseType="Resource">
                           <xmpG:swatchName>ブラック</xmpG:swatchName>
                           <xmpG:mode>RGB</xmpG:mode>
                           <xmpG:type>PROCESS</xmpG:type>
                           <xmpG:red>35</xmpG:red>
                           <xmpG:green>24</xmpG:green>
                           <xmpG:blue>21</xmpG:blue>
                        </rdf:li>
                        <rdf:li rdf:parseType="Resource">
                           <xmpG:swatchName>CMYK レッド</xmpG:swatchName>
                           <xmpG:mode>RGB</xmpG:mode>
                           <xmpG:type>PROCESS</xmpG:type>
                           <xmpG:red>230</xmpG:red>
                           <xmpG:green>0</xmpG:green>
                           <xmpG:blue>18</xmpG:blue>
                        </rdf:li>
                        <rdf:li rdf:parseType="Resource">
                           <xmpG:swatchName>CMYK イエロー</xmpG:swatchName>
                           <xmpG:mode>RGB</xmpG:mode>
                           <xmpG:type>PROCESS</xmpG:type>
                           <xmpG:red>255</xmpG:red>
                           <xmpG:green>241</xmpG:green>
                           <xmpG:blue>0</xmpG:blue>
                        </rdf:li>
                        <rdf:li rdf:parseType="Resource">
                           <xmpG:swatchName>CMYK グリーン</xmpG:swatchName>
                           <xmpG:mode>RGB</xmpG:mode>
                           <xmpG:type>PROCESS</xmpG:type>
                           <xmpG:red>0</xmpG:red>
                           <xmpG:green>153</xmpG:green>
                           <xmpG:blue>68</xmpG:blue>
                        </rdf:li>
                        <rdf:li rdf:parseType="Resource">
                           <xmpG:swatchName>CMYK シアン</xmpG:swatchName>
                           <xmpG:mode>RGB</xmpG:mode>
                           <xmpG:type>PROCESS</xmpG:type>
                           <xmpG:red>0</xmpG:red>
                           <xmpG:green>160</xmpG:green>
                           <xmpG:blue>233</xmpG:blue>
                        </rdf:li>
                        <rdf:li rdf:parseType="Resource">
                           <xmpG:swatchName>CMYK ブルー</xmpG:swatchName>
                           <xmpG:mode>RGB</xmpG:mode>
                           <xmpG:type>PROCESS</xmpG:type>
                           <xmpG:red>29</xmpG:red>
                           <xmpG:green>32</xmpG:green>
                           <xmpG:blue>136</xmpG:blue>
                        </rdf:li>
                        <rdf:li rdf:parseType="Resource">
                           <xmpG:swatchName>CMYK マゼンタ</xmpG:swatchName>
                           <xmpG:mode>RGB</xmpG:mode>
                           <xmpG:type>PROCESS</xmpG:type>
                           <xmpG:red>228</xmpG:red>
                           <xmpG:green>0</xmpG:green>
                           <xmpG:blue>127</xmpG:blue>
                        </rdf:li>
                        <rdf:li rdf:parseType="Resource">
                           <xmpG:swatchName>C=15 M=100 Y=90 K=10</xmpG:swatchName>
                           <xmpG:mode>RGB</xmpG:mode>
                           <xmpG:type>PROCESS</xmpG:type>
                           <xmpG:red>195</xmpG:red>
                           <xmpG:green>13</xmpG:green>
                           <xmpG:blue>35</xmpG:blue>
                        </rdf:li>
                        <rdf:li rdf:parseType="Resource">
                           <xmpG:swatchName>C=0 M=90 Y=85 K=0</xmpG:swatchName>
                           <xmpG:mode>RGB</xmpG:mode>
                           <xmpG:type>PROCESS</xmpG:type>
                           <xmpG:red>232</xmpG:red>
                           <xmpG:green>56</xmpG:green>
                           <xmpG:blue>40</xmpG:blue>
                        </rdf:li>
                        <rdf:li rdf:parseType="Resource">
                           <xmpG:swatchName>C=0 M=80 Y=95 K=0</xmpG:swatchName>
                           <xmpG:mode>RGB</xmpG:mode>
                           <xmpG:type>PROCESS</xmpG:type>
                           <xmpG:red>234</xmpG:red>
                           <xmpG:green>85</xmpG:green>
                           <xmpG:blue>20</xmpG:blue>
                        </rdf:li>
                        <rdf:li rdf:parseType="Resource">
                           <xmpG:swatchName>C=0 M=50 Y=100 K=0</xmpG:swatchName>
                           <xmpG:mode>RGB</xmpG:mode>
                           <xmpG:type>PROCESS</xmpG:type>
                           <xmpG:red>243</xmpG:red>
                           <xmpG:green>152</xmpG:green>
                           <xmpG:blue>0</xmpG:blue>
                        </rdf:li>
                        <rdf:li rdf:parseType="Resource">
                           <xmpG:swatchName>C=0 M=35 Y=85 K=0</xmpG:swatchName>
                           <xmpG:mode>RGB</xmpG:mode>
                           <xmpG:type>PROCESS</xmpG:type>
                           <xmpG:red>248</xmpG:red>
                           <xmpG:green>182</xmpG:green>
                           <xmpG:blue>45</xmpG:blue>
                        </rdf:li>
                        <rdf:li rdf:parseType="Resource">
                           <xmpG:swatchName>C=5 M=0 Y=90 K=0</xmpG:swatchName>
                           <xmpG:mode>RGB</xmpG:mode>
                           <xmpG:type>PROCESS</xmpG:type>
                           <xmpG:red>250</xmpG:red>
                           <xmpG:green>238</xmpG:green>
                           <xmpG:blue>0</xmpG:blue>
                        </rdf:li>
                        <rdf:li rdf:parseType="Resource">
                           <xmpG:swatchName>C=20 M=0 Y=100 K=0</xmpG:swatchName>
                           <xmpG:mode>RGB</xmpG:mode>
                           <xmpG:type>PROCESS</xmpG:type>
                           <xmpG:red>218</xmpG:red>
                           <xmpG:green>224</xmpG:green>
                           <xmpG:blue>0</xmpG:blue>
                        </rdf:li>
                        <rdf:li rdf:parseType="Resource">
                           <xmpG:swatchName>C=50 M=0 Y=100 K=0</xmpG:swatchName>
                           <xmpG:mode>RGB</xmpG:mode>
                           <xmpG:type>PROCESS</xmpG:type>
                           <xmpG:red>143</xmpG:red>
                           <xmpG:green>195</xmpG:green>
                           <xmpG:blue>31</xmpG:blue>
                        </rdf:li>
                        <rdf:li rdf:parseType="Resource">
                           <xmpG:swatchName>C=75 M=0 Y=100 K=0</xmpG:swatchName>
                           <xmpG:mode>RGB</xmpG:mode>
                           <xmpG:type>PROCESS</xmpG:type>
                           <xmpG:red>34</xmpG:red>
                           <xmpG:green>172</xmpG:green>
                           <xmpG:blue>56</xmpG:blue>
                        </rdf:li>
                        <rdf:li rdf:parseType="Resource">
                           <xmpG:swatchName>C=85 M=10 Y=100 K=10</xmpG:swatchName>
                           <xmpG:mode>RGB</xmpG:mode>
                           <xmpG:type>PROCESS</xmpG:type>
                           <xmpG:red>0</xmpG:red>
                           <xmpG:green>145</xmpG:green>
                           <xmpG:blue>58</xmpG:blue>
                        </rdf:li>
                        <rdf:li rdf:parseType="Resource">
                           <xmpG:swatchName>C=90 M=30 Y=95 K=30</xmpG:swatchName>
                           <xmpG:mode>RGB</xmpG:mode>
                           <xmpG:type>PROCESS</xmpG:type>
                           <xmpG:red>0</xmpG:red>
                           <xmpG:green>105</xmpG:green>
                           <xmpG:blue>52</xmpG:blue>
                        </rdf:li>
                        <rdf:li rdf:parseType="Resource">
                           <xmpG:swatchName>C=75 M=0 Y=75 K=0</xmpG:swatchName>
                           <xmpG:mode>RGB</xmpG:mode>
                           <xmpG:type>PROCESS</xmpG:type>
                           <xmpG:red>19</xmpG:red>
                           <xmpG:green>174</xmpG:green>
                           <xmpG:blue>103</xmpG:blue>
                        </rdf:li>
                        <rdf:li rdf:parseType="Resource">
                           <xmpG:swatchName>C=80 M=10 Y=45 K=0</xmpG:swatchName>
                           <xmpG:mode>RGB</xmpG:mode>
                           <xmpG:type>PROCESS</xmpG:type>
                           <xmpG:red>0</xmpG:red>
                           <xmpG:green>162</xmpG:green>
                           <xmpG:blue>154</xmpG:blue>
                        </rdf:li>
                        <rdf:li rdf:parseType="Resource">
                           <xmpG:swatchName>C=70 M=15 Y=0 K=0</xmpG:swatchName>
                           <xmpG:mode>RGB</xmpG:mode>
                           <xmpG:type>PROCESS</xmpG:type>
                           <xmpG:red>46</xmpG:red>
                           <xmpG:green>167</xmpG:green>
                           <xmpG:blue>224</xmpG:blue>
                        </rdf:li>
                        <rdf:li rdf:parseType="Resource">
                           <xmpG:swatchName>C=85 M=50 Y=0 K=0</xmpG:swatchName>
                           <xmpG:mode>RGB</xmpG:mode>
                           <xmpG:type>PROCESS</xmpG:type>
                           <xmpG:red>3</xmpG:red>
                           <xmpG:green>110</xmpG:green>
                           <xmpG:blue>184</xmpG:blue>
                        </rdf:li>
                        <rdf:li rdf:parseType="Resource">
                           <xmpG:swatchName>C=100 M=95 Y=5 K=0</xmpG:swatchName>
                           <xmpG:mode>RGB</xmpG:mode>
                           <xmpG:type>PROCESS</xmpG:type>
                           <xmpG:red>23</xmpG:red>
                           <xmpG:green>42</xmpG:green>
                           <xmpG:blue>136</xmpG:blue>
                        </rdf:li>
                        <rdf:li rdf:parseType="Resource">
                           <xmpG:swatchName>C=100 M=100 Y=25 K=25</xmpG:swatchName>
                           <xmpG:mode>RGB</xmpG:mode>
                           <xmpG:type>PROCESS</xmpG:type>
                           <xmpG:red>23</xmpG:red>
                           <xmpG:green>28</xmpG:green>
                           <xmpG:blue>97</xmpG:blue>
                        </rdf:li>
                        <rdf:li rdf:parseType="Resource">
                           <xmpG:swatchName>C=75 M=100 Y=0 K=0</xmpG:swatchName>
                           <xmpG:mode>RGB</xmpG:mode>
                           <xmpG:type>PROCESS</xmpG:type>
                           <xmpG:red>96</xmpG:red>
                           <xmpG:green>25</xmpG:green>
                           <xmpG:blue>134</xmpG:blue>
                        </rdf:li>
                        <rdf:li rdf:parseType="Resource">
                           <xmpG:swatchName>C=50 M=100 Y=0 K=0</xmpG:swatchName>
                           <xmpG:mode>RGB</xmpG:mode>
                           <xmpG:type>PROCESS</xmpG:type>
                           <xmpG:red>146</xmpG:red>
                           <xmpG:green>7</xmpG:green>
                           <xmpG:blue>131</xmpG:blue>
                        </rdf:li>
                        <rdf:li rdf:parseType="Resource">
                           <xmpG:swatchName>C=35 M=100 Y=35 K=10</xmpG:swatchName>
                           <xmpG:mode>RGB</xmpG:mode>
                           <xmpG:type>PROCESS</xmpG:type>
                           <xmpG:red>164</xmpG:red>
                           <xmpG:green>11</xmpG:green>
                           <xmpG:blue>93</xmpG:blue>
                        </rdf:li>
                        <rdf:li rdf:parseType="Resource">
                           <xmpG:swatchName>C=10 M=100 Y=50 K=0</xmpG:swatchName>
                           <xmpG:mode>RGB</xmpG:mode>
                           <xmpG:type>PROCESS</xmpG:type>
                           <xmpG:red>215</xmpG:red>
                           <xmpG:green>0</xmpG:green>
                           <xmpG:blue>81</xmpG:blue>
                        </rdf:li>
                        <rdf:li rdf:parseType="Resource">
                           <xmpG:swatchName>C=0 M=95 Y=20 K=0</xmpG:swatchName>
                           <xmpG:mode>RGB</xmpG:mode>
                           <xmpG:type>PROCESS</xmpG:type>
                           <xmpG:red>230</xmpG:red>
                           <xmpG:green>22</xmpG:green>
                           <xmpG:blue>115</xmpG:blue>
                        </rdf:li>
                        <rdf:li rdf:parseType="Resource">
                           <xmpG:swatchName>C=25 M=25 Y=40 K=0</xmpG:swatchName>
                           <xmpG:mode>RGB</xmpG:mode>
                           <xmpG:type>PROCESS</xmpG:type>
                           <xmpG:red>201</xmpG:red>
                           <xmpG:green>188</xmpG:green>
                           <xmpG:blue>156</xmpG:blue>
                        </rdf:li>
                        <rdf:li rdf:parseType="Resource">
                           <xmpG:swatchName>C=40 M=45 Y=50 K=5</xmpG:swatchName>
                           <xmpG:mode>RGB</xmpG:mode>
                           <xmpG:type>PROCESS</xmpG:type>
                           <xmpG:red>164</xmpG:red>
                           <xmpG:green>139</xmpG:green>
                           <xmpG:blue>120</xmpG:blue>
                        </rdf:li>
                        <rdf:li rdf:parseType="Resource">
                           <xmpG:swatchName>C=50 M=50 Y=60 K=25</xmpG:swatchName>
                           <xmpG:mode>RGB</xmpG:mode>
                           <xmpG:type>PROCESS</xmpG:type>
                           <xmpG:red>122</xmpG:red>
                           <xmpG:green>106</xmpG:green>
                           <xmpG:blue>86</xmpG:blue>
                        </rdf:li>
                        <rdf:li rdf:parseType="Resource">
                           <xmpG:swatchName>C=55 M=60 Y=65 K=40</xmpG:swatchName>
                           <xmpG:mode>RGB</xmpG:mode>
                           <xmpG:type>PROCESS</xmpG:type>
                           <xmpG:red>96</xmpG:red>
                           <xmpG:green>76</xmpG:green>
                           <xmpG:blue>63</xmpG:blue>
                        </rdf:li>
                        <rdf:li rdf:parseType="Resource">
                           <xmpG:swatchName>C=25 M=40 Y=65 K=0</xmpG:swatchName>
                           <xmpG:mode>RGB</xmpG:mode>
                           <xmpG:type>PROCESS</xmpG:type>
                           <xmpG:red>201</xmpG:red>
                           <xmpG:green>160</xmpG:green>
                           <xmpG:blue>99</xmpG:blue>
                        </rdf:li>
                        <rdf:li rdf:parseType="Resource">
                           <xmpG:swatchName>C=30 M=50 Y=75 K=10</xmpG:swatchName>
                           <xmpG:mode>RGB</xmpG:mode>
                           <xmpG:type>PROCESS</xmpG:type>
                           <xmpG:red>178</xmpG:red>
                           <xmpG:green>130</xmpG:green>
                           <xmpG:blue>71</xmpG:blue>
                        </rdf:li>
                        <rdf:li rdf:parseType="Resource">
                           <xmpG:swatchName>C=35 M=60 Y=80 K=25</xmpG:swatchName>
                           <xmpG:mode>RGB</xmpG:mode>
                           <xmpG:type>PROCESS</xmpG:type>
                           <xmpG:red>149</xmpG:red>
                           <xmpG:green>97</xmpG:green>
                           <xmpG:blue>52</xmpG:blue>
                        </rdf:li>
                        <rdf:li rdf:parseType="Resource">
                           <xmpG:swatchName>C=40 M=65 Y=90 K=35</xmpG:swatchName>
                           <xmpG:mode>RGB</xmpG:mode>
                           <xmpG:type>PROCESS</xmpG:type>
                           <xmpG:red>127</xmpG:red>
                           <xmpG:green>79</xmpG:green>
                           <xmpG:blue>33</xmpG:blue>
                        </rdf:li>
                        <rdf:li rdf:parseType="Resource">
                           <xmpG:swatchName>C=40 M=70 Y=100 K=50</xmpG:swatchName>
                           <xmpG:mode>RGB</xmpG:mode>
                           <xmpG:type>PROCESS</xmpG:type>
                           <xmpG:red>106</xmpG:red>
                           <xmpG:green>57</xmpG:green>
                           <xmpG:blue>6</xmpG:blue>
                        </rdf:li>
                        <rdf:li rdf:parseType="Resource">
                           <xmpG:swatchName>C=50 M=70 Y=80 K=70</xmpG:swatchName>
                           <xmpG:mode>RGB</xmpG:mode>
                           <xmpG:type>PROCESS</xmpG:type>
                           <xmpG:red>64</xmpG:red>
                           <xmpG:green>34</xmpG:green>
                           <xmpG:blue>15</xmpG:blue>
                        </rdf:li>
                     </rdf:Seq>
                  </xmpG:Colorants>
               </rdf:li>
               <rdf:li rdf:parseType="Resource">
                  <xmpG:groupName>グレー</xmpG:groupName>
                  <xmpG:groupType>1</xmpG:groupType>
                  <xmpG:Colorants>
                     <rdf:Seq>
                        <rdf:li rdf:parseType="Resource">
                           <xmpG:swatchName>C=0 M=0 Y=0 K=100</xmpG:swatchName>
                           <xmpG:mode>RGB</xmpG:mode>
                           <xmpG:type>PROCESS</xmpG:type>
                           <xmpG:red>35</xmpG:red>
                           <xmpG:green>24</xmpG:green>
                           <xmpG:blue>21</xmpG:blue>
                        </rdf:li>
                        <rdf:li rdf:parseType="Resource">
                           <xmpG:swatchName>C=0 M=0 Y=0 K=90</xmpG:swatchName>
                           <xmpG:mode>RGB</xmpG:mode>
                           <xmpG:type>PROCESS</xmpG:type>
                           <xmpG:red>62</xmpG:red>
                           <xmpG:green>58</xmpG:green>
                           <xmpG:blue>57</xmpG:blue>
                        </rdf:li>
                        <rdf:li rdf:parseType="Resource">
                           <xmpG:swatchName>C=0 M=0 Y=0 K=80</xmpG:swatchName>
                           <xmpG:mode>RGB</xmpG:mode>
                           <xmpG:type>PROCESS</xmpG:type>
                           <xmpG:red>89</xmpG:red>
                           <xmpG:green>87</xmpG:green>
                           <xmpG:blue>87</xmpG:blue>
                        </rdf:li>
                        <rdf:li rdf:parseType="Resource">
                           <xmpG:swatchName>C=0 M=0 Y=0 K=70</xmpG:swatchName>
                           <xmpG:mode>RGB</xmpG:mode>
                           <xmpG:type>PROCESS</xmpG:type>
                           <xmpG:red>114</xmpG:red>
                           <xmpG:green>113</xmpG:green>
                           <xmpG:blue>113</xmpG:blue>
                        </rdf:li>
                        <rdf:li rdf:parseType="Resource">
                           <xmpG:swatchName>C=0 M=0 Y=0 K=60</xmpG:swatchName>
                           <xmpG:mode>RGB</xmpG:mode>
                           <xmpG:type>PROCESS</xmpG:type>
                           <xmpG:red>137</xmpG:red>
                           <xmpG:green>137</xmpG:green>
                           <xmpG:blue>137</xmpG:blue>
                        </rdf:li>
                        <rdf:li rdf:parseType="Resource">
                           <xmpG:swatchName>C=0 M=0 Y=0 K=50</xmpG:swatchName>
                           <xmpG:mode>RGB</xmpG:mode>
                           <xmpG:type>PROCESS</xmpG:type>
                           <xmpG:red>159</xmpG:red>
                           <xmpG:green>160</xmpG:green>
                           <xmpG:blue>160</xmpG:blue>
                        </rdf:li>
                        <rdf:li rdf:parseType="Resource">
                           <xmpG:swatchName>C=0 M=0 Y=0 K=40</xmpG:swatchName>
                           <xmpG:mode>RGB</xmpG:mode>
                           <xmpG:type>PROCESS</xmpG:type>
                           <xmpG:red>181</xmpG:red>
                           <xmpG:green>181</xmpG:green>
                           <xmpG:blue>182</xmpG:blue>
                        </rdf:li>
                        <rdf:li rdf:parseType="Resource">
                           <xmpG:swatchName>C=0 M=0 Y=0 K=30</xmpG:swatchName>
                           <xmpG:mode>RGB</xmpG:mode>
                           <xmpG:type>PROCESS</xmpG:type>
                           <xmpG:red>201</xmpG:red>
                           <xmpG:green>202</xmpG:green>
                           <xmpG:blue>202</xmpG:blue>
                        </rdf:li>
                        <rdf:li rdf:parseType="Resource">
                           <xmpG:swatchName>C=0 M=0 Y=0 K=20</xmpG:swatchName>
                           <xmpG:mode>RGB</xmpG:mode>
                           <xmpG:type>PROCESS</xmpG:type>
                           <xmpG:red>220</xmpG:red>
                           <xmpG:green>221</xmpG:green>
                           <xmpG:blue>221</xmpG:blue>
                        </rdf:li>
                        <rdf:li rdf:parseType="Resource">
                           <xmpG:swatchName>C=0 M=0 Y=0 K=10</xmpG:swatchName>
                           <xmpG:mode>RGB</xmpG:mode>
                           <xmpG:type>PROCESS</xmpG:type>
                           <xmpG:red>239</xmpG:red>
                           <xmpG:green>239</xmpG:green>
                           <xmpG:blue>239</xmpG:blue>
                        </rdf:li>
                        <rdf:li rdf:parseType="Resource">
                           <xmpG:swatchName>C=0 M=0 Y=0 K=5</xmpG:swatchName>
                           <xmpG:mode>RGB</xmpG:mode>
                           <xmpG:type>PROCESS</xmpG:type>
                           <xmpG:red>247</xmpG:red>
                           <xmpG:green>248</xmpG:green>
                           <xmpG:blue>248</xmpG:blue>
                        </rdf:li>
                     </rdf:Seq>
                  </xmpG:Colorants>
               </rdf:li>
               <rdf:li rdf:parseType="Resource">
                  <xmpG:groupName>輝き</xmpG:groupName>
                  <xmpG:groupType>1</xmpG:groupType>
                  <xmpG:Colorants>
                     <rdf:Seq>
                        <rdf:li rdf:parseType="Resource">
                           <xmpG:swatchName>C=0 M=100 Y=100 K=0</xmpG:swatchName>
                           <xmpG:mode>RGB</xmpG:mode>
                           <xmpG:type>PROCESS</xmpG:type>
                           <xmpG:red>230</xmpG:red>
                           <xmpG:green>0</xmpG:green>
                           <xmpG:blue>18</xmpG:blue>
                        </rdf:li>
                        <rdf:li rdf:parseType="Resource">
                           <xmpG:swatchName>C=0 M=75 Y=100 K=0</xmpG:swatchName>
                           <xmpG:mode>RGB</xmpG:mode>
                           <xmpG:type>PROCESS</xmpG:type>
                           <xmpG:red>235</xmpG:red>
                           <xmpG:green>97</xmpG:green>
                           <xmpG:blue>0</xmpG:blue>
                        </rdf:li>
                        <rdf:li rdf:parseType="Resource">
                           <xmpG:swatchName>C=0 M=10 Y=95 K=0</xmpG:swatchName>
                           <xmpG:mode>RGB</xmpG:mode>
                           <xmpG:type>PROCESS</xmpG:type>
                           <xmpG:red>255</xmpG:red>
                           <xmpG:green>226</xmpG:green>
                           <xmpG:blue>0</xmpG:blue>
                        </rdf:li>
                        <rdf:li rdf:parseType="Resource">
                           <xmpG:swatchName>C=85 M=10 Y=100 K=0</xmpG:swatchName>
                           <xmpG:mode>RGB</xmpG:mode>
                           <xmpG:type>PROCESS</xmpG:type>
                           <xmpG:red>0</xmpG:red>
                           <xmpG:green>154</xmpG:green>
                           <xmpG:blue>62</xmpG:blue>
                        </rdf:li>
                        <rdf:li rdf:parseType="Resource">
                           <xmpG:swatchName>C=100 M=90 Y=0 K=0</xmpG:swatchName>
                           <xmpG:mode>RGB</xmpG:mode>
                           <xmpG:type>PROCESS</xmpG:type>
                           <xmpG:red>11</xmpG:red>
                           <xmpG:green>49</xmpG:green>
                           <xmpG:blue>143</xmpG:blue>
                        </rdf:li>
                        <rdf:li rdf:parseType="Resource">
                           <xmpG:swatchName>C=60 M=90 Y=0 K=0</xmpG:swatchName>
                           <xmpG:mode>RGB</xmpG:mode>
                           <xmpG:type>PROCESS</xmpG:type>
                           <xmpG:red>126</xmpG:red>
                           <xmpG:green>49</xmpG:green>
                           <xmpG:blue>142</xmpG:blue>
                        </rdf:li>
                     </rdf:Seq>
                  </xmpG:Colorants>
               </rdf:li>
            </rdf:Seq>
         </xmpTPg:SwatchGroups>
         <pdf:Producer>Adobe PDF library 15.00</pdf:Producer>
      </rdf:Description>
   </rdf:RDF>
</x:xmpmeta>
                                                                                                    
                                                                                                    
                                                                                                    
                                                                                                    
                                                                                                    
                                                                                                    
                                                                                                    
                                                                                                    
                                                                                                    
                                                                                                    
                                                                                                    
                                                                                                    
                                                                                                    
                                                                                                    
                                                                                                    
                                                                                                    
                                                                                                    
                                                                                                    
                                                                                                    
                                                                                                    
                           
<?xpacket end="w"?>
	</metadata>
<g>
	<g>
		<path class="st0" d="M15.6,13.4c0,4.3-2.3,6.5-6.6,6.5s-6.6-2.2-6.6-6.5v-10H5V13c0,3.1,1.3,4.5,4,4.5s4-1.4,4-4.5V3.4h2.7V13.4z"
			/>
		<path class="st0" d="M34.7,13.4c0,4-2.1,6.4-5.4,6.4c-1.8,0-3.2-0.9-4-2.2v7.1h-2.6V7.3H25l0.1,2.3C25.8,8.1,27.3,7,29.3,7
			C32.6,7,34.7,9.4,34.7,13.4z M32.1,13.4c0-2.7-1.3-4.3-3.4-4.3c-2,0-3.3,1.4-3.4,3.8v0.9c0.1,2.4,1.4,3.8,3.4,3.8
			C30.8,17.7,32.1,16.1,32.1,13.4z"/>
		<path class="st0" d="M49.3,18.8c-0.8,0.7-1.9,1.1-3.3,1.1c-2.1,0-3.7-1-3.8-3.5v-7h-2.3V7.3h2.3V4.4l2.6-0.7v3.6h4.3v2.1h-4.3v6.5
			c0,1.2,0.7,1.7,1.8,1.7c0.8,0,1.4-0.3,2-0.8L49.3,18.8z"/>
		<path class="st0" d="M68.4,19.6c0.8,0,1.5-0.2,2.1-0.3c3.1-0.7,6.2-3,6.2-7.2c0-3.7-2.3-6.7-6.5-7.1c-0.3,2.3-0.8,4.7-1.4,7
			c-1.5,5-3.4,7.6-5.7,7.6c-2.2,0-4.3-2.5-4.3-6.5c0-5.3,4.7-9.9,10.7-9.9c5.7,0,9.3,4,9.3,8.9c0,5.1-3.4,8.5-9.2,9.3L68.4,19.6z
			 M66.8,11.6c0.6-2,1.1-4.3,1.4-6.6c-4.7,0.6-7.5,4.6-7.5,7.9c0,3.1,1.4,4.4,2.5,4.4C64.2,17.4,65.5,15.7,66.8,11.6z"/>
		<path class="st0" d="M106.7,13.1c-0.8,2.3-2,4.2-3.6,5.8c1.4,1.1,3.1,1.9,5,2.4c-0.4,0.3-0.9,1-1.1,1.4c-2-0.6-3.7-1.5-5.1-2.7
			c-1.5,1.2-3.2,2-4.9,2.6c-0.2-0.4-0.6-1.1-1-1.4v1.5h-1.7v-2.4c-3,0.4-6,0.7-8.3,1l-0.2-1.6c0.7,0,1.5-0.1,2.3-0.2v-8.3H86V9.7
			h21.5v1.5H95.9v9.9c1.6-0.5,3.2-1.3,4.6-2.3c-1.1-1.2-2-2.7-2.7-4.3l1.1-0.3h-2.1v-1.5h8.5l0.3,0L106.7,13.1z M104.7,8.3H88.9V1
			h15.8V8.3z M89.8,11.2v1.6h4.4v-1.6H89.8z M89.8,15.9h4.4v-1.7h-4.4V15.9z M89.8,19.3c1.4-0.1,2.9-0.3,4.4-0.5v-1.5h-4.4V19.3z
			 M102.9,2.3H90.6V4h12.3V2.3z M102.9,5.3H90.6V7h12.3V5.3z M99.4,14.1c0.6,1.4,1.4,2.6,2.4,3.6c1.1-1,2-2.2,2.7-3.6H99.4z"/>
		<path class="st0" d="M123.6,19.1c-0.5-0.6-1.8-1.8-2.8-2.8v6.2h-1.8v-6.5c-1.2,1.9-2.7,3.7-4.1,4.7c-0.3-0.4-0.8-1-1.2-1.3
			c1.8-1.2,3.7-3.4,4.9-5.5h-4.4v-1.5h4.8V9.9h-4.9V8.4h11.4v1.5h-4.8v2.6h4.6V14h-4.6v0.6c0.9,0.7,3.3,2.6,3.9,3.1L123.6,19.1z
			 M125.3,4.3h-10.8V2.8h4.5V0.3h1.8v2.5h4.5V4.3z M117,8.3c-0.1-1-0.5-2.4-1-3.5l1.4-0.4c0.5,1.1,0.9,2.6,1.1,3.5L117,8.3z M121,8
			c0.4-1,1-2.5,1.2-3.6l1.7,0.4c-0.5,1.2-1,2.6-1.4,3.5L121,8z M136.4,10.2h-2.8v12.3h-1.8V10.2h-3.7v0.6c0,3.7-0.5,8.6-3.9,12
			c-0.2-0.4-0.9-1-1.3-1.3c3.1-3,3.5-7.3,3.5-10.7V2.2l1.3,0.4c2.5-0.5,5.3-1.3,6.8-2.1l1.5,1.4c-2.1,0.9-5.2,1.7-7.9,2.2v4.4h8.2
			V10.2z"/>
		<path class="st0" d="M142.2,11.2c0.6-1.6,1-4.3,1.1-6.3l1.4,0.2c-0.1,1.9-0.5,4.7-1.1,6.6L142.2,11.2z M145.2,0.3h1.7v22.4h-1.7
			V0.3z M148.3,3.9c0.5,1.1,1.1,2.6,1.4,3.4l-1.3,0.6c-0.2-0.9-0.8-2.5-1.3-3.6L148.3,3.9z M164.9,8.2v1.4h-15.9V8.2h7V6.5h-5.7V5.1
			h5.7V3.6h-6.3V2.2h6.3V0.3h1.8v1.9h6.5v1.4h-6.5v1.5h5.8v1.3h-5.8v1.7H164.9z M163,20.6c0,0.9-0.2,1.4-0.9,1.7
			c-0.7,0.3-1.8,0.3-3.5,0.3c-0.1-0.4-0.3-1.1-0.5-1.6c1.2,0,2.4,0,2.7,0c0.3,0,0.5-0.1,0.5-0.4v-1.8h-8.8v3.8h-1.7V11H163V20.6z
			 M152.4,12.4v1.8h8.8v-1.8H152.4z M161.2,17.5v-1.9h-8.8v1.9H161.2z"/>
		<path class="st0" d="M177.4,6.8h4.5v1.6h-2.6l1.2,0.3c-0.4,1.1-0.9,2.3-1.4,3.2h2.4v1.6h-4.2v2.7h3.9v1.5h-3.9v5h-1.7v-5h-4v-1.5
			h4v-2.7h-4.3v-1.6h2.4c-0.1-0.9-0.6-2.2-1-3.2l1.2-0.3H171V6.8h4.6V4.3h-3.7V2.8h3.7V0.3h1.7v2.5h3.6v1.6h-3.6V6.8z M177.7,11.6
			c0.4-0.9,0.9-2.3,1.2-3.2h-4.8c0.5,1,1,2.4,1.1,3.2l-0.9,0.2h4.2L177.7,11.6z M192.8,10c-0.5,2.9-1.5,5.7-3,8.1
			c1.1,1.3,2.4,2.4,3.9,3.1c-0.4,0.3-1,1-1.3,1.5c-1.4-0.8-2.6-1.8-3.6-3.1c-0.9,1.2-2,2.3-3.3,3.2c-0.2-0.4-0.7-0.9-1.2-1.2v1.2
			h-1.7V1.4h9.5v4.7c0,0.9-0.2,1.4-1,1.7c-0.7,0.2-2,0.3-3.8,0.3c-0.1-0.5-0.3-1.1-0.6-1.6c1.5,0,2.8,0,3.2,0c0.4,0,0.5-0.1,0.5-0.4
			V3h-6.2v6.6h7l0.3-0.1L192.8,10z M184.3,21.4c1.3-0.9,2.4-2,3.4-3.3c-1.4-2-2.4-4.4-3.2-7h-0.2V21.4z M186.1,11.2
			c0.6,1.9,1.5,3.8,2.6,5.4c1-1.7,1.7-3.5,2.1-5.4H186.1z"/>
		<path class="st0" d="M204.7,2.1c-0.1,0.4-0.3,1.2-0.4,1.6c-0.5,2.3-1.2,7.1-1.2,9.8c0,1.2,0,2.1,0.2,3.3c0.4-1.1,1-2.6,1.4-3.5
			l1,0.8c-0.6,1.7-1.5,4.2-1.7,5.4c-0.1,0.3-0.1,0.8-0.1,1.1c0,0.2,0,0.6,0.1,0.8l-1.7,0.1c-0.5-1.7-0.9-4.4-0.9-7.7
			c0-3.6,0.8-8.2,1.1-10.2c0.1-0.6,0.2-1.2,0.2-1.7L204.7,2.1z M220.6,19.8c-1.2-1.1-2.4-2.1-3.7-2.8v0.4c0,2-0.9,4-4.2,4
			c-3.3,0-5.1-1.4-5.1-3.5c0-2,1.8-3.7,5-3.7c0.8,0,1.6,0.1,2.3,0.2c-0.1-1.9-0.2-4.2-0.2-6.2c-0.8,0-1.5,0-2.3,0
			c-1.4,0-2.7-0.1-4.1-0.1V6.3c1.4,0.1,2.7,0.2,4.1,0.2c0.8,0,1.5,0,2.3,0v-3c0-0.4,0-1.1-0.1-1.5h2.2c-0.1,0.5-0.1,1-0.1,1.4
			c0,0.7,0,1.8-0.1,2.9c1.5-0.1,2.9-0.3,4.2-0.6v1.9c-1.3,0.2-2.8,0.4-4.2,0.5c0,2.4,0.2,4.9,0.3,6.9c2,0.8,3.5,2,4.8,3.2
			L220.6,19.8z M215,16.2c-0.8-0.3-1.6-0.4-2.5-0.4c-1.8,0-3.1,0.8-3.1,1.9c0,1.2,1.2,1.9,2.9,1.9c2.1,0,2.7-1,2.7-2.6
			C215,16.8,215,16.5,215,16.2z"/>
		<path class="st0" d="M232,13.4c-0.3,1-0.5,1.9-0.5,2.8c0,1.8,1.9,3.1,5.7,3.1c3.4,0,6.5-0.4,8.3-0.9l0,2.1
			c-1.7,0.5-4.8,0.8-8.3,0.8c-4.9,0-7.8-1.6-7.8-4.7c0-1.3,0.3-2.4,0.5-3.4L232,13.4z M231,3.6c1.8,0.2,4,0.3,6.4,0.3
			c2.3,0,4.8-0.2,6.6-0.3v2c-1.6,0.1-4.3,0.3-6.6,0.3c-2.4,0-4.5-0.1-6.4-0.3V3.6z"/>
		<path class="st0" d="M270.3,5.8c-2.8,0.5-6.7,0.9-9.9,1c-0.4,2-1,4.3-1.5,5.7c2.1-1.5,4.1-2.1,6.8-2.1c3.9,0,6.1,2,6.1,4.8
			c0,5.1-5.2,7-12.5,6.2l-0.5-1.9c5.6,0.8,11.1-0.2,11.1-4.2c0-1.8-1.5-3.2-4.3-3.2c-2.9,0-5.6,1-7.2,2.9c-0.3,0.4-0.5,0.7-0.8,1.1
			l-1.8-0.7c1.2-2.4,2.2-5.9,2.8-8.6h0c-1.6,0-3.2-0.1-4.6-0.2l0-1.9c1.3,0.2,3.1,0.4,4.6,0.4h0.4c0.1-0.6,0.2-1.2,0.2-1.6
			c0.1-0.8,0.1-1.4,0.1-2l2.2,0.1c-0.2,0.6-0.3,1.4-0.4,2c-0.1,0.4-0.1,0.9-0.3,1.4c2.9-0.1,6.5-0.5,9.5-1.2L270.3,5.8z"/>
		<path class="st0" d="M282.6,12.8c2.3-2,5-2.9,7.9-2.9c3.7,0,6.2,2.2,6.2,5.1c0,4.4-3.9,7.3-12.9,6.6l-0.6-2
			c7.7,0.9,11.4-1.3,11.4-4.6c0-1.9-1.8-3.3-4.3-3.3c-3.2,0-5.8,1.2-7.5,3.2c-0.3,0.4-0.6,0.8-0.7,1.2l-1.8-0.4
			c0.5-2.2,1.1-7.3,1.2-9.9l2.1,0.3C283.2,7.7,282.8,11.2,282.6,12.8z M284.1,1.6c2.1,0.7,7.2,1.7,9.4,1.9L293,5.4
			c-2.3-0.3-7.6-1.4-9.5-1.9L284.1,1.6z"/>
		<path class="st0" d="M313.3,1.7c-0.1,0.4-0.2,1-0.3,1.4c-0.1,0.7-0.3,2.1-0.6,3.4c1.1-0.1,2.1-0.1,2.7-0.1c2.2,0,4,0.8,4,4.1
			c0,2.9-0.4,6.7-1.4,8.8c-0.8,1.6-2,2-3.6,2c-0.9,0-2.1-0.2-2.8-0.4l-0.3-2.1c1,0.3,2.3,0.5,3,0.5c0.9,0,1.6-0.2,2.1-1.3
			c0.8-1.6,1.1-4.8,1.1-7.4c0-2.2-1-2.6-2.6-2.6c-0.6,0-1.5,0.1-2.6,0.2c-0.9,3.5-2.5,8.9-5.1,13.1l-2-0.8c2.5-3.3,4.3-8.8,5.1-12.1
			c-1.3,0.1-2.4,0.2-3.1,0.3c-0.6,0.1-1.5,0.2-2.2,0.3L304.5,7c0.8,0,1.4,0,2.2,0c0.8,0,2.2-0.1,3.7-0.3c0.3-1.7,0.6-3.6,0.6-5.3
			L313.3,1.7z M321.7,4.3c1.5,2,3.6,6.4,4.4,8.7l-1.9,0.9c-0.7-2.5-2.6-6.8-4.3-8.8L321.7,4.3z"/>
		<path class="st0" d="M335.5,12.8c2.3-2,5-2.9,7.9-2.9c3.7,0,6.2,2.2,6.2,5.1c0,4.4-3.9,7.3-12.9,6.6l-0.6-2
			c7.7,0.9,11.4-1.3,11.4-4.6c0-1.9-1.8-3.3-4.3-3.3c-3.2,0-5.8,1.2-7.5,3.2c-0.3,0.4-0.6,0.8-0.7,1.2l-1.8-0.4
			c0.5-2.2,1.1-7.3,1.2-9.9l2.1,0.3C336.1,7.7,335.7,11.2,335.5,12.8z M337,1.6c2.1,0.7,7.2,1.7,9.4,1.9l-0.5,1.9
			c-2.3-0.3-7.6-1.4-9.5-1.9L337,1.6z"/>
		<path class="st0" d="M0.2,24.5v-1.2h50.5v1.2H0.2z"/>
		<path class="st0" d="M50.7,24.5v-1.2h305.1v1.2H50.7z"/>
	</g>
</g>
</svg>
