<?xml version="1.0" encoding="utf-8"?>
<!-- Generator: Adobe Illustrator 25.4.1, SVG Export Plug-In . SVG Version: 6.00 Build 0)  -->
<svg version="1.1" id="レイヤー_1" xmlns="http://www.w3.org/2000/svg" xmlns:xlink="http://www.w3.org/1999/xlink" x="0px"
	 y="0px" viewBox="0 0 537 12" style="enable-background:new 0 0 537 12;" xml:space="preserve">
<style type="text/css">
	.st0{fill:#32667A;}
</style>
<g>
	<path class="st0" d="M93,2v9.4h-1.6V2h-4.2V0.6h10V2H93z"/>
	<path class="st0" d="M110,10c-1.3,1.1-2.9,1.7-4.8,1.7c-1.9,0-3.5-0.6-4.8-1.7c-1.3-1.1-2-2.4-2-4c0-1.6,0.7-2.9,2-4
		c1.3-1.1,2.9-1.6,4.8-1.6c1.9,0,3.5,0.5,4.8,1.6c1.3,1.1,2,2.4,2,4C112,7.5,111.3,8.9,110,10z M108.9,3c-1-0.8-2.2-1.3-3.6-1.3
		c-1.4,0-2.7,0.4-3.7,1.3c-1,0.8-1.5,1.9-1.5,3s0.5,2.2,1.5,3c1,0.8,2.2,1.3,3.7,1.3c1.4,0,2.6-0.4,3.6-1.3c1-0.8,1.5-1.9,1.5-3
		C110.4,4.8,109.9,3.8,108.9,3z"/>
	<path class="st0" d="M123.2,11.4V0.6h1.6V10h5.8v1.3H123.2z"/>
	<path class="st0" d="M143.9,10c-1.3,1.1-2.9,1.7-4.8,1.7c-1.9,0-3.5-0.6-4.8-1.7c-1.3-1.1-2-2.4-2-4c0-1.6,0.7-2.9,2-4
		c1.3-1.1,2.9-1.6,4.8-1.6c1.9,0,3.5,0.5,4.8,1.6c1.3,1.1,2,2.4,2,4C145.9,7.5,145.3,8.9,143.9,10z M142.8,3c-1-0.8-2.2-1.3-3.6-1.3
		c-1.4,0-2.7,0.4-3.7,1.3c-1,0.8-1.5,1.9-1.5,3s0.5,2.2,1.5,3c1,0.8,2.2,1.3,3.7,1.3c1.4,0,2.6-0.4,3.6-1.3c1-0.8,1.5-1.9,1.5-3
		C144.3,4.8,143.8,3.8,142.8,3z"/>
	<path class="st0" d="M153.1,11.4h-1.7l-4.7-10.8h1.7l3.9,8.8l3.8-8.8h1.7L153.1,11.4z"/>
	<path class="st0" d="M159.7,11.4V0.6h9V2h-7.4v3.3h5.8v1.4h-5.8V10h7.4v1.3H159.7z"/>
	<path class="st0" d="M192.3,11.4h-1.7L187.8,3l-2.9,8.3h-1.7l-3.7-10.8h1.7l2.8,8.3l2.9-8.3h1.7l2.9,8.3l2.9-8.3h1.7L192.3,11.4z"
		/>
	<path class="st0" d="M206.9,11.4V6.7h-7.1v4.7h-1.6V0.6h1.6v4.7h7.1V0.6h1.6v10.8H206.9z"/>
	<path class="st0" d="M220.1,11.4L219.1,9h-5.5l-1.1,2.4h-1.7l4.7-10.8h1.7l4.7,10.8H220.1z M216.3,2.6l-2.2,5h4.4L216.3,2.6z"/>
	<path class="st0" d="M228.2,2v9.4h-1.6V2h-4.2V0.6h10V2H228.2z"/>
	<path class="st0" d="M248.9,6.2v5.1h-1.6V6.2l-4.7-5.6h2l3.5,4.2l3.5-4.2h2L248.9,6.2z"/>
	<path class="st0" d="M265.9,10c-1.3,1.1-2.9,1.7-4.8,1.7c-1.9,0-3.5-0.6-4.8-1.7c-1.3-1.1-2-2.4-2-4c0-1.6,0.7-2.9,2-4
		c1.3-1.1,2.9-1.6,4.8-1.6c1.9,0,3.5,0.5,4.8,1.6c1.3,1.1,2,2.4,2,4C267.9,7.5,267.3,8.9,265.9,10z M264.8,3c-1-0.8-2.2-1.3-3.6-1.3
		c-1.4,0-2.7,0.4-3.7,1.3c-1,0.8-1.5,1.9-1.5,3s0.5,2.2,1.5,3c1,0.8,2.2,1.3,3.7,1.3c1.4,0,2.6-0.4,3.6-1.3c1-0.8,1.5-1.9,1.5-3
		C266.3,4.8,265.8,3.8,264.8,3z"/>
	<path class="st0" d="M279.2,10.4c-1,0.9-2.2,1.3-3.6,1.3s-2.6-0.4-3.6-1.3c-1-0.8-1.5-1.8-1.5-3V0.6h1.6v6.7c0,0.8,0.3,1.5,1,2.1
		c0.7,0.6,1.5,0.9,2.5,0.9c1,0,1.8-0.3,2.5-0.9c0.7-0.6,1-1.3,1-2.1V0.6h1.6v6.7C280.7,8.5,280.2,9.5,279.2,10.4z"/>
	<path class="st0" d="M300.8,11.4L299.7,9h-5.5l-1.1,2.4h-1.7l4.7-10.8h1.7l4.7,10.8H300.8z M296.9,2.6l-2.2,5h4.4L296.9,2.6z"/>
	<path class="st0" d="M313.2,11.4l-2.9-3.8c-0.5-0.6-1.3-0.9-2.4-0.9H306v4.7h-1.6V0.6h5.5c1.1,0,2,0.3,2.8,0.8
		c0.8,0.6,1.2,1.3,1.2,2.2c0,0.7-0.3,1.3-0.8,1.8c-0.6,0.5-1.2,0.9-2.1,1.1c0.3,0,0.7,0.4,1.3,1.1l2.9,3.8H313.2z M311.5,2.4
		c-0.5-0.3-1-0.4-1.6-0.4H306v3.3h3.9c0.6,0,1.2-0.1,1.6-0.4c0.5-0.3,0.8-0.7,0.8-1.2C312.3,3.1,312,2.7,311.5,2.4z"/>
	<path class="st0" d="M317,11.4V0.6h9V2h-7.4v3.3h5.8v1.4h-5.8V10h7.4v1.3H317z"/>
	<path class="st0" d="M346.3,10.5c-0.8,0.6-1.7,0.8-2.8,0.8h-5.8V0.6h5.5c1.1,0,2,0.3,2.8,0.8c0.8,0.6,1.2,1.3,1.2,2.2
		c0,1.1-0.7,1.9-2,2.3c1.5,0.4,2.3,1.2,2.3,2.4C347.5,9.2,347.1,9.9,346.3,10.5z M344.8,2.4c-0.5-0.3-1-0.4-1.6-0.4h-3.9v3.3h3.9
		c0.6,0,1.2-0.1,1.6-0.4c0.5-0.3,0.8-0.7,0.8-1.2C345.5,3.1,345.3,2.7,344.8,2.4z M345.1,7.1c-0.5-0.3-1-0.4-1.6-0.4h-4.2V10h4.2
		c0.6,0,1.2-0.1,1.6-0.4c0.5-0.3,0.8-0.7,0.8-1.2C345.9,7.8,345.6,7.4,345.1,7.1z"/>
	<path class="st0" d="M360.9,10c-1.3,1.1-2.9,1.7-4.8,1.7c-1.9,0-3.5-0.6-4.8-1.7c-1.3-1.1-2-2.4-2-4c0-1.6,0.7-2.9,2-4
		c1.3-1.1,2.9-1.6,4.8-1.6c1.9,0,3.5,0.5,4.8,1.6c1.3,1.1,2,2.4,2,4C362.9,7.5,362.2,8.9,360.9,10z M359.7,3c-1-0.8-2.2-1.3-3.6-1.3
		c-1.4,0-2.7,0.4-3.7,1.3c-1,0.8-1.5,1.9-1.5,3s0.5,2.2,1.5,3c1,0.8,2.2,1.3,3.7,1.3c1.4,0,2.6-0.4,3.6-1.3c1-0.8,1.5-1.9,1.5-3
		C361.3,4.8,360.8,3.8,359.7,3z"/>
	<path class="st0" d="M374.3,11.4l-2.9-3.8c-0.5-0.6-1.3-0.9-2.4-0.9h-1.9v4.7h-1.6V0.6h5.5c1.1,0,2,0.3,2.8,0.8
		c0.8,0.6,1.2,1.3,1.2,2.2c0,0.7-0.3,1.3-0.8,1.8c-0.6,0.5-1.2,0.9-2.1,1.1c0.3,0,0.7,0.4,1.3,1.1l2.9,3.8H374.3z M372.6,2.4
		c-0.5-0.3-1-0.4-1.6-0.4h-3.9v3.3h3.9c0.6,0,1.2-0.1,1.6-0.4c0.5-0.3,0.8-0.7,0.8-1.2C373.4,3.1,373.1,2.7,372.6,2.4z"/>
	<path class="st0" d="M386.8,11.4L379.7,3v8.3h-1.6V0.6h1.6l7.1,8.3V0.6h1.6v10.8H386.8z"/>
	<path class="st0" d="M412,11.4h-1.7L407.5,3l-2.9,8.3h-1.7l-3.7-10.8h1.7l2.8,8.3l2.9-8.3h1.7l2.9,8.3l2.9-8.3h1.7L412,11.4z"/>
	<path class="st0" d="M417.9,11.4V0.6h1.6v10.8H417.9z"/>
	<path class="st0" d="M427.7,2v9.4h-1.6V2h-4.2V0.6h10V2H427.7z"/>
	<path class="st0" d="M443,11.4V6.7h-7.1v4.7h-1.6V0.6h1.6v4.7h7.1V0.6h1.6v10.8H443z"/>
	<path class="st0" d="M449.5,11.1c-0.2,0.2-0.5,0.3-0.8,0.3c-0.3,0-0.6-0.1-0.8-0.3s-0.3-0.4-0.3-0.7c0-0.3,0.1-0.5,0.3-0.7
		s0.5-0.3,0.8-0.3c0.3,0,0.6,0.1,0.8,0.3s0.3,0.4,0.3,0.7C449.8,10.7,449.7,10.9,449.5,11.1z"/>
</g>
</svg>
