<?xml version="1.0" encoding="utf-8"?>
<!-- Generator: Adobe Illustrator 25.4.1, SVG Export Plug-In . SVG Version: 6.00 Build 0)  -->
<svg version="1.1" id="レイヤー_1" xmlns="http://www.w3.org/2000/svg" xmlns:xlink="http://www.w3.org/1999/xlink" x="0px"
	 y="0px" viewBox="0 0 537 12" style="enable-background:new 0 0 537 12;" xml:space="preserve">
<style type="text/css">
	.st0{fill:#32667A;}
</style>
<g>
	<path class="st0" d="M22.5,11.4V0.6h1.6v10.8H22.5z"/>
	<path class="st0" d="M47.7,11.4H46L43.2,3l-2.9,8.3h-1.7L34.9,0.6h1.7l2.8,8.3l2.9-8.3H44l2.9,8.3l2.9-8.3h1.7L47.7,11.4z"/>
	<path class="st0" d="M61,11.4L59.9,9h-5.5l-1.1,2.4h-1.7l4.7-10.8H58l4.7,10.8H61z M57.2,2.6l-2.2,5h4.4L57.2,2.6z"/>
	<path class="st0" d="M73.6,11.4L66.5,3v8.3h-1.6V0.6h1.6L73.6,9V0.6h1.6v10.8H73.6z"/>
	<path class="st0" d="M83.4,2v9.4h-1.6V2h-4.2V0.6h10V2H83.4z"/>
	<path class="st0" d="M103.8,2v9.4h-1.6V2h-4.2V0.6h10V2H103.8z"/>
	<path class="st0" d="M120.8,10c-1.3,1.1-2.9,1.7-4.8,1.7c-1.9,0-3.5-0.6-4.8-1.7c-1.3-1.1-2-2.4-2-4c0-1.6,0.7-2.9,2-4
		c1.3-1.1,2.9-1.6,4.8-1.6c1.9,0,3.5,0.5,4.8,1.6c1.3,1.1,2,2.4,2,4C122.8,7.5,122.1,8.9,120.8,10z M119.6,3c-1-0.8-2.2-1.3-3.6-1.3
		c-1.4,0-2.7,0.4-3.7,1.3c-1,0.8-1.5,1.9-1.5,3s0.5,2.2,1.5,3c1,0.8,2.2,1.3,3.7,1.3c1.4,0,2.6-0.4,3.6-1.3c1-0.8,1.5-1.9,1.5-3
		C121.2,4.8,120.7,3.8,119.6,3z"/>
	<path class="st0" d="M142.7,10.4c-1,0.9-2.2,1.3-3.6,1.3s-2.6-0.4-3.6-1.3c-1-0.8-1.5-1.8-1.5-3V0.6h1.6v6.7c0,0.8,0.3,1.5,1,2.1
		c0.7,0.6,1.5,0.9,2.5,0.9c1,0,1.8-0.3,2.5-0.9c0.7-0.6,1-1.3,1-2.1V0.6h1.6v6.7C144.2,8.5,143.7,9.5,142.7,10.4z"/>
	<path class="st0" d="M155.7,11.4L148.6,3v8.3H147V0.6h1.6l7.1,8.3V0.6h1.6v10.8H155.7z"/>
	<path class="st0" d="M160.4,11.4V0.6h1.6V10h5.8v1.3H160.4z"/>
	<path class="st0" d="M178.8,11.4L177.7,9h-5.5l-1.1,2.4h-1.7l4.7-10.8h1.7l4.7,10.8H178.8z M175,2.6l-2.2,5h4.4L175,2.6z"/>
	<path class="st0" d="M190.8,10.9c-1,0.5-2.1,0.8-3.4,0.8c-1.3,0-2.4-0.3-3.4-0.8c-1.2-0.6-1.7-1.4-1.7-2.4h1.6
		c0,0.7,0.4,1.1,1.3,1.5c0.6,0.2,1.4,0.4,2.3,0.4c0.9,0,1.7-0.1,2.3-0.4c0.8-0.3,1.3-0.8,1.3-1.5c0-0.8-0.7-1.4-2.2-1.6
		c-0.7-0.1-1.3-0.2-2-0.3c-0.7-0.1-1.3-0.2-2-0.3c-1.5-0.5-2.2-1.3-2.2-2.7c0-1,0.5-1.8,1.6-2.3c0.9-0.5,2-0.8,3.2-0.8
		c1.2,0,2.3,0.3,3.2,0.8c1.1,0.6,1.6,1.4,1.6,2.3h-1.6c0-0.6-0.4-1.1-1.1-1.4c-0.6-0.3-1.3-0.4-2.1-0.4c-0.8,0-1.5,0.1-2.1,0.4
		c-0.8,0.3-1.1,0.8-1.1,1.4c0,0.8,0.7,1.4,2.2,1.7c0.7,0.1,1.3,0.2,2,0.3c0.7,0.1,1.3,0.2,2,0.3c1.4,0.5,2.2,1.3,2.2,2.6
		C192.6,9.5,192,10.3,190.8,10.9z"/>
	<path class="st0" d="M204.1,11.4V6.7H197v4.7h-1.6V0.6h1.6v4.7h7.1V0.6h1.6v10.8H204.1z"/>
	<path class="st0" d="M222.6,2v9.4h-1.6V2h-4.2V0.6h10V2H222.6z"/>
	<path class="st0" d="M237.8,11.4V6.7h-7.1v4.7h-1.6V0.6h1.6v4.7h7.1V0.6h1.6v10.8H237.8z"/>
	<path class="st0" d="M242.4,11.4V0.6h9V2h-7.4v3.3h5.8v1.4h-5.8V10h7.4v1.3H242.4z"/>
	<path class="st0" d="M274.3,11.4v-9l-3.9,9h-1.7l-3.9-9.1v9.1h-1.6V0.6h2.6l3.8,8.8l3.8-8.8h2.6v10.8H274.3z"/>
	<path class="st0" d="M279,11.4V0.6h1.6v10.8H279z"/>
	<path class="st0" d="M292.3,11.4L285.2,3v8.3h-1.6V0.6h1.6l7.1,8.3V0.6h1.6v10.8H292.3z"/>
	<path class="st0" d="M306.3,9.8c-1.3,1-2.8,1.6-4.5,1.6h-4.8V0.6h4.8c1.8,0,3.3,0.5,4.5,1.6c1.3,1.1,1.9,2.3,1.9,3.8
		C308.2,7.5,307.6,8.7,306.3,9.8z M305.2,3.2c-0.9-0.8-2.1-1.2-3.4-1.2h-3.2V10h3.2c1.3,0,2.4-0.4,3.4-1.2c1-0.8,1.4-1.8,1.4-2.9
		C306.6,4.9,306.1,3.9,305.2,3.2z"/>
	<path class="st0" d="M324.9,2v9.4h-1.6V2h-4.2V0.6h10V2H324.9z"/>
	<path class="st0" d="M340.3,11.4l-2.9-3.8c-0.5-0.6-1.3-0.9-2.4-0.9H333v4.7h-1.6V0.6h5.5c1.1,0,2,0.3,2.8,0.8
		c0.8,0.6,1.2,1.3,1.2,2.2c0,0.7-0.3,1.3-0.8,1.8c-0.6,0.5-1.2,0.9-2.1,1.1c0.3,0,0.7,0.4,1.3,1.1l2.9,3.8H340.3z M338.5,2.4
		c-0.5-0.3-1-0.4-1.6-0.4H333v3.3h3.9c0.6,0,1.2-0.1,1.6-0.4c0.5-0.3,0.8-0.7,0.8-1.2C339.3,3.1,339.1,2.7,338.5,2.4z"/>
	<path class="st0" d="M352.6,11.4L351.5,9H346l-1.1,2.4h-1.7l4.7-10.8h1.7l4.7,10.8H352.6z M348.8,2.6l-2.2,5h4.4L348.8,2.6z"/>
	<path class="st0" d="M364.8,5.8C364,6.4,363,6.7,362,6.7h-3.9v4.7h-1.6V0.6h5.5c1.1,0,2,0.3,2.8,0.8c0.8,0.6,1.2,1.3,1.2,2.2
		C366,4.5,365.6,5.2,364.8,5.8z M363.6,2.4c-0.5-0.3-1-0.4-1.6-0.4h-3.9v3.3h3.9c0.6,0,1.2-0.1,1.6-0.4c0.5-0.3,0.8-0.7,0.8-1.2
		C364.4,3.1,364.1,2.7,363.6,2.4z"/>
	<path class="st0" d="M376.4,5.8c-0.8,0.6-1.8,0.8-2.8,0.8h-3.9v4.7h-1.6V0.6h5.5c1.1,0,2,0.3,2.8,0.8c0.8,0.6,1.2,1.3,1.2,2.2
		C377.6,4.5,377.2,5.2,376.4,5.8z M375.3,2.4c-0.5-0.3-1-0.4-1.6-0.4h-3.9v3.3h3.9c0.6,0,1.2-0.1,1.6-0.4c0.5-0.3,0.8-0.7,0.8-1.2
		C376,3.1,375.8,2.7,375.3,2.4z"/>
	<path class="st0" d="M380.1,11.4V0.6h9V2h-7.4v3.3h5.8v1.4h-5.8V10h7.4v1.3H380.1z"/>
	<path class="st0" d="M401.5,9.8c-1.3,1-2.8,1.6-4.5,1.6h-4.8V0.6h4.8c1.8,0,3.3,0.5,4.5,1.6c1.3,1.1,1.9,2.3,1.9,3.8
		C403.4,7.5,402.8,8.7,401.5,9.8z M400.4,3.2C399.4,2.4,398.3,2,397,2h-3.2V10h3.2c1.3,0,2.4-0.4,3.4-1.2c1-0.8,1.4-1.8,1.4-2.9
		C401.8,4.9,401.3,3.9,400.4,3.2z"/>
	<path class="st0" d="M414.9,11.4V0.6h1.6v10.8H414.9z"/>
	<path class="st0" d="M428.2,11.4L421.1,3v8.3h-1.6V0.6h1.6l7.1,8.3V0.6h1.6v10.8H428.2z"/>
	<path class="st0" d="M450.1,10.5c-0.8,0.6-1.7,0.8-2.8,0.8h-5.8V0.6h5.5c1.1,0,2,0.3,2.8,0.8c0.8,0.6,1.2,1.3,1.2,2.2
		c0,1.1-0.7,1.9-2,2.3c1.5,0.4,2.3,1.2,2.3,2.4C451.3,9.2,450.9,9.9,450.1,10.5z M448.6,2.4c-0.5-0.3-1-0.4-1.6-0.4h-3.9v3.3h3.9
		c0.6,0,1.2-0.1,1.6-0.4c0.5-0.3,0.8-0.7,0.8-1.2C449.4,3.1,449.1,2.7,448.6,2.4z M449,7.1c-0.5-0.3-1-0.4-1.6-0.4h-4.2V10h4.2
		c0.6,0,1.2-0.1,1.6-0.4c0.5-0.3,0.8-0.7,0.8-1.2C449.7,7.8,449.5,7.4,449,7.1z"/>
	<path class="st0" d="M453.9,11.4V0.6h9V2h-7.4v3.3h5.8v1.4h-5.8V10h7.4v1.3H453.9z"/>
	<path class="st0" d="M474.2,11.4L473.1,9h-5.5l-1.1,2.4h-1.7l4.7-10.8h1.7l4.7,10.8H474.2z M470.4,2.6l-2.2,5h4.4L470.4,2.6z"/>
	<path class="st0" d="M486.4,10.4c-1,0.9-2.2,1.3-3.6,1.3s-2.6-0.4-3.6-1.3c-1-0.8-1.5-1.8-1.5-3V0.6h1.6v6.7c0,0.8,0.3,1.5,1,2.1
		c0.7,0.6,1.5,0.9,2.5,0.9c1,0,1.8-0.3,2.5-0.9c0.7-0.6,1-1.3,1-2.1V0.6h1.6v6.7C488,8.5,487.4,9.5,486.4,10.4z"/>
	<path class="st0" d="M496,2v9.4h-1.6V2h-4.2V0.6h10V2H496z"/>
	<path class="st0" d="M508.1,6.2v5.1h-1.6V6.2l-4.7-5.6h2l3.5,4.2l3.5-4.2h2L508.1,6.2z"/>
	<path class="st0" d="M514.2,11.1c-0.2,0.2-0.5,0.3-0.8,0.3c-0.3,0-0.6-0.1-0.8-0.3s-0.3-0.4-0.3-0.7c0-0.3,0.1-0.5,0.3-0.7
		s0.5-0.3,0.8-0.3c0.3,0,0.6,0.1,0.8,0.3s0.3,0.4,0.3,0.7C514.5,10.7,514.4,10.9,514.2,11.1z"/>
</g>
</svg>
