<?xml version="1.0" encoding="utf-8"?>
<!-- Generator: Adobe Illustrator 25.4.1, SVG Export Plug-In . SVG Version: 6.00 Build 0)  -->
<svg version="1.1" id="レイヤー_1" xmlns="http://www.w3.org/2000/svg" xmlns:xlink="http://www.w3.org/1999/xlink" x="0px"
	 y="0px" viewBox="0 0 537 12" style="enable-background:new 0 0 537 12;" xml:space="preserve">
<style type="text/css">
	.st0{fill:#32667A;}
</style>
<g>
	<path class="st0" d="M59.4,11.4h-1.7L54.9,3L52,11.4h-1.7L46.7,0.6h1.7l2.8,8.3l2.9-8.3h1.7l2.9,8.3l2.9-8.3h1.7L59.4,11.4z"/>
	<path class="st0" d="M73.7,11.4V6.7h-7.1v4.7H65V0.6h1.6v4.7h7.1V0.6h1.6v10.8H73.7z"/>
	<path class="st0" d="M78.4,11.4V0.6h9V2H80v3.3h5.8v1.4H80V10h7.4v1.3H78.4z"/>
	<path class="st0" d="M99.1,11.4L92,3v8.3h-1.6V0.6H92L99.1,9V0.6h1.6v10.8H99.1z"/>
	<path class="st0" d="M112.4,11.4V0.6h1.6v10.8H112.4z"/>
	<path class="st0" d="M122.2,2v9.4h-1.6V2h-4.2V0.6h10V2H122.2z"/>
	<path class="st0" d="M137.4,11.4V0.6h9V2H139v3.3h5.8v1.4H139V10h7.4v1.3H137.4z"/>
	<path class="st0" d="M157.8,11.4l-3.5-4.2l-3.5,4.2h-2l4.5-5.4l-4.5-5.4h2l3.5,4.2l3.5-4.2h2L155.2,6l4.5,5.4H157.8z"/>
	<path class="st0" d="M170.7,10.4c-1,0.9-2.2,1.3-3.6,1.3s-2.6-0.4-3.6-1.3c-1-0.8-1.5-1.8-1.5-3V0.6h1.6v6.7c0,0.8,0.3,1.5,1,2.1
		c0.7,0.6,1.5,0.9,2.5,0.9c1,0,1.8-0.3,2.5-0.9c0.7-0.6,1-1.3,1-2.1V0.6h1.6v6.7C172.2,8.5,171.7,9.5,170.7,10.4z"/>
	<path class="st0" d="M184.4,9.8c-1.3,1-2.8,1.6-4.5,1.6h-4.8V0.6h4.8c1.8,0,3.3,0.5,4.5,1.6c1.3,1.1,1.9,2.3,1.9,3.8
		C186.4,7.5,185.7,8.7,184.4,9.8z M183.3,3.2c-0.9-0.8-2.1-1.2-3.4-1.2h-3.2V10h3.2c1.3,0,2.4-0.4,3.4-1.2c1-0.8,1.4-1.8,1.4-2.9
		C184.7,4.9,184.3,3.9,183.3,3.2z"/>
	<path class="st0" d="M188.9,11.4V0.6h9V2h-7.4v3.3h5.8v1.4h-5.8V10h7.4v1.3H188.9z"/>
	<path class="st0" d="M209,10.9c-1,0.5-2.1,0.8-3.4,0.8c-1.3,0-2.4-0.3-3.4-0.8c-1.2-0.6-1.7-1.4-1.7-2.4h1.6c0,0.7,0.4,1.1,1.3,1.5
		c0.6,0.2,1.4,0.4,2.3,0.4c0.9,0,1.7-0.1,2.3-0.4c0.8-0.3,1.3-0.8,1.3-1.5c0-0.8-0.7-1.4-2.2-1.6c-0.7-0.1-1.3-0.2-2-0.3
		c-0.7-0.1-1.3-0.2-2-0.3c-1.5-0.5-2.2-1.3-2.2-2.7c0-1,0.5-1.8,1.6-2.3c0.9-0.5,2-0.8,3.2-0.8c1.2,0,2.3,0.3,3.2,0.8
		c1.1,0.6,1.6,1.4,1.6,2.3h-1.6c0-0.6-0.4-1.1-1.1-1.4c-0.6-0.3-1.3-0.4-2.1-0.4c-0.8,0-1.5,0.1-2.1,0.4c-0.8,0.3-1.1,0.8-1.1,1.4
		c0,0.8,0.7,1.4,2.2,1.7c0.7,0.1,1.3,0.2,2,0.3c0.7,0.1,1.3,0.2,2,0.3c1.4,0.5,2.2,1.3,2.2,2.6C210.8,9.5,210.2,10.3,209,10.9z"/>
	<path class="st0" d="M223.9,2v3.3h5.8v1.4h-5.8v4.7h-1.6V0.6h9V2H223.9z"/>
	<path class="st0" d="M242.6,11.4l-2.9-3.8c-0.5-0.6-1.3-0.9-2.4-0.9h-1.9v4.7h-1.6V0.6h5.5c1.1,0,2,0.3,2.8,0.8
		c0.8,0.6,1.2,1.3,1.2,2.2c0,0.7-0.3,1.3-0.8,1.8c-0.6,0.5-1.2,0.9-2.1,1.1c0.3,0,0.7,0.4,1.3,1.1l2.9,3.8H242.6z M240.9,2.4
		c-0.5-0.3-1-0.4-1.6-0.4h-3.9v3.3h3.9c0.6,0,1.2-0.1,1.6-0.4c0.5-0.3,0.8-0.7,0.8-1.2C241.6,3.1,241.4,2.7,240.9,2.4z"/>
	<path class="st0" d="M257.2,10c-1.3,1.1-2.9,1.7-4.8,1.7c-1.9,0-3.5-0.6-4.8-1.7c-1.3-1.1-2-2.4-2-4c0-1.6,0.7-2.9,2-4
		c1.3-1.1,2.9-1.6,4.8-1.6c1.9,0,3.5,0.5,4.8,1.6c1.3,1.1,2,2.4,2,4C259.2,7.5,258.5,8.9,257.2,10z M256.1,3c-1-0.8-2.2-1.3-3.6-1.3
		c-1.4,0-2.7,0.4-3.7,1.3c-1,0.8-1.5,1.9-1.5,3s0.5,2.2,1.5,3c1,0.8,2.2,1.3,3.7,1.3c1.4,0,2.6-0.4,3.6-1.3c1-0.8,1.5-1.9,1.5-3
		C257.6,4.8,257.1,3.8,256.1,3z"/>
	<path class="st0" d="M272.7,11.4v-9l-3.9,9H267l-3.9-9.1v9.1h-1.6V0.6h2.6l3.8,8.8l3.8-8.8h2.6v10.8H272.7z"/>
	<path class="st0" d="M291.1,2v9.4h-1.6V2h-4.2V0.6h10V2H291.1z"/>
	<path class="st0" d="M306.4,11.4V6.7h-7.1v4.7h-1.6V0.6h1.6v4.7h7.1V0.6h1.6v10.8H306.4z"/>
	<path class="st0" d="M311,11.4V0.6h9V2h-7.4v3.3h5.8v1.4h-5.8V10h7.4v1.3H311z"/>
	<path class="st0" d="M331.7,11.4V0.6h1.6v10.8H331.7z"/>
	<path class="st0" d="M345,11.4L337.9,3v8.3h-1.6V0.6h1.6L345,9V0.6h1.6v10.8H345z"/>
	<path class="st0" d="M357.8,10.9c-1,0.5-2.1,0.8-3.4,0.8c-1.3,0-2.4-0.3-3.4-0.8c-1.2-0.6-1.7-1.4-1.7-2.4h1.6
		c0,0.7,0.4,1.1,1.3,1.5c0.6,0.2,1.4,0.4,2.3,0.4c0.9,0,1.7-0.1,2.3-0.4c0.8-0.3,1.3-0.8,1.3-1.5c0-0.8-0.7-1.4-2.2-1.6
		c-0.7-0.1-1.3-0.2-2-0.3c-0.7-0.1-1.3-0.2-2-0.3c-1.5-0.5-2.2-1.3-2.2-2.7c0-1,0.5-1.8,1.6-2.3c0.9-0.5,2-0.8,3.2-0.8
		c1.2,0,2.3,0.3,3.2,0.8c1.1,0.6,1.6,1.4,1.6,2.3h-1.6c0-0.6-0.4-1.1-1.1-1.4c-0.6-0.3-1.3-0.4-2.1-0.4c-0.8,0-1.5,0.1-2.1,0.4
		c-0.8,0.3-1.1,0.8-1.1,1.4c0,0.8,0.7,1.4,2.2,1.7c0.7,0.1,1.3,0.2,2,0.3c0.7,0.1,1.3,0.2,2,0.3c1.4,0.5,2.2,1.3,2.2,2.6
		C359.5,9.5,358.9,10.3,357.8,10.9z"/>
	<path class="st0" d="M362.4,11.4V0.6h1.6v10.8H362.4z"/>
	<path class="st0" d="M376.4,9.8c-1.3,1-2.8,1.6-4.5,1.6H367V0.6h4.8c1.8,0,3.3,0.5,4.5,1.6c1.3,1.1,1.9,2.3,1.9,3.8
		C378.3,7.5,377.6,8.7,376.4,9.8z M375.2,3.2c-0.9-0.8-2.1-1.2-3.4-1.2h-3.2V10h3.2c1.3,0,2.4-0.4,3.4-1.2c1-0.8,1.4-1.8,1.4-2.9
		C376.6,4.9,376.2,3.9,375.2,3.2z"/>
	<path class="st0" d="M381.1,11.4V0.6h9V2h-7.4v3.3h5.8v1.4h-5.8V10h7.4v1.3H381.1z"/>
	<path class="st0" d="M410.4,11.4L409.3,9h-5.5l-1.1,2.4H401l4.7-10.8h1.7l4.7,10.8H410.4z M406.5,2.6l-2.2,5h4.4L406.5,2.6z"/>
	<path class="st0" d="M422.7,11.4L415.6,3v8.3H414V0.6h1.6l7.1,8.3V0.6h1.6v10.8H422.7z"/>
	<path class="st0" d="M436.7,9.8c-1.3,1-2.8,1.6-4.5,1.6h-4.8V0.6h4.8c1.8,0,3.3,0.5,4.5,1.6c1.3,1.1,1.9,2.3,1.9,3.8
		C438.6,7.5,438,8.7,436.7,9.8z M435.6,3.2c-0.9-0.8-2.1-1.2-3.4-1.2h-3.2V10h3.2c1.3,0,2.4-0.4,3.4-1.2c1-0.8,1.4-1.8,1.4-2.9
		C437,4.9,436.5,3.9,435.6,3.2z"/>
	<path class="st0" d="M450.1,11.4V0.6h1.6V10h5.8v1.3H450.1z"/>
	<path class="st0" d="M459.9,11.4V0.6h1.6v10.8H459.9z"/>
	<path class="st0" d="M466.2,2v3.3h5.8v1.4h-5.8v4.7h-1.6V0.6h9V2H466.2z"/>
	<path class="st0" d="M476,11.4V0.6h9V2h-7.4v3.3h5.8v1.4h-5.8V10h7.4v1.3H476z"/>
	<path class="st0" d="M490,11.1c-0.2,0.2-0.5,0.3-0.8,0.3c-0.3,0-0.6-0.1-0.8-0.3s-0.3-0.4-0.3-0.7c0-0.3,0.1-0.5,0.3-0.7
		s0.5-0.3,0.8-0.3c0.3,0,0.6,0.1,0.8,0.3s0.3,0.4,0.3,0.7C490.3,10.7,490.2,10.9,490,11.1z"/>
</g>
</svg>
