<?xml version="1.0" encoding="utf-8"?>
<!-- Generator: Adobe Illustrator 25.4.1, SVG Export Plug-In . SVG Version: 6.00 Build 0)  -->
<svg version="1.1" id="レイヤー_1" xmlns="http://www.w3.org/2000/svg" xmlns:xlink="http://www.w3.org/1999/xlink" x="0px"
	 y="0px" viewBox="0 0 537 12" style="enable-background:new 0 0 537 12;" xml:space="preserve">
<style type="text/css">
	.st0{fill:#32667A;}
</style>
<g>
	<path class="st0" d="M9.7,11.4L8.6,9H3.1L2,11.4H0.3L5,0.6h1.7l4.7,10.8H9.7z M5.8,2.6l-2.2,5H8L5.8,2.6z"/>
	<path class="st0" d="M19.3,11.6c-1.9,0-3.5-0.6-4.8-1.7c-1.3-1.1-2-2.4-2-4c0-1.6,0.7-2.9,2-4c1.3-1.1,2.9-1.7,4.8-1.7
		c1.9,0,3.5,0.5,4.8,1.6l-1.2,0.9c-1-0.8-2.2-1.2-3.6-1.2c-1.4,0-2.7,0.4-3.7,1.3c-1,0.8-1.5,1.9-1.5,3s0.5,2.2,1.5,3
		c1,0.8,2.2,1.3,3.7,1.3c1.4,0,2.6-0.4,3.6-1.2L24,10C22.7,11.1,21.1,11.6,19.3,11.6z"/>
	<path class="st0" d="M32.9,11.6c-1.9,0-3.5-0.6-4.8-1.7c-1.3-1.1-2-2.4-2-4c0-1.6,0.7-2.9,2-4c1.3-1.1,2.9-1.7,4.8-1.7
		c1.9,0,3.5,0.5,4.8,1.6l-1.2,0.9c-1-0.8-2.2-1.2-3.6-1.2c-1.4,0-2.7,0.4-3.7,1.3c-1,0.8-1.5,1.9-1.5,3s0.5,2.2,1.5,3
		c1,0.8,2.2,1.3,3.7,1.3c1.4,0,2.6-0.4,3.6-1.2l1.2,0.9C36.4,11.1,34.8,11.6,32.9,11.6z"/>
	<path class="st0" d="M40.9,11.4V0.6h9V2h-7.4v3.3h5.8v1.4h-5.8V10h7.4v1.3H40.9z"/>
	<path class="st0" d="M61.2,5.8c-0.8,0.6-1.8,0.8-2.8,0.8h-3.9v4.7h-1.6V0.6h5.5c1.1,0,2,0.3,2.8,0.8c0.8,0.6,1.2,1.3,1.2,2.2
		C62.4,4.5,62,5.2,61.2,5.8z M60,2.4C59.6,2.1,59,2,58.4,2h-3.9v3.3h3.9c0.6,0,1.2-0.1,1.6-0.4c0.5-0.3,0.8-0.7,0.8-1.2
		C60.8,3.1,60.5,2.7,60,2.4z"/>
	<path class="st0" d="M70,2v9.4h-1.6V2h-4.2V0.6h10V2H70z"/>
	<path class="st0" d="M76.6,11.4V0.6h1.6v10.8H76.6z"/>
	<path class="st0" d="M89.9,11.4L82.8,3v8.3h-1.6V0.6h1.6L89.9,9V0.6h1.6v10.8H89.9z"/>
	<path class="st0" d="M105.5,10.2c-0.4,0.3-0.9,0.6-1.4,0.8c-0.5,0.2-1,0.4-1.5,0.5c-0.5,0.1-1.1,0.2-1.7,0.2
		c-1.9,0-3.5-0.6-4.8-1.7c-1.3-1.1-2-2.4-2-4c0-1.6,0.7-2.9,2-4c1.3-1.1,2.9-1.7,4.8-1.7c1.1,0,2.1,0.2,3,0.6s1.8,1,2.4,1.7L105,3.4
		c-0.5-0.5-1.1-1-1.8-1.3c-0.7-0.3-1.5-0.5-2.3-0.5c-1.4,0-2.7,0.4-3.7,1.3c-1,0.8-1.5,1.9-1.5,3s0.5,2.2,1.5,3
		c1,0.8,2.2,1.3,3.7,1.3c1.7,0,3-0.5,4-1.6v-2h-4V5.3h5.7v3.8C106.2,9.5,105.9,9.8,105.5,10.2z"/>
	<path class="st0" d="M126.6,11.4L125.6,9H120l-1.1,2.4h-1.7l4.7-10.8h1.7l4.7,10.8H126.6z M122.8,2.6l-2.2,5h4.4L122.8,2.6z"/>
	<path class="st0" d="M139.2,11.4L132.1,3v8.3h-1.6V0.6h1.6l7.1,8.3V0.6h1.6v10.8H139.2z"/>
	<path class="st0" d="M153.6,9.8c-1.3,1-2.8,1.6-4.5,1.6h-4.8V0.6h4.8c1.8,0,3.3,0.5,4.5,1.6c1.3,1.1,1.9,2.3,1.9,3.8
		C155.5,7.5,154.8,8.7,153.6,9.8z M152.4,3.2C151.5,2.4,150.3,2,149,2h-3.2V10h3.2c1.3,0,2.4-0.4,3.4-1.2c1-0.8,1.4-1.8,1.4-2.9
		C153.8,4.9,153.4,3.9,152.4,3.2z"/>
	<path class="st0" d="M175.8,11.4l-2.9-3.8c-0.5-0.6-1.3-0.9-2.4-0.9h-1.9v4.7h-1.6V0.6h5.5c1.1,0,2,0.3,2.8,0.8
		c0.8,0.6,1.2,1.3,1.2,2.2c0,0.7-0.3,1.3-0.8,1.8c-0.6,0.5-1.2,0.9-2.1,1.1c0.3,0,0.7,0.4,1.3,1.1l2.9,3.8H175.8z M174.1,2.4
		c-0.5-0.3-1-0.4-1.6-0.4h-3.9v3.3h3.9c0.6,0,1.2-0.1,1.6-0.4c0.5-0.3,0.8-0.7,0.8-1.2C174.8,3.1,174.6,2.7,174.1,2.4z"/>
	<path class="st0" d="M179.5,11.4V0.6h9V2h-7.4v3.3h5.8v1.4h-5.8V10h7.4v1.3H179.5z"/>
	<path class="st0" d="M200.3,11.4L193.2,3v8.3h-1.6V0.6h1.6l7.1,8.3V0.6h1.6v10.8H200.3z"/>
	<path class="st0" d="M204.9,11.4V0.6h9V2h-7.4v3.3h5.8v1.4h-5.8V10h7.4v1.3H204.9z"/>
	<path class="st0" d="M228.9,11.4h-1.7L224.4,3l-2.9,8.3h-1.7l-3.7-10.8h1.7l2.8,8.3l2.9-8.3h1.7l2.9,8.3l2.9-8.3h1.7L228.9,11.4z"
		/>
	<path class="st0" d="M234.8,11.4V0.6h1.6v10.8H234.8z"/>
	<path class="st0" d="M248.1,11.4L241.1,3v8.3h-1.6V0.6h1.6l7.1,8.3V0.6h1.6v10.8H248.1z"/>
	<path class="st0" d="M263.7,10.2c-0.4,0.3-0.9,0.6-1.4,0.8c-0.5,0.2-1,0.4-1.5,0.5c-0.5,0.1-1.1,0.2-1.7,0.2
		c-1.9,0-3.5-0.6-4.8-1.7c-1.3-1.1-2-2.4-2-4c0-1.6,0.7-2.9,2-4c1.3-1.1,2.9-1.7,4.8-1.7c1.1,0,2.1,0.2,3,0.6s1.8,1,2.4,1.7
		l-1.3,0.8c-0.5-0.5-1.1-1-1.8-1.3c-0.7-0.3-1.5-0.5-2.3-0.5c-1.4,0-2.7,0.4-3.7,1.3c-1,0.8-1.5,1.9-1.5,3s0.5,2.2,1.5,3
		c1,0.8,2.2,1.3,3.7,1.3c1.7,0,3-0.5,4-1.6v-2h-4V5.3h5.7v3.8C264.5,9.5,264.1,9.8,263.7,10.2z"/>
	<path class="st0" d="M288.3,11.4h-1.7L283.7,3l-2.9,8.3h-1.7l-3.7-10.8h1.7l2.8,8.3l2.9-8.3h1.7l2.9,8.3l2.9-8.3h1.7L288.3,11.4z"
		/>
	<path class="st0" d="M302.9,11.4V6.7h-7.1v4.7h-1.6V0.6h1.6v4.7h7.1V0.6h1.6v10.8H302.9z"/>
	<path class="st0" d="M316.1,11.4L315,9h-5.5l-1.1,2.4h-1.7l4.7-10.8h1.7l4.7,10.8H316.1z M312.2,2.6l-2.2,5h4.4L312.2,2.6z"/>
	<path class="st0" d="M323.8,2v9.4h-1.6V2H318V0.6h10V2H323.8z"/>
	<path class="st0" d="M351,11.4h-1.7L346.4,3l-2.9,8.3h-1.7l-3.7-10.8h1.7l2.8,8.3l2.9-8.3h1.7l2.9,8.3l2.9-8.3h1.7L351,11.4z"/>
	<path class="st0" d="M356.9,11.4V0.6h9V2h-7.4v3.3h5.8v1.4h-5.8V10h7.4v1.3H356.9z"/>
	<path class="st0" d="M386.1,11.4L385.1,9h-5.5l-1.1,2.4h-1.7l4.7-10.8h1.7l4.7,10.8H386.1z M382.3,2.6l-2.2,5h4.4L382.3,2.6z"/>
	<path class="st0" d="M398.9,11.4L396,7.6c-0.5-0.6-1.3-0.9-2.4-0.9h-1.9v4.7H390V0.6h5.5c1.1,0,2,0.3,2.8,0.8
		c0.8,0.6,1.2,1.3,1.2,2.2c0,0.7-0.3,1.3-0.8,1.8c-0.6,0.5-1.2,0.9-2.1,1.1c0.3,0,0.7,0.4,1.3,1.1l2.9,3.8H398.9z M397.2,2.4
		c-0.5-0.3-1-0.4-1.6-0.4h-3.9v3.3h3.9c0.6,0,1.2-0.1,1.6-0.4c0.5-0.3,0.8-0.7,0.8-1.2C397.9,3.1,397.7,2.7,397.2,2.4z"/>
	<path class="st0" d="M402.9,11.4V0.6h9V2h-7.4v3.3h5.8v1.4h-5.8V10h7.4v1.3H402.9z"/>
	<path class="st0" d="M432.2,10.5c-0.8,0.6-1.7,0.8-2.8,0.8h-5.8V0.6h5.5c1.1,0,2,0.3,2.8,0.8c0.8,0.6,1.2,1.3,1.2,2.2
		c0,1.1-0.7,1.9-2,2.3c1.5,0.4,2.3,1.2,2.3,2.4C433.5,9.2,433,9.9,432.2,10.5z M430.8,2.4c-0.5-0.3-1-0.4-1.6-0.4h-3.9v3.3h3.9
		c0.6,0,1.2-0.1,1.6-0.4c0.5-0.3,0.8-0.7,0.8-1.2C431.5,3.1,431.3,2.7,430.8,2.4z M431.1,7.1c-0.5-0.3-1-0.4-1.6-0.4h-4.2V10h4.2
		c0.6,0,1.2-0.1,1.6-0.4c0.5-0.3,0.8-0.7,0.8-1.2C431.8,7.8,431.6,7.4,431.1,7.1z"/>
	<path class="st0" d="M447.5,10c-1.3,1.1-2.9,1.7-4.8,1.7c-1.9,0-3.5-0.6-4.8-1.7c-1.3-1.1-2-2.4-2-4c0-1.6,0.7-2.9,2-4
		c1.3-1.1,2.9-1.6,4.8-1.6c1.9,0,3.5,0.5,4.8,1.6c1.3,1.1,2,2.4,2,4C449.5,7.5,448.8,8.9,447.5,10z M446.3,3c-1-0.8-2.2-1.3-3.6-1.3
		c-1.4,0-2.7,0.4-3.7,1.3c-1,0.8-1.5,1.9-1.5,3s0.5,2.2,1.5,3c1,0.8,2.2,1.3,3.7,1.3c1.4,0,2.6-0.4,3.6-1.3c1-0.8,1.5-1.9,1.5-3
		C447.8,4.8,447.3,3.8,446.3,3z"/>
	<path class="st0" d="M460.9,11.4L458,7.6c-0.5-0.6-1.3-0.9-2.4-0.9h-1.9v4.7h-1.6V0.6h5.5c1.1,0,2,0.3,2.8,0.8
		c0.8,0.6,1.2,1.3,1.2,2.2c0,0.7-0.3,1.3-0.8,1.8c-0.6,0.5-1.2,0.9-2.1,1.1c0.3,0,0.7,0.4,1.3,1.1l2.9,3.8H460.9z M459.2,2.4
		c-0.5-0.3-1-0.4-1.6-0.4h-3.9v3.3h3.9c0.6,0,1.2-0.1,1.6-0.4c0.5-0.3,0.8-0.7,0.8-1.2C459.9,3.1,459.7,2.7,459.2,2.4z"/>
	<path class="st0" d="M473.4,11.4L466.3,3v8.3h-1.6V0.6h1.6l7.1,8.3V0.6h1.6v10.8H473.4z"/>
	<path class="st0" d="M498.6,11.4h-1.7L494.1,3l-2.9,8.3h-1.7l-3.7-10.8h1.7l2.8,8.3l2.9-8.3h1.7l2.9,8.3l2.9-8.3h1.7L498.6,11.4z"
		/>
	<path class="st0" d="M504.8,11.4V0.6h1.6v10.8H504.8z"/>
	<path class="st0" d="M514.6,2v9.4H513V2h-4.2V0.6h10V2H514.6z"/>
	<path class="st0" d="M529.8,11.4V6.7h-7.1v4.7h-1.6V0.6h1.6v4.7h7.1V0.6h1.6v10.8H529.8z"/>
	<path class="st0" d="M536.4,11.1c-0.2,0.2-0.5,0.3-0.8,0.3c-0.3,0-0.6-0.1-0.8-0.3s-0.3-0.4-0.3-0.7c0-0.3,0.1-0.5,0.3-0.7
		s0.5-0.3,0.8-0.3c0.3,0,0.6,0.1,0.8,0.3s0.3,0.4,0.3,0.7C536.7,10.7,536.6,10.9,536.4,11.1z"/>
</g>
</svg>
