<?xml version="1.0" encoding="utf-8"?>
<!-- Generator: Adobe Illustrator 25.4.1, SVG Export Plug-In . SVG Version: 6.00 Build 0)  -->
<svg version="1.1" id="レイヤー_1" xmlns="http://www.w3.org/2000/svg" xmlns:xlink="http://www.w3.org/1999/xlink" x="0px"
	 y="0px" viewBox="0 0 537 12" style="enable-background:new 0 0 537 12;" xml:space="preserve">
<style type="text/css">
	.st0{fill:#32667A;}
</style>
<g>
	<path class="st0" d="M43.7,10.5c-0.8,0.6-1.7,0.8-2.8,0.8H35V0.6h5.5c1.1,0,2,0.3,2.8,0.8c0.8,0.6,1.2,1.3,1.2,2.2
		c0,1.1-0.7,1.9-2,2.3c1.5,0.4,2.3,1.2,2.3,2.4C44.9,9.2,44.5,9.9,43.7,10.5z M42.2,2.4c-0.5-0.3-1-0.4-1.6-0.4h-3.9v3.3h3.9
		c0.6,0,1.2-0.1,1.6-0.4c0.5-0.3,0.8-0.7,0.8-1.2C42.9,3.1,42.7,2.7,42.2,2.4z M42.5,7.1c-0.5-0.3-1-0.4-1.6-0.4h-4.2V10h4.2
		c0.6,0,1.2-0.1,1.6-0.4c0.5-0.3,0.8-0.7,0.8-1.2C43.3,7.8,43,7.4,42.5,7.1z"/>
	<path class="st0" d="M47.7,11.4V0.6h9V2h-7.4v3.3h5.8v1.4h-5.8V10h7.4v1.3H47.7z"/>
	<path class="st0" d="M68,11.4L67,9h-5.5l-1.1,2.4h-1.7l4.7-10.8h1.7l4.7,10.8H68z M64.2,2.6l-2.2,5h4.4L64.2,2.6z"/>
	<path class="st0" d="M80.6,10.4c-1,0.9-2.2,1.3-3.6,1.3s-2.6-0.4-3.6-1.3c-1-0.8-1.5-1.8-1.5-3V0.6h1.6v6.7c0,0.8,0.3,1.5,1,2.1
		c0.7,0.6,1.5,0.9,2.5,0.9c1,0,1.8-0.3,2.5-0.9c0.7-0.6,1-1.3,1-2.1V0.6h1.6v6.7C82.1,8.5,81.6,9.5,80.6,10.4z"/>
	<path class="st0" d="M90.1,2v9.4h-1.6V2h-4.2V0.6h10V2H90.1z"/>
	<path class="st0" d="M101.9,6.2v5.1h-1.6V6.2l-4.7-5.6h2l3.5,4.2l3.5-4.2h2L101.9,6.2z"/>
	<path class="st0" d="M117.5,11.4V0.6h1.6v10.8H117.5z"/>
	<path class="st0" d="M130.5,10.9c-1,0.5-2.1,0.8-3.4,0.8c-1.3,0-2.4-0.3-3.4-0.8c-1.2-0.6-1.7-1.4-1.7-2.4h1.6
		c0,0.7,0.4,1.1,1.3,1.5c0.6,0.2,1.4,0.4,2.3,0.4c0.9,0,1.7-0.1,2.3-0.4c0.8-0.3,1.3-0.8,1.3-1.5c0-0.8-0.7-1.4-2.2-1.6
		c-0.7-0.1-1.3-0.2-2-0.3c-0.7-0.1-1.3-0.2-2-0.3c-1.5-0.5-2.2-1.3-2.2-2.7c0-1,0.5-1.8,1.6-2.3c0.9-0.5,2-0.8,3.2-0.8
		c1.2,0,2.3,0.3,3.2,0.8c1.1,0.6,1.6,1.4,1.6,2.3h-1.6c0-0.6-0.4-1.1-1.1-1.4c-0.6-0.3-1.3-0.4-2.1-0.4c-0.8,0-1.5,0.1-2.1,0.4
		c-0.8,0.3-1.1,0.8-1.1,1.4c0,0.8,0.7,1.4,2.2,1.7c0.7,0.1,1.3,0.2,2,0.3c0.7,0.1,1.3,0.2,2,0.3c1.4,0.5,2.2,1.3,2.2,2.6
		C132.3,9.5,131.7,10.3,130.5,10.9z"/>
	<path class="st0" d="M152.2,10.9c-1,0.5-2.1,0.8-3.4,0.8c-1.3,0-2.4-0.3-3.4-0.8c-1.2-0.6-1.7-1.4-1.7-2.4h1.6
		c0,0.7,0.4,1.1,1.3,1.5c0.6,0.2,1.4,0.4,2.3,0.4c0.9,0,1.7-0.1,2.3-0.4c0.8-0.3,1.3-0.8,1.3-1.5c0-0.8-0.7-1.4-2.2-1.6
		c-0.7-0.1-1.3-0.2-2-0.3c-0.7-0.1-1.3-0.2-2-0.3c-1.5-0.5-2.2-1.3-2.2-2.7c0-1,0.5-1.8,1.6-2.3c0.9-0.5,2-0.8,3.2-0.8
		c1.2,0,2.3,0.3,3.2,0.8c1.1,0.6,1.6,1.4,1.6,2.3H152c0-0.6-0.4-1.1-1.1-1.4c-0.6-0.3-1.3-0.4-2.1-0.4c-0.8,0-1.5,0.1-2.1,0.4
		c-0.8,0.3-1.1,0.8-1.1,1.4c0,0.8,0.7,1.4,2.2,1.7c0.7,0.1,1.3,0.2,2,0.3c0.7,0.1,1.3,0.2,2,0.3c1.4,0.5,2.2,1.3,2.2,2.6
		C153.9,9.5,153.4,10.3,152.2,10.9z"/>
	<path class="st0" d="M167.3,10c-1.3,1.1-2.9,1.7-4.8,1.7c-1.9,0-3.5-0.6-4.8-1.7c-1.3-1.1-2-2.4-2-4c0-1.6,0.7-2.9,2-4
		c1.3-1.1,2.9-1.6,4.8-1.6c1.9,0,3.5,0.5,4.8,1.6c1.3,1.1,2,2.4,2,4C169.3,7.5,168.7,8.9,167.3,10z M166.2,3c-1-0.8-2.2-1.3-3.6-1.3
		c-1.4,0-2.7,0.4-3.7,1.3c-1,0.8-1.5,1.9-1.5,3s0.5,2.2,1.5,3c1,0.8,2.2,1.3,3.7,1.3c1.4,0,2.6-0.4,3.6-1.3c1-0.8,1.5-1.9,1.5-3
		C167.7,4.8,167.2,3.8,166.2,3z"/>
	<path class="st0" d="M182.8,11.4v-9l-3.9,9h-1.7l-3.9-9.1v9.1h-1.6V0.6h2.6l3.8,8.8l3.8-8.8h2.6v10.8H182.8z"/>
	<path class="st0" d="M187.5,11.4V0.6h9V2h-7.4v3.3h5.8v1.4h-5.8V10h7.4v1.3H187.5z"/>
	<path class="st0" d="M204.7,2v9.4H203V2h-4.2V0.6h10V2H204.7z"/>
	<path class="st0" d="M219.9,11.4V6.7h-7.1v4.7h-1.6V0.6h1.6v4.7h7.1V0.6h1.6v10.8H219.9z"/>
	<path class="st0" d="M224.5,11.4V0.6h1.6v10.8H224.5z"/>
	<path class="st0" d="M237.9,11.4L230.8,3v8.3h-1.6V0.6h1.6l7.1,8.3V0.6h1.6v10.8H237.9z"/>
	<path class="st0" d="M253.1,10.2c-0.4,0.3-0.9,0.6-1.4,0.8c-0.5,0.2-1,0.4-1.5,0.5c-0.5,0.1-1.1,0.2-1.7,0.2
		c-1.9,0-3.5-0.6-4.8-1.7c-1.3-1.1-2-2.4-2-4c0-1.6,0.7-2.9,2-4c1.3-1.1,2.9-1.7,4.8-1.7c1.1,0,2.1,0.2,3,0.6s1.8,1,2.4,1.7
		l-1.3,0.8c-0.5-0.5-1.1-1-1.8-1.3c-0.7-0.3-1.5-0.5-2.3-0.5c-1.4,0-2.7,0.4-3.7,1.3c-1,0.8-1.5,1.9-1.5,3s0.5,2.2,1.5,3
		c1,0.8,2.2,1.3,3.7,1.3c1.7,0,3-0.5,4-1.6v-2h-4V5.3h5.7v3.8C253.9,9.5,253.5,9.8,253.1,10.2z"/>
	<path class="st0" d="M270.9,2v9.4h-1.6V2h-4.2V0.6h10V2H270.9z"/>
	<path class="st0" d="M286.1,11.4V6.7H279v4.7h-1.6V0.6h1.6v4.7h7.1V0.6h1.6v10.8H286.1z"/>
	<path class="st0" d="M299,11.4L298,9h-5.5l-1.1,2.4h-1.7l4.7-10.8h1.7l4.7,10.8H299z M295.2,2.6l-2.2,5h4.4L295.2,2.6z"/>
	<path class="st0" d="M306.8,2v9.4h-1.6V2H301V0.6h10V2H306.8z"/>
	<path class="st0" d="M330.4,10.9c-1,0.5-2.1,0.8-3.4,0.8c-1.3,0-2.4-0.3-3.4-0.8c-1.2-0.6-1.7-1.4-1.7-2.4h1.6
		c0,0.7,0.4,1.1,1.3,1.5c0.6,0.2,1.4,0.4,2.3,0.4c0.9,0,1.7-0.1,2.3-0.4c0.8-0.3,1.3-0.8,1.3-1.5c0-0.8-0.7-1.4-2.2-1.6
		c-0.7-0.1-1.3-0.2-2-0.3c-0.7-0.1-1.3-0.2-2-0.3c-1.5-0.5-2.2-1.3-2.2-2.7c0-1,0.5-1.8,1.6-2.3c0.9-0.5,2-0.8,3.2-0.8
		c1.2,0,2.3,0.3,3.2,0.8c1.1,0.6,1.6,1.4,1.6,2.3h-1.6c0-0.6-0.4-1.1-1.1-1.4c-0.6-0.3-1.3-0.4-2.1-0.4c-0.8,0-1.5,0.1-2.1,0.4
		c-0.8,0.3-1.1,0.8-1.1,1.4c0,0.8,0.7,1.4,2.2,1.7c0.7,0.1,1.3,0.2,2,0.3c0.7,0.1,1.3,0.2,2,0.3c1.4,0.5,2.2,1.3,2.2,2.6
		C332.1,9.5,331.5,10.3,330.4,10.9z"/>
	<path class="st0" d="M339.5,2v9.4h-1.6V2h-4.2V0.6h10V2H339.5z"/>
	<path class="st0" d="M353.6,11.4L352.6,9H347l-1.1,2.4h-1.7l4.7-10.8h1.7l4.7,10.8H353.6z M349.8,2.6l-2.2,5h4.4L349.8,2.6z"/>
	<path class="st0" d="M366.2,11.4L359.1,3v8.3h-1.6V0.6h1.6l7.1,8.3V0.6h1.6v10.8H366.2z"/>
	<path class="st0" d="M380.3,9.8c-1.3,1-2.8,1.6-4.5,1.6h-4.8V0.6h4.8c1.8,0,3.3,0.5,4.5,1.6c1.3,1.1,1.9,2.3,1.9,3.8
		C382.2,7.5,381.5,8.7,380.3,9.8z M379.1,3.2C378.2,2.4,377,2,375.7,2h-3.2V10h3.2c1.3,0,2.4-0.4,3.4-1.2c1-0.8,1.4-1.8,1.4-2.9
		C380.5,4.9,380.1,3.9,379.1,3.2z"/>
	<path class="st0" d="M392.5,10.9c-1,0.5-2.1,0.8-3.4,0.8c-1.3,0-2.4-0.3-3.4-0.8c-1.2-0.6-1.7-1.4-1.7-2.4h1.6
		c0,0.7,0.4,1.1,1.3,1.5c0.6,0.2,1.4,0.4,2.3,0.4c0.9,0,1.7-0.1,2.3-0.4c0.8-0.3,1.3-0.8,1.3-1.5c0-0.8-0.7-1.4-2.2-1.6
		c-0.7-0.1-1.3-0.2-2-0.3c-0.7-0.1-1.3-0.2-2-0.3c-1.5-0.5-2.2-1.3-2.2-2.7c0-1,0.5-1.8,1.6-2.3c0.9-0.5,2-0.8,3.2-0.8
		c1.2,0,2.3,0.3,3.2,0.8c1.1,0.6,1.6,1.4,1.6,2.3h-1.6c0-0.6-0.4-1.1-1.1-1.4c-0.6-0.3-1.3-0.4-2.1-0.4c-0.8,0-1.5,0.1-2.1,0.4
		c-0.8,0.3-1.1,0.8-1.1,1.4c0,0.8,0.7,1.4,2.2,1.7c0.7,0.1,1.3,0.2,2,0.3c0.7,0.1,1.3,0.2,2,0.3c1.4,0.5,2.2,1.3,2.2,2.6
		C394.2,9.5,393.6,10.3,392.5,10.9z"/>
	<path class="st0" d="M416.9,10c-1.3,1.1-2.9,1.7-4.8,1.7c-1.9,0-3.5-0.6-4.8-1.7c-1.3-1.1-2-2.4-2-4c0-1.6,0.7-2.9,2-4
		c1.3-1.1,2.9-1.6,4.8-1.6c1.9,0,3.5,0.5,4.8,1.6c1.3,1.1,2,2.4,2,4C418.9,7.5,418.2,8.9,416.9,10z M415.7,3c-1-0.8-2.2-1.3-3.6-1.3
		c-1.4,0-2.7,0.4-3.7,1.3c-1,0.8-1.5,1.9-1.5,3s0.5,2.2,1.5,3c1,0.8,2.2,1.3,3.7,1.3c1.4,0,2.6-0.4,3.6-1.3c1-0.8,1.5-1.9,1.5-3
		C417.3,4.8,416.8,3.8,415.7,3z"/>
	<path class="st0" d="M429.8,10.4c-1,0.9-2.2,1.3-3.6,1.3s-2.6-0.4-3.6-1.3c-1-0.8-1.5-1.8-1.5-3V0.6h1.6v6.7c0,0.8,0.3,1.5,1,2.1
		c0.7,0.6,1.5,0.9,2.5,0.9c1,0,1.8-0.3,2.5-0.9c0.7-0.6,1-1.3,1-2.1V0.6h1.6v6.7C431.3,8.5,430.8,9.5,429.8,10.4z"/>
	<path class="st0" d="M440,2v9.4h-1.6V2h-4.2V0.6h10V2H440z"/>
	<path class="st0" d="M466.3,10c-1.3,1.1-2.9,1.7-4.8,1.7c-1.9,0-3.5-0.6-4.8-1.7c-1.3-1.1-2-2.4-2-4c0-1.6,0.7-2.9,2-4
		c1.3-1.1,2.9-1.6,4.8-1.6c1.9,0,3.5,0.5,4.8,1.6c1.3,1.1,2,2.4,2,4C468.3,7.5,467.6,8.9,466.3,10z M465.2,3c-1-0.8-2.2-1.3-3.6-1.3
		c-1.4,0-2.7,0.4-3.7,1.3c-1,0.8-1.5,1.9-1.5,3s0.5,2.2,1.5,3c1,0.8,2.2,1.3,3.7,1.3c1.4,0,2.6-0.4,3.6-1.3c1-0.8,1.5-1.9,1.5-3
		C466.7,4.8,466.2,3.8,465.2,3z"/>
	<path class="st0" d="M479.3,11.4L472.2,3v8.3h-1.6V0.6h1.6l7.1,8.3V0.6h1.6v10.8H479.3z"/>
	<path class="st0" d="M484.2,11.4V0.6h1.6V10h5.8v1.3H484.2z"/>
	<path class="st0" d="M497.2,6.2v5.1h-1.6V6.2l-4.7-5.6h2l3.5,4.2l3.5-4.2h2L497.2,6.2z"/>
</g>
</svg>
